<?xml version="1.0" encoding="us-ascii" standalone="no"?><svg xmlns="http://www.w3.org/2000/svg" xmlns:xlink="http://www.w3.org/1999/xlink" contentStyleType="text/css" height="1107px" preserveAspectRatio="none" style="width:1573px;height:1107px;background:#FFFFFF;" version="1.1" viewBox="0 0 1573 1107" width="1573px" zoomAndPan="magnify"><defs/><g><text fill="#000000" font-family="sans-serif" font-size="14" font-weight="bold" lengthAdjust="spacing" textLength="206" x="676.5" y="24.5332">Software System - Containers</text><!--cluster Software System\n<size:10>[Software System]</size>--><g id="cluster_Software System\n&lt;size:10&gt;[Software System]&lt;/size&gt;"><rect fill="none" height="920.5" rx="2.5" ry="2.5" style="stroke:#9A9A9A;stroke-width:1.0;" width="1560" x="7" y="180.6094"/><text fill="#9A9A9A" font-family="sans-serif" font-size="14" font-weight="bold" lengthAdjust="spacing" textLength="116" x="729" y="197.1426">Software System</text><text fill="#9A9A9A" font-family="sans-serif" font-size="10" font-weight="bold" lengthAdjust="spacing" textLength="89" x="742.5" y="210.5996">[Software System]</text></g><!--cluster group1--><g id="cluster_group1"><rect fill="none" height="256.5" rx="2.5" ry="2.5" style="stroke:#CCCCCC;stroke-width:1.0;stroke-dasharray:7.0,7.0;" width="232" x="287" y="342.6094"/><text fill="#CCCCCC" font-family="sans-serif" font-size="14" font-weight="bold" lengthAdjust="spacing" textLength="66" x="370" y="359.1426">Service 1</text></g><!--cluster group2--><g id="cluster_group2"><rect fill="none" height="268" rx="2.5" ry="2.5" style="stroke:#CCCCCC;stroke-width:1.0;stroke-dasharray:7.0,7.0;" width="232" x="1311" y="494.6094"/><text fill="#CCCCCC" font-family="sans-serif" font-size="14" font-weight="bold" lengthAdjust="spacing" textLength="66" x="1394" y="511.1426">Service 2</text></g><!--cluster group3--><g id="cluster_group3"><rect fill="none" height="268" rx="2.5" ry="2.5" style="stroke:#CCCCCC;stroke-width:1.0;stroke-dasharray:7.0,7.0;" width="232" x="31" y="494.6094"/><text fill="#CCCCCC" font-family="sans-serif" font-size="14" font-weight="bold" lengthAdjust="spacing" textLength="66" x="114" y="511.1426">Service 3</text></g><!--cluster group4--><g id="cluster_group4"><rect fill="none" height="268" rx="2.5" ry="2.5" style="stroke:#CCCCCC;stroke-width:1.0;stroke-dasharray:7.0,7.0;" width="232" x="543" y="658.1094"/><text fill="#CCCCCC" font-family="sans-serif" font-size="14" font-weight="bold" lengthAdjust="spacing" textLength="66" x="626" y="674.6426">Service 4</text></g><!--cluster group5--><g id="cluster_group5"><rect fill="none" height="268" rx="2.5" ry="2.5" style="stroke:#CCCCCC;stroke-width:1.0;stroke-dasharray:7.0,7.0;" width="232" x="1055" y="658.1094"/><text fill="#CCCCCC" font-family="sans-serif" font-size="14" font-weight="bold" lengthAdjust="spacing" textLength="66" x="1138" y="674.6426">Service 5</text></g><!--cluster group6--><g id="cluster_group6"><rect fill="none" height="255.5" rx="2.5" ry="2.5" style="stroke:#CCCCCC;stroke-width:1.0;stroke-dasharray:7.0,7.0;" width="232" x="799" y="821.6094"/><text fill="#CCCCCC" font-family="sans-serif" font-size="14" font-weight="bold" lengthAdjust="spacing" textLength="66" x="882" y="838.1426">Service 6</text></g><!--cluster group7--><g id="cluster_group7"><rect fill="none" height="268" rx="2.5" ry="2.5" style="stroke:#CCCCCC;stroke-width:1.0;stroke-dasharray:7.0,7.0;" width="232" x="287" y="658.1094"/><text fill="#CCCCCC" font-family="sans-serif" font-size="14" font-weight="bold" lengthAdjust="spacing" textLength="66" x="370" y="674.6426">Service 7</text></g><!--cluster group8--><g id="cluster_group8"><rect fill="none" height="255.5" rx="2.5" ry="2.5" style="stroke:#CCCCCC;stroke-width:1.0;stroke-dasharray:7.0,7.0;" width="232" x="31" y="821.6094"/><text fill="#CCCCCC" font-family="sans-serif" font-size="14" font-weight="bold" lengthAdjust="spacing" textLength="66" x="114" y="838.1426">Service 8</text></g><!--entity SoftwareSystem.WebApplication--><g id="elem_SoftwareSystem.WebApplication"><rect fill="#DDDDDD" height="52.7031" rx="2.5" ry="2.5" style="stroke:#9A9A9A;stroke-width:0.5;" width="144" x="191" y="229.6094"/><text fill="#000000" font-family="sans-serif" font-size="16" font-weight="bold" lengthAdjust="spacing" textLength="34" x="201" y="256.2188">Web</text><text fill="#000000" font-family="sans-serif" font-size="16" font-weight="bold" lengthAdjust="spacing" textLength="4" x="235" y="256.2188">&#160;</text><text fill="#000000" font-family="sans-serif" font-size="16" font-weight="bold" lengthAdjust="spacing" textLength="86" x="239" y="256.2188">Application</text><text fill="#000000" font-family="sans-serif" font-size="10" lengthAdjust="spacing" textLength="52" x="237" y="270.1152">[Container]</text></g><!--entity SoftwareSystem.Service1API--><g id="elem_SoftwareSystem.Service1API"><polygon fill="#91F0AE" points="503,400.1094,453,378.6094,353,378.6094,303,400.1094,353,421.6094,453,421.6094,503,400.1094" style="stroke:#65A879;stroke-width:0.5;"/><text fill="#000000" font-family="sans-serif" font-size="16" font-weight="bold" lengthAdjust="spacing" textLength="57" x="353" y="400.2188">Service</text><text fill="#000000" font-family="sans-serif" font-size="16" font-weight="bold" lengthAdjust="spacing" textLength="4" x="410" y="400.2188">&#160;</text><text fill="#000000" font-family="sans-serif" font-size="16" font-weight="bold" lengthAdjust="spacing" textLength="9" x="414" y="400.2188">1</text><text fill="#000000" font-family="sans-serif" font-size="16" font-weight="bold" lengthAdjust="spacing" textLength="4" x="423" y="400.2188">&#160;</text><text fill="#000000" font-family="sans-serif" font-size="16" font-weight="bold" lengthAdjust="spacing" textLength="26" x="427" y="400.2188">API</text><text fill="#000000" font-family="sans-serif" font-size="10" lengthAdjust="spacing" textLength="52" x="377" y="414.1152">[Container]</text></g><!--entity SoftwareSystem.Service1Database--><g id="elem_SoftwareSystem.Service1Database"><path d="M320,531.1094 C320,521.1094 403,521.1094 403,521.1094 C403,521.1094 486,521.1094 486,531.1094 L486,572.8125 C486,582.8125 403,582.8125 403,582.8125 C403,582.8125 320,582.8125 320,572.8125 L320,531.1094 " fill="#91F0AE" style="stroke:#65A879;stroke-width:0.5;"/><path d="M320,531.1094 C320,541.1094 403,541.1094 403,541.1094 C403,541.1094 486,541.1094 486,531.1094 " fill="none" style="stroke:#65A879;stroke-width:0.5;"/><text fill="#000000" font-family="sans-serif" font-size="16" font-weight="bold" lengthAdjust="spacing" textLength="57" x="330" y="561.7188">Service</text><text fill="#000000" font-family="sans-serif" font-size="16" font-weight="bold" lengthAdjust="spacing" textLength="4" x="387" y="561.7188">&#160;</text><text fill="#000000" font-family="sans-serif" font-size="16" font-weight="bold" lengthAdjust="spacing" textLength="9" x="391" y="561.7188">1</text><text fill="#000000" font-family="sans-serif" font-size="16" font-weight="bold" lengthAdjust="spacing" textLength="4" x="400" y="561.7188">&#160;</text><text fill="#000000" font-family="sans-serif" font-size="16" font-weight="bold" lengthAdjust="spacing" textLength="72" x="404" y="561.7188">Database</text><text fill="#000000" font-family="sans-serif" font-size="10" lengthAdjust="spacing" textLength="52" x="377" y="575.6152">[Container]</text></g><!--entity SoftwareSystem.Service2API--><g id="elem_SoftwareSystem.Service2API"><polygon fill="#EDF08C" points="1527,552.1094,1477,530.6094,1377,530.6094,1327,552.1094,1377,573.6094,1477,573.6094,1527,552.1094" style="stroke:#A5A862;stroke-width:0.5;"/><text fill="#000000" font-family="sans-serif" font-size="16" font-weight="bold" lengthAdjust="spacing" textLength="57" x="1377" y="552.2188">Service</text><text fill="#000000" font-family="sans-serif" font-size="16" font-weight="bold" lengthAdjust="spacing" textLength="4" x="1434" y="552.2188">&#160;</text><text fill="#000000" font-family="sans-serif" font-size="16" font-weight="bold" lengthAdjust="spacing" textLength="9" x="1438" y="552.2188">2</text><text fill="#000000" font-family="sans-serif" font-size="16" font-weight="bold" lengthAdjust="spacing" textLength="4" x="1447" y="552.2188">&#160;</text><text fill="#000000" font-family="sans-serif" font-size="16" font-weight="bold" lengthAdjust="spacing" textLength="26" x="1451" y="552.2188">API</text><text fill="#000000" font-family="sans-serif" font-size="10" lengthAdjust="spacing" textLength="52" x="1401" y="566.1152">[Container]</text></g><!--entity SoftwareSystem.Service2Database--><g id="elem_SoftwareSystem.Service2Database"><path d="M1344,694.6094 C1344,684.6094 1427,684.6094 1427,684.6094 C1427,684.6094 1510,684.6094 1510,694.6094 L1510,736.3125 C1510,746.3125 1427,746.3125 1427,746.3125 C1427,746.3125 1344,746.3125 1344,736.3125 L1344,694.6094 " fill="#EDF08C" style="stroke:#A5A862;stroke-width:0.5;"/><path d="M1344,694.6094 C1344,704.6094 1427,704.6094 1427,704.6094 C1427,704.6094 1510,704.6094 1510,694.6094 " fill="none" style="stroke:#A5A862;stroke-width:0.5;"/><text fill="#000000" font-family="sans-serif" font-size="16" font-weight="bold" lengthAdjust="spacing" textLength="57" x="1354" y="725.2188">Service</text><text fill="#000000" font-family="sans-serif" font-size="16" font-weight="bold" lengthAdjust="spacing" textLength="4" x="1411" y="725.2188">&#160;</text><text fill="#000000" font-family="sans-serif" font-size="16" font-weight="bold" lengthAdjust="spacing" textLength="9" x="1415" y="725.2188">2</text><text fill="#000000" font-family="sans-serif" font-size="16" font-weight="bold" lengthAdjust="spacing" textLength="4" x="1424" y="725.2188">&#160;</text><text fill="#000000" font-family="sans-serif" font-size="16" font-weight="bold" lengthAdjust="spacing" textLength="72" x="1428" y="725.2188">Database</text><text fill="#000000" font-family="sans-serif" font-size="10" lengthAdjust="spacing" textLength="52" x="1401" y="739.1152">[Container]</text></g><!--entity SoftwareSystem.Service3API--><g id="elem_SoftwareSystem.Service3API"><polygon fill="#8CD0F0" points="247,552.1094,197,530.6094,97,530.6094,47,552.1094,97,573.6094,197,573.6094,247,552.1094" style="stroke:#6291A8;stroke-width:0.5;"/><text fill="#000000" font-family="sans-serif" font-size="16" font-weight="bold" lengthAdjust="spacing" textLength="57" x="97" y="552.2188">Service</text><text fill="#000000" font-family="sans-serif" font-size="16" font-weight="bold" lengthAdjust="spacing" textLength="4" x="154" y="552.2188">&#160;</text><text fill="#000000" font-family="sans-serif" font-size="16" font-weight="bold" lengthAdjust="spacing" textLength="9" x="158" y="552.2188">3</text><text fill="#000000" font-family="sans-serif" font-size="16" font-weight="bold" lengthAdjust="spacing" textLength="4" x="167" y="552.2188">&#160;</text><text fill="#000000" font-family="sans-serif" font-size="16" font-weight="bold" lengthAdjust="spacing" textLength="26" x="171" y="552.2188">API</text><text fill="#000000" font-family="sans-serif" font-size="10" lengthAdjust="spacing" textLength="52" x="121" y="566.1152">[Container]</text></g><!--entity SoftwareSystem.Service3Database--><g id="elem_SoftwareSystem.Service3Database"><path d="M64,694.6094 C64,684.6094 147,684.6094 147,684.6094 C147,684.6094 230,684.6094 230,694.6094 L230,736.3125 C230,746.3125 147,746.3125 147,746.3125 C147,746.3125 64,746.3125 64,736.3125 L64,694.6094 " fill="#8CD0F0" style="stroke:#6291A8;stroke-width:0.5;"/><path d="M64,694.6094 C64,704.6094 147,704.6094 147,704.6094 C147,704.6094 230,704.6094 230,694.6094 " fill="none" style="stroke:#6291A8;stroke-width:0.5;"/><text fill="#000000" font-family="sans-serif" font-size="16" font-weight="bold" lengthAdjust="spacing" textLength="57" x="74" y="725.2188">Service</text><text fill="#000000" font-family="sans-serif" font-size="16" font-weight="bold" lengthAdjust="spacing" textLength="4" x="131" y="725.2188">&#160;</text><text fill="#000000" font-family="sans-serif" font-size="16" font-weight="bold" lengthAdjust="spacing" textLength="9" x="135" y="725.2188">3</text><text fill="#000000" font-family="sans-serif" font-size="16" font-weight="bold" lengthAdjust="spacing" textLength="4" x="144" y="725.2188">&#160;</text><text fill="#000000" font-family="sans-serif" font-size="16" font-weight="bold" lengthAdjust="spacing" textLength="72" x="148" y="725.2188">Database</text><text fill="#000000" font-family="sans-serif" font-size="10" lengthAdjust="spacing" textLength="52" x="121" y="739.1152">[Container]</text></g><!--entity SoftwareSystem.Service4API--><g id="elem_SoftwareSystem.Service4API"><polygon fill="#F08CA4" points="759,715.6094,709,694.1094,609,694.1094,559,715.6094,609,737.1094,709,737.1094,759,715.6094" style="stroke:#A86272;stroke-width:0.5;"/><text fill="#000000" font-family="sans-serif" font-size="16" font-weight="bold" lengthAdjust="spacing" textLength="57" x="609" y="715.7188">Service</text><text fill="#000000" font-family="sans-serif" font-size="16" font-weight="bold" lengthAdjust="spacing" textLength="4" x="666" y="715.7188">&#160;</text><text fill="#000000" font-family="sans-serif" font-size="16" font-weight="bold" lengthAdjust="spacing" textLength="9" x="670" y="715.7188">4</text><text fill="#000000" font-family="sans-serif" font-size="16" font-weight="bold" lengthAdjust="spacing" textLength="4" x="679" y="715.7188">&#160;</text><text fill="#000000" font-family="sans-serif" font-size="16" font-weight="bold" lengthAdjust="spacing" textLength="26" x="683" y="715.7188">API</text><text fill="#000000" font-family="sans-serif" font-size="10" lengthAdjust="spacing" textLength="52" x="633" y="729.6152">[Container]</text></g><!--entity SoftwareSystem.Service4Database--><g id="elem_SoftwareSystem.Service4Database"><path d="M576,858.1094 C576,848.1094 659,848.1094 659,848.1094 C659,848.1094 742,848.1094 742,858.1094 L742,899.8125 C742,909.8125 659,909.8125 659,909.8125 C659,909.8125 576,909.8125 576,899.8125 L576,858.1094 " fill="#F08CA4" style="stroke:#A86272;stroke-width:0.5;"/><path d="M576,858.1094 C576,868.1094 659,868.1094 659,868.1094 C659,868.1094 742,868.1094 742,858.1094 " fill="none" style="stroke:#A86272;stroke-width:0.5;"/><text fill="#000000" font-family="sans-serif" font-size="16" font-weight="bold" lengthAdjust="spacing" textLength="57" x="586" y="888.7188">Service</text><text fill="#000000" font-family="sans-serif" font-size="16" font-weight="bold" lengthAdjust="spacing" textLength="4" x="643" y="888.7188">&#160;</text><text fill="#000000" font-family="sans-serif" font-size="16" font-weight="bold" lengthAdjust="spacing" textLength="9" x="647" y="888.7188">4</text><text fill="#000000" font-family="sans-serif" font-size="16" font-weight="bold" lengthAdjust="spacing" textLength="4" x="656" y="888.7188">&#160;</text><text fill="#000000" font-family="sans-serif" font-size="16" font-weight="bold" lengthAdjust="spacing" textLength="72" x="660" y="888.7188">Database</text><text fill="#000000" font-family="sans-serif" font-size="10" lengthAdjust="spacing" textLength="52" x="633" y="902.6152">[Container]</text></g><!--entity SoftwareSystem.Service5API--><g id="elem_SoftwareSystem.Service5API"><polygon fill="#FFAC33" points="1271,715.6094,1221,694.1094,1121,694.1094,1071,715.6094,1121,737.1094,1221,737.1094,1271,715.6094" style="stroke:#B27823;stroke-width:0.5;"/><text fill="#000000" font-family="sans-serif" font-size="16" font-weight="bold" lengthAdjust="spacing" textLength="57" x="1121" y="715.7188">Service</text><text fill="#000000" font-family="sans-serif" font-size="16" font-weight="bold" lengthAdjust="spacing" textLength="4" x="1178" y="715.7188">&#160;</text><text fill="#000000" font-family="sans-serif" font-size="16" font-weight="bold" lengthAdjust="spacing" textLength="9" x="1182" y="715.7188">5</text><text fill="#000000" font-family="sans-serif" font-size="16" font-weight="bold" lengthAdjust="spacing" textLength="4" x="1191" y="715.7188">&#160;</text><text fill="#000000" font-family="sans-serif" font-size="16" font-weight="bold" lengthAdjust="spacing" textLength="26" x="1195" y="715.7188">API</text><text fill="#000000" font-family="sans-serif" font-size="10" lengthAdjust="spacing" textLength="52" x="1145" y="729.6152">[Container]</text></g><!--entity SoftwareSystem.Service5Database--><g id="elem_SoftwareSystem.Service5Database"><path d="M1088,858.1094 C1088,848.1094 1171,848.1094 1171,848.1094 C1171,848.1094 1254,848.1094 1254,858.1094 L1254,899.8125 C1254,909.8125 1171,909.8125 1171,909.8125 C1171,909.8125 1088,909.8125 1088,899.8125 L1088,858.1094 " fill="#FFAC33" style="stroke:#B27823;stroke-width:0.5;"/><path d="M1088,858.1094 C1088,868.1094 1171,868.1094 1171,868.1094 C1171,868.1094 1254,868.1094 1254,858.1094 " fill="none" style="stroke:#B27823;stroke-width:0.5;"/><text fill="#000000" font-family="sans-serif" font-size="16" font-weight="bold" lengthAdjust="spacing" textLength="57" x="1098" y="888.7188">Service</text><text fill="#000000" font-family="sans-serif" font-size="16" font-weight="bold" lengthAdjust="spacing" textLength="4" x="1155" y="888.7188">&#160;</text><text fill="#000000" font-family="sans-serif" font-size="16" font-weight="bold" lengthAdjust="spacing" textLength="9" x="1159" y="888.7188">5</text><text fill="#000000" font-family="sans-serif" font-size="16" font-weight="bold" lengthAdjust="spacing" textLength="4" x="1168" y="888.7188">&#160;</text><text fill="#000000" font-family="sans-serif" font-size="16" font-weight="bold" lengthAdjust="spacing" textLength="72" x="1172" y="888.7188">Database</text><text fill="#000000" font-family="sans-serif" font-size="10" lengthAdjust="spacing" textLength="52" x="1145" y="902.6152">[Container]</text></g><!--entity SoftwareSystem.Service6API--><g id="elem_SoftwareSystem.Service6API"><polygon fill="#DD8BFE" points="1015,879.1094,965,857.6094,865,857.6094,815,879.1094,865,900.6094,965,900.6094,1015,879.1094" style="stroke:#9A61B1;stroke-width:0.5;"/><text fill="#000000" font-family="sans-serif" font-size="16" font-weight="bold" lengthAdjust="spacing" textLength="57" x="865" y="879.2188">Service</text><text fill="#000000" font-family="sans-serif" font-size="16" font-weight="bold" lengthAdjust="spacing" textLength="4" x="922" y="879.2188">&#160;</text><text fill="#000000" font-family="sans-serif" font-size="16" font-weight="bold" lengthAdjust="spacing" textLength="9" x="926" y="879.2188">6</text><text fill="#000000" font-family="sans-serif" font-size="16" font-weight="bold" lengthAdjust="spacing" textLength="4" x="935" y="879.2188">&#160;</text><text fill="#000000" font-family="sans-serif" font-size="16" font-weight="bold" lengthAdjust="spacing" textLength="26" x="939" y="879.2188">API</text><text fill="#000000" font-family="sans-serif" font-size="10" lengthAdjust="spacing" textLength="52" x="889" y="893.1152">[Container]</text></g><!--entity SoftwareSystem.Service6Database--><g id="elem_SoftwareSystem.Service6Database"><path d="M832,1009.1094 C832,999.1094 915,999.1094 915,999.1094 C915,999.1094 998,999.1094 998,1009.1094 L998,1050.8125 C998,1060.8125 915,1060.8125 915,1060.8125 C915,1060.8125 832,1060.8125 832,1050.8125 L832,1009.1094 " fill="#DD8BFE" style="stroke:#9A61B1;stroke-width:0.5;"/><path d="M832,1009.1094 C832,1019.1094 915,1019.1094 915,1019.1094 C915,1019.1094 998,1019.1094 998,1009.1094 " fill="none" style="stroke:#9A61B1;stroke-width:0.5;"/><text fill="#000000" font-family="sans-serif" font-size="16" font-weight="bold" lengthAdjust="spacing" textLength="57" x="842" y="1039.7188">Service</text><text fill="#000000" font-family="sans-serif" font-size="16" font-weight="bold" lengthAdjust="spacing" textLength="4" x="899" y="1039.7188">&#160;</text><text fill="#000000" font-family="sans-serif" font-size="16" font-weight="bold" lengthAdjust="spacing" textLength="9" x="903" y="1039.7188">6</text><text fill="#000000" font-family="sans-serif" font-size="16" font-weight="bold" lengthAdjust="spacing" textLength="4" x="912" y="1039.7188">&#160;</text><text fill="#000000" font-family="sans-serif" font-size="16" font-weight="bold" lengthAdjust="spacing" textLength="72" x="916" y="1039.7188">Database</text><text fill="#000000" font-family="sans-serif" font-size="10" lengthAdjust="spacing" textLength="52" x="889" y="1053.6152">[Container]</text></g><!--entity SoftwareSystem.Service7API--><g id="elem_SoftwareSystem.Service7API"><polygon fill="#89ACFF" points="503,715.6094,453,694.1094,353,694.1094,303,715.6094,353,737.1094,453,737.1094,503,715.6094" style="stroke:#5F78B2;stroke-width:0.5;"/><text fill="#000000" font-family="sans-serif" font-size="16" font-weight="bold" lengthAdjust="spacing" textLength="57" x="353" y="715.7188">Service</text><text fill="#000000" font-family="sans-serif" font-size="16" font-weight="bold" lengthAdjust="spacing" textLength="4" x="410" y="715.7188">&#160;</text><text fill="#000000" font-family="sans-serif" font-size="16" font-weight="bold" lengthAdjust="spacing" textLength="9" x="414" y="715.7188">7</text><text fill="#000000" font-family="sans-serif" font-size="16" font-weight="bold" lengthAdjust="spacing" textLength="4" x="423" y="715.7188">&#160;</text><text fill="#000000" font-family="sans-serif" font-size="16" font-weight="bold" lengthAdjust="spacing" textLength="26" x="427" y="715.7188">API</text><text fill="#000000" font-family="sans-serif" font-size="10" lengthAdjust="spacing" textLength="52" x="377" y="729.6152">[Container]</text></g><!--entity SoftwareSystem.Service7Database--><g id="elem_SoftwareSystem.Service7Database"><path d="M320,858.1094 C320,848.1094 403,848.1094 403,848.1094 C403,848.1094 486,848.1094 486,858.1094 L486,899.8125 C486,909.8125 403,909.8125 403,909.8125 C403,909.8125 320,909.8125 320,899.8125 L320,858.1094 " fill="#89ACFF" style="stroke:#5F78B2;stroke-width:0.5;"/><path d="M320,858.1094 C320,868.1094 403,868.1094 403,868.1094 C403,868.1094 486,868.1094 486,858.1094 " fill="none" style="stroke:#5F78B2;stroke-width:0.5;"/><text fill="#000000" font-family="sans-serif" font-size="16" font-weight="bold" lengthAdjust="spacing" textLength="57" x="330" y="888.7188">Service</text><text fill="#000000" font-family="sans-serif" font-size="16" font-weight="bold" lengthAdjust="spacing" textLength="4" x="387" y="888.7188">&#160;</text><text fill="#000000" font-family="sans-serif" font-size="16" font-weight="bold" lengthAdjust="spacing" textLength="9" x="391" y="888.7188">7</text><text fill="#000000" font-family="sans-serif" font-size="16" font-weight="bold" lengthAdjust="spacing" textLength="4" x="400" y="888.7188">&#160;</text><text fill="#000000" font-family="sans-serif" font-size="16" font-weight="bold" lengthAdjust="spacing" textLength="72" x="404" y="888.7188">Database</text><text fill="#000000" font-family="sans-serif" font-size="10" lengthAdjust="spacing" textLength="52" x="377" y="902.6152">[Container]</text></g><!--entity SoftwareSystem.Service8API--><g id="elem_SoftwareSystem.Service8API"><polygon fill="#FDA9F4" points="247,879.1094,197,857.6094,97,857.6094,47,879.1094,97,900.6094,197,900.6094,247,879.1094" style="stroke:#B176AA;stroke-width:0.5;"/><text fill="#000000" font-family="sans-serif" font-size="16" font-weight="bold" lengthAdjust="spacing" textLength="57" x="97" y="879.2188">Service</text><text fill="#000000" font-family="sans-serif" font-size="16" font-weight="bold" lengthAdjust="spacing" textLength="4" x="154" y="879.2188">&#160;</text><text fill="#000000" font-family="sans-serif" font-size="16" font-weight="bold" lengthAdjust="spacing" textLength="9" x="158" y="879.2188">8</text><text fill="#000000" font-family="sans-serif" font-size="16" font-weight="bold" lengthAdjust="spacing" textLength="4" x="167" y="879.2188">&#160;</text><text fill="#000000" font-family="sans-serif" font-size="16" font-weight="bold" lengthAdjust="spacing" textLength="26" x="171" y="879.2188">API</text><text fill="#000000" font-family="sans-serif" font-size="10" lengthAdjust="spacing" textLength="52" x="121" y="893.1152">[Container]</text></g><!--entity SoftwareSystem.Service8Database--><g id="elem_SoftwareSystem.Service8Database"><path d="M64,1009.1094 C64,999.1094 147,999.1094 147,999.1094 C147,999.1094 230,999.1094 230,1009.1094 L230,1050.8125 C230,1060.8125 147,1060.8125 147,1060.8125 C147,1060.8125 64,1060.8125 64,1050.8125 L64,1009.1094 " fill="#FDA9F4" style="stroke:#B176AA;stroke-width:0.5;"/><path d="M64,1009.1094 C64,1019.1094 147,1019.1094 147,1019.1094 C147,1019.1094 230,1019.1094 230,1009.1094 " fill="none" style="stroke:#B176AA;stroke-width:0.5;"/><text fill="#000000" font-family="sans-serif" font-size="16" font-weight="bold" lengthAdjust="spacing" textLength="57" x="74" y="1039.7188">Service</text><text fill="#000000" font-family="sans-serif" font-size="16" font-weight="bold" lengthAdjust="spacing" textLength="4" x="131" y="1039.7188">&#160;</text><text fill="#000000" font-family="sans-serif" font-size="16" font-weight="bold" lengthAdjust="spacing" textLength="9" x="135" y="1039.7188">8</text><text fill="#000000" font-family="sans-serif" font-size="16" font-weight="bold" lengthAdjust="spacing" textLength="4" x="144" y="1039.7188">&#160;</text><text fill="#000000" font-family="sans-serif" font-size="16" font-weight="bold" lengthAdjust="spacing" textLength="72" x="148" y="1039.7188">Database</text><text fill="#000000" font-family="sans-serif" font-size="10" lengthAdjust="spacing" textLength="52" x="121" y="1053.6152">[Container]</text></g><!--entity User--><g id="elem_User"><ellipse cx="263" cy="56.2199" fill="#DDDDDD" rx="11.6105" ry="11.6105" style="stroke:#9A9A9A;stroke-width:0.5;"/><rect fill="#DDDDDD" height="52.7031" rx="11.6105" ry="11.6105" style="stroke:#9A9A9A;stroke-width:0.5;" width="58" x="234" y="67.8304"/><text fill="#000000" font-family="sans-serif" font-size="16" font-weight="bold" lengthAdjust="spacing" textLength="36" x="245" y="94.4398">User</text><text fill="#000000" font-family="sans-serif" font-size="10" lengthAdjust="spacing" textLength="38" x="244" y="108.3363">[Person]</text></g><!--link SoftwareSystem.Service3API to SoftwareSystem.Service3Database--><g id="link_SoftwareSystem.Service3API_SoftwareSystem.Service3Database"><path d="M147,573.8894 C147,602.0094 147,646.3394 147,678.5694 " fill="none" id="SoftwareSystem.Service3API-to-SoftwareSystem.Service3Database" style="stroke:#707070;stroke-width:2.0;stroke-dasharray:7.0,7.0;"/><polygon fill="#707070" points="147,684.5694,151,675.5694,147,679.5694,143,675.5694,147,684.5694" style="stroke:#707070;stroke-width:2.0;"/><text fill="#707070" font-family="sans-serif" font-size="10" lengthAdjust="spacing" textLength="29" x="148" y="626.4902">Reads</text><text fill="#707070" font-family="sans-serif" font-size="10" lengthAdjust="spacing" textLength="3" x="177" y="626.4902">&#160;</text><text fill="#707070" font-family="sans-serif" font-size="10" lengthAdjust="spacing" textLength="21" x="180" y="626.4902">from</text><text fill="#707070" font-family="sans-serif" font-size="10" lengthAdjust="spacing" textLength="3" x="201" y="626.4902">&#160;</text><text fill="#707070" font-family="sans-serif" font-size="10" lengthAdjust="spacing" textLength="18" x="204" y="626.4902">and</text><text fill="#707070" font-family="sans-serif" font-size="10" lengthAdjust="spacing" textLength="26" x="166" y="639.0684">writes</text><text fill="#707070" font-family="sans-serif" font-size="10" lengthAdjust="spacing" textLength="3" x="192" y="639.0684">&#160;</text><text fill="#707070" font-family="sans-serif" font-size="10" lengthAdjust="spacing" textLength="9" x="195" y="639.0684">to</text></g><!--link SoftwareSystem.Service4API to SoftwareSystem.Service4Database--><g id="link_SoftwareSystem.Service4API_SoftwareSystem.Service4Database"><path d="M659,737.3894 C659,765.5094 659,809.8394 659,842.0694 " fill="none" id="SoftwareSystem.Service4API-to-SoftwareSystem.Service4Database" style="stroke:#707070;stroke-width:2.0;stroke-dasharray:7.0,7.0;"/><polygon fill="#707070" points="659,848.0694,663,839.0694,659,843.0694,655,839.0694,659,848.0694" style="stroke:#707070;stroke-width:2.0;"/><text fill="#707070" font-family="sans-serif" font-size="10" lengthAdjust="spacing" textLength="29" x="660" y="789.9902">Reads</text><text fill="#707070" font-family="sans-serif" font-size="10" lengthAdjust="spacing" textLength="3" x="689" y="789.9902">&#160;</text><text fill="#707070" font-family="sans-serif" font-size="10" lengthAdjust="spacing" textLength="21" x="692" y="789.9902">from</text><text fill="#707070" font-family="sans-serif" font-size="10" lengthAdjust="spacing" textLength="3" x="713" y="789.9902">&#160;</text><text fill="#707070" font-family="sans-serif" font-size="10" lengthAdjust="spacing" textLength="18" x="716" y="789.9902">and</text><text fill="#707070" font-family="sans-serif" font-size="10" lengthAdjust="spacing" textLength="26" x="678" y="802.5684">writes</text><text fill="#707070" font-family="sans-serif" font-size="10" lengthAdjust="spacing" textLength="3" x="704" y="802.5684">&#160;</text><text fill="#707070" font-family="sans-serif" font-size="10" lengthAdjust="spacing" textLength="9" x="707" y="802.5684">to</text></g><!--link SoftwareSystem.Service5API to SoftwareSystem.Service5Database--><g id="link_SoftwareSystem.Service5API_SoftwareSystem.Service5Database"><path d="M1171,737.3894 C1171,765.5094 1171,809.8394 1171,842.0694 " fill="none" id="SoftwareSystem.Service5API-to-SoftwareSystem.Service5Database" style="stroke:#707070;stroke-width:2.0;stroke-dasharray:7.0,7.0;"/><polygon fill="#707070" points="1171,848.0694,1175,839.0694,1171,843.0694,1167,839.0694,1171,848.0694" style="stroke:#707070;stroke-width:2.0;"/><text fill="#707070" font-family="sans-serif" font-size="10" lengthAdjust="spacing" textLength="29" x="1172" y="789.9902">Reads</text><text fill="#707070" font-family="sans-serif" font-size="10" lengthAdjust="spacing" textLength="3" x="1201" y="789.9902">&#160;</text><text fill="#707070" font-family="sans-serif" font-size="10" lengthAdjust="spacing" textLength="21" x="1204" y="789.9902">from</text><text fill="#707070" font-family="sans-serif" font-size="10" lengthAdjust="spacing" textLength="3" x="1225" y="789.9902">&#160;</text><text fill="#707070" font-family="sans-serif" font-size="10" lengthAdjust="spacing" textLength="18" x="1228" y="789.9902">and</text><text fill="#707070" font-family="sans-serif" font-size="10" lengthAdjust="spacing" textLength="26" x="1190" y="802.5684">writes</text><text fill="#707070" font-family="sans-serif" font-size="10" lengthAdjust="spacing" textLength="3" x="1216" y="802.5684">&#160;</text><text fill="#707070" font-family="sans-serif" font-size="10" lengthAdjust="spacing" textLength="9" x="1219" y="802.5684">to</text></g><!--link SoftwareSystem.Service6API to SoftwareSystem.Service6Database--><g id="link_SoftwareSystem.Service6API_SoftwareSystem.Service6Database"><path d="M915,900.8294 C915,926.3394 915,963.8594 915,993.0394 " fill="none" id="SoftwareSystem.Service6API-to-SoftwareSystem.Service6Database" style="stroke:#707070;stroke-width:2.0;stroke-dasharray:7.0,7.0;"/><polygon fill="#707070" points="915,999.0394,919,990.0394,915,994.0394,911,990.0394,915,999.0394" style="stroke:#707070;stroke-width:2.0;"/><text fill="#707070" font-family="sans-serif" font-size="10" lengthAdjust="spacing" textLength="29" x="916" y="953.4902">Reads</text><text fill="#707070" font-family="sans-serif" font-size="10" lengthAdjust="spacing" textLength="3" x="945" y="953.4902">&#160;</text><text fill="#707070" font-family="sans-serif" font-size="10" lengthAdjust="spacing" textLength="21" x="948" y="953.4902">from</text><text fill="#707070" font-family="sans-serif" font-size="10" lengthAdjust="spacing" textLength="3" x="969" y="953.4902">&#160;</text><text fill="#707070" font-family="sans-serif" font-size="10" lengthAdjust="spacing" textLength="18" x="972" y="953.4902">and</text><text fill="#707070" font-family="sans-serif" font-size="10" lengthAdjust="spacing" textLength="26" x="934" y="966.0684">writes</text><text fill="#707070" font-family="sans-serif" font-size="10" lengthAdjust="spacing" textLength="3" x="960" y="966.0684">&#160;</text><text fill="#707070" font-family="sans-serif" font-size="10" lengthAdjust="spacing" textLength="9" x="963" y="966.0684">to</text></g><!--link SoftwareSystem.Service7API to SoftwareSystem.Service7Database--><g id="link_SoftwareSystem.Service7API_SoftwareSystem.Service7Database"><path d="M403,737.3894 C403,765.5094 403,809.8394 403,842.0694 " fill="none" id="SoftwareSystem.Service7API-to-SoftwareSystem.Service7Database" style="stroke:#707070;stroke-width:2.0;stroke-dasharray:7.0,7.0;"/><polygon fill="#707070" points="403,848.0694,407,839.0694,403,843.0694,399,839.0694,403,848.0694" style="stroke:#707070;stroke-width:2.0;"/><text fill="#707070" font-family="sans-serif" font-size="10" lengthAdjust="spacing" textLength="29" x="404" y="789.9902">Reads</text><text fill="#707070" font-family="sans-serif" font-size="10" lengthAdjust="spacing" textLength="3" x="433" y="789.9902">&#160;</text><text fill="#707070" font-family="sans-serif" font-size="10" lengthAdjust="spacing" textLength="21" x="436" y="789.9902">from</text><text fill="#707070" font-family="sans-serif" font-size="10" lengthAdjust="spacing" textLength="3" x="457" y="789.9902">&#160;</text><text fill="#707070" font-family="sans-serif" font-size="10" lengthAdjust="spacing" textLength="18" x="460" y="789.9902">and</text><text fill="#707070" font-family="sans-serif" font-size="10" lengthAdjust="spacing" textLength="26" x="422" y="802.5684">writes</text><text fill="#707070" font-family="sans-serif" font-size="10" lengthAdjust="spacing" textLength="3" x="448" y="802.5684">&#160;</text><text fill="#707070" font-family="sans-serif" font-size="10" lengthAdjust="spacing" textLength="9" x="451" y="802.5684">to</text></g><!--link SoftwareSystem.Service8API to SoftwareSystem.Service8Database--><g id="link_SoftwareSystem.Service8API_SoftwareSystem.Service8Database"><path d="M147,900.8294 C147,926.3394 147,963.8594 147,993.0394 " fill="none" id="SoftwareSystem.Service8API-to-SoftwareSystem.Service8Database" style="stroke:#707070;stroke-width:2.0;stroke-dasharray:7.0,7.0;"/><polygon fill="#707070" points="147,999.0394,151,990.0394,147,994.0394,143,990.0394,147,999.0394" style="stroke:#707070;stroke-width:2.0;"/><text fill="#707070" font-family="sans-serif" font-size="10" lengthAdjust="spacing" textLength="29" x="148" y="953.4902">Reads</text><text fill="#707070" font-family="sans-serif" font-size="10" lengthAdjust="spacing" textLength="3" x="177" y="953.4902">&#160;</text><text fill="#707070" font-family="sans-serif" font-size="10" lengthAdjust="spacing" textLength="21" x="180" y="953.4902">from</text><text fill="#707070" font-family="sans-serif" font-size="10" lengthAdjust="spacing" textLength="3" x="201" y="953.4902">&#160;</text><text fill="#707070" font-family="sans-serif" font-size="10" lengthAdjust="spacing" textLength="18" x="204" y="953.4902">and</text><text fill="#707070" font-family="sans-serif" font-size="10" lengthAdjust="spacing" textLength="26" x="166" y="966.0684">writes</text><text fill="#707070" font-family="sans-serif" font-size="10" lengthAdjust="spacing" textLength="3" x="192" y="966.0684">&#160;</text><text fill="#707070" font-family="sans-serif" font-size="10" lengthAdjust="spacing" textLength="9" x="195" y="966.0684">to</text></g><!--link User to SoftwareSystem.WebApplication--><g id="link_User_SoftwareSystem.WebApplication"><path d="M263,120.8194 C263,153.6294 263,194.5694 263,223.3794 " fill="none" id="User-to-SoftwareSystem.WebApplication" style="stroke:#707070;stroke-width:2.0;stroke-dasharray:7.0,7.0;"/><polygon fill="#707070" points="263,229.3794,267,220.3794,263,224.3794,259,220.3794,263,229.3794" style="stroke:#707070;stroke-width:2.0;"/><text fill="#000000" font-family="sans-serif" font-size="10" lengthAdjust="spacing" textLength="3" x="264" y="161.9902">&#160;</text></g><!--link SoftwareSystem.WebApplication to SoftwareSystem.Service1API--><g id="link_SoftwareSystem.WebApplication_SoftwareSystem.Service1API"><path d="M288.35,282.8294 C315.3,310.1594 353.187,348.5873 378.177,373.9273 " fill="none" id="SoftwareSystem.WebApplication-to-SoftwareSystem.Service1API" style="stroke:#707070;stroke-width:2.0;stroke-dasharray:7.0,7.0;"/><polygon fill="#707070" points="382.39,378.1994,378.9185,368.9826,378.8791,374.6393,373.2224,374.6,382.39,378.1994" style="stroke:#707070;stroke-width:2.0;"/><text fill="#000000" font-family="sans-serif" font-size="10" lengthAdjust="spacing" textLength="3" x="329" y="323.9902">&#160;</text></g><!--link SoftwareSystem.Service1API to SoftwareSystem.Service2API--><g id="link_SoftwareSystem.Service1API_SoftwareSystem.Service2API"><path d="M476.23,411.8394 C664.83,439.4594 1159.6034,511.9397 1348.0034,539.5397 " fill="none" id="SoftwareSystem.Service1API-to-SoftwareSystem.Service2API" style="stroke:#707070;stroke-width:2.0;stroke-dasharray:7.0,7.0;"/><polygon fill="#707070" points="1353.94,540.4094,1345.6148,535.1471,1348.9928,539.6846,1344.4553,543.0626,1353.94,540.4094" style="stroke:#707070;stroke-width:2.0;"/><text fill="#000000" font-family="sans-serif" font-size="10" lengthAdjust="spacing" textLength="3" x="916" y="469.4902">&#160;</text></g><!--link SoftwareSystem.Service1API to SoftwareSystem.Service3API--><g id="link_SoftwareSystem.Service1API_SoftwareSystem.Service3API"><path d="M370.04,421.6694 C344.52,437.4794 308.2,459.7394 276,478.6094 C245.41,496.5294 215.5585,513.2919 189.7085,527.6119 " fill="none" id="SoftwareSystem.Service1API-to-SoftwareSystem.Service3API" style="stroke:#707070;stroke-width:2.0;stroke-dasharray:7.0,7.0;"/><polygon fill="#707070" points="184.46,530.5194,194.271,529.6571,188.8337,528.0965,190.3944,522.6592,184.46,530.5194" style="stroke:#707070;stroke-width:2.0;"/><text fill="#000000" font-family="sans-serif" font-size="10" lengthAdjust="spacing" textLength="3" x="319" y="469.4902">&#160;</text></g><!--link SoftwareSystem.Service2API to SoftwareSystem.Service4API--><g id="link_SoftwareSystem.Service2API_SoftwareSystem.Service4API"><path d="M1361.19,566.9494 C1216.05,597.4694 875.7716,669.0245 730.6516,699.5445 " fill="none" id="SoftwareSystem.Service2API-to-SoftwareSystem.Service4API" style="stroke:#707070;stroke-width:2.0;stroke-dasharray:7.0,7.0;"/><polygon fill="#707070" points="724.78,700.7794,734.4106,702.8415,729.673,699.7503,732.7641,695.0127,724.78,700.7794" style="stroke:#707070;stroke-width:2.0;"/><text fill="#000000" font-family="sans-serif" font-size="10" lengthAdjust="spacing" textLength="3" x="1112" y="632.9902">&#160;</text></g><!--link SoftwareSystem.Service2API to SoftwareSystem.Service5API--><g id="link_SoftwareSystem.Service2API_SoftwareSystem.Service5API"><path d="M1394.32,573.7294 C1345.25,604.6794 1258.1547,659.6282 1208.9647,690.6582 " fill="none" id="SoftwareSystem.Service2API-to-SoftwareSystem.Service5API" style="stroke:#707070;stroke-width:2.0;stroke-dasharray:7.0,7.0;"/><polygon fill="#707070" points="1203.89,693.8594,1213.6361,692.4407,1208.1189,691.1917,1209.3679,685.6745,1203.89,693.8594" style="stroke:#707070;stroke-width:2.0;"/><text fill="#000000" font-family="sans-serif" font-size="10" lengthAdjust="spacing" textLength="3" x="1322" y="632.9902">&#160;</text></g><!--link SoftwareSystem.WebApplication to SoftwareSystem.Service3API--><g id="link_SoftwareSystem.WebApplication_SoftwareSystem.Service3API"><path d="M252.91,282.6894 C230.25,340.0994 177.922,472.7281 157.292,525.0181 " fill="none" id="SoftwareSystem.WebApplication-to-SoftwareSystem.Service3API" style="stroke:#707070;stroke-width:2.0;stroke-dasharray:7.0,7.0;"/><polygon fill="#707070" points="155.09,530.5994,162.1139,523.6954,156.925,525.9483,154.6721,520.7594,155.09,530.5994" style="stroke:#707070;stroke-width:2.0;"/><text fill="#000000" font-family="sans-serif" font-size="10" lengthAdjust="spacing" textLength="3" x="232" y="404.4902">&#160;</text></g><!--link SoftwareSystem.Service3API to SoftwareSystem.Service4API--><g id="link_SoftwareSystem.Service3API_SoftwareSystem.Service4API"><path d="M193.89,573.6994 C220.73,584.8494 255.29,598.1394 287,607.1094 C387.91,635.6594 419.05,618.3694 519,650.1094 C554.84,661.4894 588.1759,677.0621 615.7659,691.2721 " fill="none" id="SoftwareSystem.Service3API-to-SoftwareSystem.Service4API" style="stroke:#707070;stroke-width:2.0;stroke-dasharray:7.0,7.0;"/><polygon fill="#707070" points="621.1,694.0194,614.9304,686.3424,616.6549,691.73,611.2674,693.4545,621.1,694.0194" style="stroke:#707070;stroke-width:2.0;"/><text fill="#000000" font-family="sans-serif" font-size="10" lengthAdjust="spacing" textLength="3" x="491" y="632.9902">&#160;</text></g><!--link SoftwareSystem.Service3API to SoftwareSystem.Service7API--><g id="link_SoftwareSystem.Service3API_SoftwareSystem.Service7API"><path d="M179.68,573.7294 C228.75,604.6794 315.8453,659.6282 365.0353,690.6582 " fill="none" id="SoftwareSystem.Service3API-to-SoftwareSystem.Service7API" style="stroke:#707070;stroke-width:2.0;stroke-dasharray:7.0,7.0;"/><polygon fill="#707070" points="370.11,693.8594,364.6321,685.6745,365.8811,691.1917,360.3639,692.4407,370.11,693.8594" style="stroke:#707070;stroke-width:2.0;"/><text fill="#000000" font-family="sans-serif" font-size="10" lengthAdjust="spacing" textLength="3" x="283" y="632.9902">&#160;</text></g><!--link SoftwareSystem.Service4API to SoftwareSystem.Service6API--><g id="link_SoftwareSystem.Service4API_SoftwareSystem.Service6API"><path d="M691.68,737.2294 C740.75,768.1794 827.8453,823.1282 877.0353,854.1582 " fill="none" id="SoftwareSystem.Service4API-to-SoftwareSystem.Service6API" style="stroke:#707070;stroke-width:2.0;stroke-dasharray:7.0,7.0;"/><polygon fill="#707070" points="882.11,857.3594,876.6321,849.1745,877.8811,854.6917,872.3639,855.9407,882.11,857.3594" style="stroke:#707070;stroke-width:2.0;"/><text fill="#000000" font-family="sans-serif" font-size="10" lengthAdjust="spacing" textLength="3" x="795" y="796.4902">&#160;</text></g><!--link SoftwareSystem.Service7API to SoftwareSystem.Service8API--><g id="link_SoftwareSystem.Service7API_SoftwareSystem.Service8API"><path d="M370.32,737.2294 C321.25,768.1794 234.1547,823.1282 184.9647,854.1582 " fill="none" id="SoftwareSystem.Service7API-to-SoftwareSystem.Service8API" style="stroke:#707070;stroke-width:2.0;stroke-dasharray:7.0,7.0;"/><polygon fill="#707070" points="179.89,857.3594,189.6361,855.9407,184.1189,854.6917,185.3679,849.1745,179.89,857.3594" style="stroke:#707070;stroke-width:2.0;"/><text fill="#000000" font-family="sans-serif" font-size="10" lengthAdjust="spacing" textLength="3" x="298" y="796.4902">&#160;</text></g><!--link SoftwareSystem.Service1API to SoftwareSystem.Service1Database--><g id="link_SoftwareSystem.Service1API_SoftwareSystem.Service1Database"><path d="M403,421.6494 C403,447.3294 403,485.4794 403,514.9794 " fill="none" id="SoftwareSystem.Service1API-to-SoftwareSystem.Service1Database" style="stroke:#707070;stroke-width:2.0;stroke-dasharray:7.0,7.0;"/><polygon fill="#707070" points="403,520.9794,407,511.9794,403,515.9794,399,511.9794,403,520.9794" style="stroke:#707070;stroke-width:2.0;"/><text fill="#707070" font-family="sans-serif" font-size="10" lengthAdjust="spacing" textLength="29" x="404" y="462.9902">Reads</text><text fill="#707070" font-family="sans-serif" font-size="10" lengthAdjust="spacing" textLength="3" x="433" y="462.9902">&#160;</text><text fill="#707070" font-family="sans-serif" font-size="10" lengthAdjust="spacing" textLength="21" x="436" y="462.9902">from</text><text fill="#707070" font-family="sans-serif" font-size="10" lengthAdjust="spacing" textLength="3" x="457" y="462.9902">&#160;</text><text fill="#707070" font-family="sans-serif" font-size="10" lengthAdjust="spacing" textLength="18" x="460" y="462.9902">and</text><text fill="#707070" font-family="sans-serif" font-size="10" lengthAdjust="spacing" textLength="26" x="422" y="475.5684">writes</text><text fill="#707070" font-family="sans-serif" font-size="10" lengthAdjust="spacing" textLength="3" x="448" y="475.5684">&#160;</text><text fill="#707070" font-family="sans-serif" font-size="10" lengthAdjust="spacing" textLength="9" x="451" y="475.5684">to</text></g><!--link SoftwareSystem.Service2API to SoftwareSystem.Service2Database--><g id="link_SoftwareSystem.Service2API_SoftwareSystem.Service2Database"><path d="M1427,573.8894 C1427,602.0094 1427,646.3394 1427,678.5694 " fill="none" id="SoftwareSystem.Service2API-to-SoftwareSystem.Service2Database" style="stroke:#707070;stroke-width:2.0;stroke-dasharray:7.0,7.0;"/><polygon fill="#707070" points="1427,684.5694,1431,675.5694,1427,679.5694,1423,675.5694,1427,684.5694" style="stroke:#707070;stroke-width:2.0;"/><text fill="#707070" font-family="sans-serif" font-size="10" lengthAdjust="spacing" textLength="29" x="1428" y="626.4902">Reads</text><text fill="#707070" font-family="sans-serif" font-size="10" lengthAdjust="spacing" textLength="3" x="1457" y="626.4902">&#160;</text><text fill="#707070" font-family="sans-serif" font-size="10" lengthAdjust="spacing" textLength="21" x="1460" y="626.4902">from</text><text fill="#707070" font-family="sans-serif" font-size="10" lengthAdjust="spacing" textLength="3" x="1481" y="626.4902">&#160;</text><text fill="#707070" font-family="sans-serif" font-size="10" lengthAdjust="spacing" textLength="18" x="1484" y="626.4902">and</text><text fill="#707070" font-family="sans-serif" font-size="10" lengthAdjust="spacing" textLength="26" x="1446" y="639.0684">writes</text><text fill="#707070" font-family="sans-serif" font-size="10" lengthAdjust="spacing" textLength="3" x="1472" y="639.0684">&#160;</text><text fill="#707070" font-family="sans-serif" font-size="10" lengthAdjust="spacing" textLength="9" x="1475" y="639.0684">to</text></g><!--SRC=[nPXRZwCs7CNV-HHMvhMTWeql6IMHfbjLwaEbrKwhVTZT1mTCWYQ12BpDJAlzxhLpOPbBy8rfYHGXi7sEpu-_PMY51AtOyORBkW5LNOb8bd8Zm5rTo3rlrCbZAyKM_0ZUrPNaPIMQDefalGEo1ijQodeByh8HcIphAehQ-xBIest1Fn40l6dg_Q-gtrtvjm19h2xbek1VD_8FyI1lD-MgsefAWapzYKRTtJTyzx7CvHh0MBVUyeVVHTlobJYD44VVecXTvW8eLusevUDEz5NNue6lwcesE_i_sh- -4yrVPIQIs_U_BHO7Rp_px7xLr5-h_5szKNE_cYP5p8MwemsVhiM7GxUkcrmqfwi4SqQdwcgxvdczBwiLAFYc5ShRToSvbtp9Mt7HoY-d1l-H7qCoS20PaHSnosoSSEM4mC1ae2cPaVqOaa43oR0iZulOYX6S9fm59eDCoOpinv1CEf2C9iHJAqQA40rzPb9JCYFxCII3Xv8fU8QGZPCbf0oYm6ImCPbn_HYI8GF9v3bR5bOhtfIJP9a49aDCoOpinv0C7LfdfZmh2XidkA1i6LfDrBZEZEl7a0mRggQSJmkhkbucb70Uc0mpLjEuVdPgkwM3-RCLpUN7L1zsZwd-6IJrNevNgytB33wAvUrkjoaphZTx_xUTi_wh8_Qq1rIYOxnWCf_hW3zNirPjCs-IUF7f_U7EbzbF-ifY0Ze4l0NwB8ewOs3oRBFS7-VPhVw0hqwdF-hnaGE9RgmZtYL7_UFveRcQLPVKXtFNNYIzZbVPuRZKgKlClijHvqu-QZXTfvotQv57XqwdmjO1TxC1gfhx2NNl5PUpURPzLn5Sld_GFPVnK-5pxVggzsh_ieLp8-NZM_GwKDW1XJsWq0KeT0SAVO12Cr0O01GQWC8Xe30KABG12Ys0eWuewW55Ba2HEr3a0nIPWQ80eCW050q1HQ50aGrGP04qxO2cFQ2f2z3K7MZg0pGr0qq3WAO6eEaGq3GKQ6e3DBK0YZkWk0SKkm35xa2n3r1i1ee3W683K3m458S2nJP0iGLGqW4bFQ341IXn1qfyW18pK180b1Y0aY6W91GeiG5AB83I3YZj0QKkGAaxKEe3b9g1qW2Wr02K3W6beK2f3L1g0PHrG5aFA7C1ojo1CX-Wp0oK1G1b1g1i22WB1SfiWB81eFEvUl47lJT_LoCllXkyjF6qYNurlxn_1DUVhcYiVp_8TPdTLw9jv_3BzSAquGCtO3BBzCDoSnfWyK7ml0L5Ksy1htAmRqefMY3hINHvk-EgduweZptqyOZwn4EVZAXFFVJfYFhCGvzvwUkFJDPAJyld5PqNytdMmt5A-aEBZKg_kQC4V7i9v2O1VMh_xIMmfKGOSSUiqDjdvID1tIHyLdlY9k6peB6tBuran3NJvw66Flh_0W00]--></g></svg>