<?xml version="1.0" encoding="us-ascii" standalone="no"?><svg xmlns="http://www.w3.org/2000/svg" xmlns:xlink="http://www.w3.org/1999/xlink" contentStyleType="text/css" height="1231.25px" preserveAspectRatio="none" style="width:545px;height:1231px;" version="1.1" viewBox="0 0 545 1231" width="545.8333px" zoomAndPan="magnify"><defs><linearGradient id="g1jh3k679wvmf00" x1="50%" x2="50%" y1="0%" y2="100%"><stop offset="0%" stop-color="#B8B8B8"/><stop offset="100%" stop-color="#999999"/></linearGradient><linearGradient id="g1jh3k679wvmf01" x1="50%" x2="50%" y1="0%" y2="100%"><stop offset="0%" stop-color="#7C9AB9"/><stop offset="100%" stop-color="#304D6D"/></linearGradient><linearGradient id="g1jh3k679wvmf02" x1="50%" x2="50%" y1="0%" y2="100%"><stop offset="0%" stop-color="#B8B8B8"/><stop offset="100%" stop-color="#6B6B6B"/></linearGradient></defs><g><rect fill="url(#g1jh3k679wvmf00)" height="48.2361" id="_title" rx="4.1667" ry="4.1667" style="stroke:#6B6B6B;stroke-width:1.0416666666666667;" width="416.6667" x="63.0208" y="20.8333"/><text fill="#304D6D" font-family="Verdana" font-size="20.8333" font-weight="bold" lengthAdjust="spacing" textLength="393.75" x="74.4792" y="53.2369">Calculator MPS_Position_Monthly</text><ellipse cx="258.8542" cy="90.9444" fill="#3399F3" rx="10.4167" ry="10.4167" style="stroke:#304D6D;stroke-width:1.0416666666666667;"/><rect fill="url(#g1jh3k679wvmf01)" height="38.1083" rx="4.1667" ry="4.1667" style="stroke:#304D6D;stroke-width:1.0416666666666667;" width="420.8333" x="48.4375" y="122.1944"/><text fill="#FFFFFF" font-family="Verdana" font-size="12.5" lengthAdjust="spacing" textLength="397.9167" x="59.8958" y="146.2199">Provide inputs: CompanyName, ISO and LoadSegmentGroup</text><rect fill="url(#g1jh3k679wvmf01)" height="53.3" rx="4.1667" ry="4.1667" style="stroke:#304D6D;stroke-width:1.0416666666666667;" width="341.6667" x="88.0208" y="181.1361"/><text fill="#FFFFFF" font-family="Verdana" font-size="12.5" lengthAdjust="spacing" textLength="318.75" x="99.4792" y="205.1615">Delete All records in table MPS_Position_Monthly</text><text fill="#FFFFFF" font-family="Verdana" font-size="12.5" lengthAdjust="spacing" textLength="264.5833" x="99.4792" y="220.3532">which belong to input Company and ISO</text><rect fill="url(#g1jh3k679wvmf01)" height="53.3" rx="4.1667" ry="4.1667" style="stroke:#304D6D;stroke-width:1.0416666666666667;" width="302.0833" x="107.8125" y="301.1027"/><text fill="#FFFFFF" font-family="Verdana" font-size="12.5" lengthAdjust="spacing" textLength="176.0417" x="119.2708" y="325.1282">Take one Load Segment of</text><text fill="#FFFFFF" font-family="Verdana" font-size="12.5" lengthAdjust="spacing" textLength="279.1667" x="119.2708" y="340.3198">the Load_Segment_Group not yet process</text><rect fill="url(#g1jh3k679wvmf01)" height="53.3" rx="4.1667" ry="4.1667" style="stroke:#304D6D;stroke-width:1.0416666666666667;" width="205.2083" x="156.25" y="375.236"/><text fill="#FFFFFF" font-family="Verdana" font-size="12.5" lengthAdjust="spacing" textLength="182.2917" x="167.7083" y="399.2615">Take all the records in table</text><text fill="#FFFFFF" font-family="Verdana" font-size="12.5" lengthAdjust="spacing" textLength="137.5" x="167.7083" y="414.4531">MPS_Position_Hourly</text><rect fill="none" height="245.3166" rx="4.1667" ry="4.1667" style="stroke:#446E9B;stroke-width:1.0416666666666667;" width="414.5833" x="51.5625" y="438.9526"/><path d="M455.7292,438.9526 L455.7292,457.2693 L445.3125,467.686 L51.5625,467.686 " fill="none" style="stroke:#446E9B;stroke-width:1.0416666666666667;"/><text fill="#446E9B" font-family="Verdana" font-size="12.5" lengthAdjust="spacing" textLength="383.3333" x="59.8958" y="457.7698">Filter records to which Load Segment is applicable - LIST-A</text><rect fill="url(#g1jh3k679wvmf01)" height="38.1083" rx="4.1667" ry="4.1667" style="stroke:#304D6D;stroke-width:1.0416666666666667;" width="246.875" x="135.4167" y="485.3943"/><text fill="#FFFFFF" font-family="Verdana" font-size="12.5" lengthAdjust="spacing" textLength="223.9583" x="146.875" y="509.4198">Flag dates that are NERC holidays</text><rect fill="url(#g1jh3k679wvmf01)" height="38.1083" rx="4.1667" ry="4.1667" style="stroke:#304D6D;stroke-width:1.0416666666666667;" width="253.125" x="132.2917" y="544.3359"/><text fill="#FFFFFF" font-family="Verdana" font-size="12.5" lengthAdjust="spacing" textLength="230.2083" x="143.75" y="568.3614">Assign WkDay to each of the dates</text><rect fill="url(#g1jh3k679wvmf01)" height="68.4916" rx="4.1667" ry="4.1667" style="stroke:#304D6D;stroke-width:1.0416666666666667;" width="305.2083" x="106.25" y="603.2776"/><text fill="#FFFFFF" font-family="Verdana" font-size="12.5" lengthAdjust="spacing" textLength="204.1667" x="117.7083" y="627.3031">Use Load Segment definition in</text><text fill="#FFFFFF" font-family="Verdana" font-size="12.5" lengthAdjust="spacing" textLength="279.1667" x="117.7083" y="642.4947">Load_Segment_Shape to filter the records</text><text fill="#FFFFFF" font-family="Verdana" font-size="12.5" lengthAdjust="spacing" textLength="282.2917" x="117.7083" y="657.6864">to which this Load Segment can be applied</text><rect fill="none" height="406.9499" rx="4.1667" ry="4.1667" style="stroke:#446E9B;stroke-width:1.0416666666666667;" width="494.7917" x="11.4583" y="694.6859"/><path d="M158.3333,694.6859 L158.3333,713.0025 L147.9167,723.4192 L11.4583,723.4192 " fill="none" style="stroke:#446E9B;stroke-width:1.0416666666666667;"/><text fill="#446E9B" font-family="Verdana" font-size="12.5" lengthAdjust="spacing" textLength="126.0417" x="19.7917" y="713.503">Calculate and Save</text><rect fill="url(#g1jh3k679wvmf01)" height="53.3" rx="4.1667" ry="4.1667" style="stroke:#304D6D;stroke-width:1.0416666666666667;" width="342.7083" x="87.5" y="741.1275"/><text fill="#FFFFFF" font-family="Verdana" font-size="12.5" lengthAdjust="spacing" textLength="264.5833" x="98.9583" y="765.153">Group the records in List-A by Company,</text><text fill="#FFFFFF" font-family="Verdana" font-size="12.5" lengthAdjust="spacing" textLength="319.7917" x="98.9583" y="780.3446">Allocated_to_Portfolio_ID and Month to calculate</text><rect fill="url(#g1jh3k679wvmf01)" height="38.1083" rx="4.1667" ry="4.1667" style="stroke:#304D6D;stroke-width:1.0416666666666667;" width="201.0417" x="158.3333" y="815.2608"/><text fill="#FFFFFF" font-family="Verdana" font-size="12.5" lengthAdjust="spacing" textLength="178.125" x="169.7917" y="839.2863">Intervals = Count(Records)</text><rect fill="url(#g1jh3k679wvmf01)" height="38.1083" rx="4.1667" ry="4.1667" style="stroke:#304D6D;stroke-width:1.0416666666666667;" width="432.2917" x="42.7083" y="874.2025"/><text fill="#FFFFFF" font-family="Verdana" font-size="12.5" lengthAdjust="spacing" textLength="409.375" x="54.1667" y="898.2279">LoadMWh = Sum(LoadMWh) | LoadMW = LoadMWh / Intervals</text><rect fill="url(#g1jh3k679wvmf01)" height="38.1083" rx="4.1667" ry="4.1667" style="stroke:#304D6D;stroke-width:1.0416666666666667;" width="473.9583" x="21.875" y="933.1441"/><text fill="#FFFFFF" font-family="Verdana" font-size="12.5" lengthAdjust="spacing" textLength="451.0417" x="33.3333" y="957.1696">HedgeMWh = Sum(HedgeMWh) | HedgeMW = HedgeMWh / Intervals</text><rect fill="url(#g1jh3k679wvmf01)" height="38.1083" rx="4.1667" ry="4.1667" style="stroke:#304D6D;stroke-width:1.0416666666666667;" width="411.4583" x="53.125" y="992.0858"/><text fill="#FFFFFF" font-family="Verdana" font-size="12.5" lengthAdjust="spacing" textLength="388.5417" x="64.5833" y="1016.1112">NOPMWh = Sum(NOPMWh) | NOPMW = NOPMWh /Intervals</text><rect fill="url(#g1jh3k679wvmf01)" height="38.1083" rx="4.1667" ry="4.1667" style="stroke:#304D6D;stroke-width:1.0416666666666667;" width="139.5833" x="189.0625" y="1051.0274"/><text fill="#FFFFFF" font-family="Verdana" font-size="12.5" lengthAdjust="spacing" textLength="116.6667" x="200.5208" y="1075.0529">Cost = Sum(Cost)</text><polygon fill="url(#g1jh3k679wvmf02)" points="258.8542,255.2694,271.3542,267.7694,258.8542,280.2694,246.3542,267.7694,258.8542,255.2694" style="stroke:#6B6B6B;stroke-width:1.0416666666666667;"/><polygon fill="url(#g1jh3k679wvmf02)" points="176.0417,1122.4691,341.6667,1122.4691,354.1667,1150.4649,341.6667,1178.4607,176.0417,1178.4607,163.5417,1150.4649,176.0417,1122.4691" style="stroke:#6B6B6B;stroke-width:1.0416666666666667;"/><text fill="#FFFFFF" font-family="Verdana" font-size="12.5" lengthAdjust="spacing" textLength="139.5833" x="181.25" y="1140.2445">Are all Load Segment</text><text fill="#FFFFFF" font-family="Verdana" font-size="12.5" lengthAdjust="spacing" textLength="155.2083" x="181.25" y="1155.4362">of Load Segment Group</text><text fill="#FFFFFF" font-family="Verdana" font-size="12.5" lengthAdjust="spacing" textLength="40.625" x="181.25" y="1170.6278">done?</text><ellipse cx="258.8542" cy="1209.7107" fill="none" rx="10.4167" ry="10.4167" style="stroke:#3399F3;stroke-width:1.5625;"/><line style="stroke:#3399F3;stroke-width:2.604166666666667;" x1="252.4092" x2="265.2992" y1="1203.2657" y2="1216.1557"/><line style="stroke:#3399F3;stroke-width:2.604166666666667;" x1="265.2992" x2="252.4092" y1="1203.2657" y2="1216.1557"/><line style="stroke:#446E9B;stroke-width:3.125;" x1="258.8542" x2="258.8542" y1="101.3611" y2="122.1944"/><polygon fill="#446E9B" points="254.6875,111.7778,258.8542,122.1944,263.0208,111.7778,258.8542,115.9444" style="stroke:#446E9B;stroke-width:1.0416666666666667;"/><line style="stroke:#446E9B;stroke-width:3.125;" x1="258.8542" x2="258.8542" y1="160.3027" y2="181.1361"/><polygon fill="#446E9B" points="254.6875,170.7194,258.8542,181.1361,263.0208,170.7194,258.8542,174.8861" style="stroke:#446E9B;stroke-width:1.0416666666666667;"/><line style="stroke:#446E9B;stroke-width:3.125;" x1="258.8542" x2="258.8542" y1="354.4027" y2="375.236"/><polygon fill="#446E9B" points="254.6875,364.8193,258.8542,375.236,263.0208,364.8193,258.8542,368.986" style="stroke:#446E9B;stroke-width:1.0416666666666667;"/><line style="stroke:#446E9B;stroke-width:3.125;" x1="258.8542" x2="258.8542" y1="523.5026" y2="544.3359"/><polygon fill="#446E9B" points="254.6875,533.9193,258.8542,544.3359,263.0208,533.9193,258.8542,538.0859" style="stroke:#446E9B;stroke-width:1.0416666666666667;"/><line style="stroke:#446E9B;stroke-width:3.125;" x1="258.8542" x2="258.8542" y1="582.4443" y2="603.2776"/><polygon fill="#446E9B" points="254.6875,592.8609,258.8542,603.2776,263.0208,592.8609,258.8542,597.0276" style="stroke:#446E9B;stroke-width:1.0416666666666667;"/><line style="stroke:#446E9B;stroke-width:3.125;" x1="258.8542" x2="258.8542" y1="428.536" y2="485.3943"/><polygon fill="#446E9B" points="254.6875,474.9776,258.8542,485.3943,263.0208,474.9776,258.8542,479.1443" style="stroke:#446E9B;stroke-width:1.0416666666666667;"/><line style="stroke:#446E9B;stroke-width:3.125;" x1="258.8542" x2="258.8542" y1="794.4275" y2="815.2608"/><polygon fill="#446E9B" points="254.6875,804.8442,258.8542,815.2608,263.0208,804.8442,258.8542,809.0108" style="stroke:#446E9B;stroke-width:1.0416666666666667;"/><line style="stroke:#446E9B;stroke-width:3.125;" x1="258.8542" x2="258.8542" y1="853.3691" y2="874.2025"/><polygon fill="#446E9B" points="254.6875,863.7858,258.8542,874.2025,263.0208,863.7858,258.8542,867.9525" style="stroke:#446E9B;stroke-width:1.0416666666666667;"/><line style="stroke:#446E9B;stroke-width:3.125;" x1="258.8542" x2="258.8542" y1="912.3108" y2="933.1441"/><polygon fill="#446E9B" points="254.6875,922.7275,258.8542,933.1441,263.0208,922.7275,258.8542,926.8941" style="stroke:#446E9B;stroke-width:1.0416666666666667;"/><line style="stroke:#446E9B;stroke-width:3.125;" x1="258.8542" x2="258.8542" y1="971.2524" y2="992.0858"/><polygon fill="#446E9B" points="254.6875,981.6691,258.8542,992.0858,263.0208,981.6691,258.8542,985.8358" style="stroke:#446E9B;stroke-width:1.0416666666666667;"/><line style="stroke:#446E9B;stroke-width:3.125;" x1="258.8542" x2="258.8542" y1="1030.1941" y2="1051.0274"/><polygon fill="#446E9B" points="254.6875,1040.6108,258.8542,1051.0274,263.0208,1040.6108,258.8542,1044.7774" style="stroke:#446E9B;stroke-width:1.0416666666666667;"/><line style="stroke:#446E9B;stroke-width:3.125;" x1="258.8542" x2="258.8542" y1="671.7692" y2="741.1275"/><polygon fill="#446E9B" points="254.6875,730.7109,258.8542,741.1275,263.0208,730.7109,258.8542,734.8775" style="stroke:#446E9B;stroke-width:1.0416666666666667;"/><line style="stroke:#446E9B;stroke-width:3.125;" x1="258.8542" x2="258.8542" y1="280.2694" y2="301.1027"/><polygon fill="#446E9B" points="254.6875,290.686,258.8542,301.1027,263.0208,290.686,258.8542,294.8527" style="stroke:#446E9B;stroke-width:1.0416666666666667;"/><line style="stroke:#446E9B;stroke-width:3.125;" x1="354.1667" x2="518.75" y1="1150.4649" y2="1150.4649"/><polygon fill="#446E9B" points="514.5833,709.1171,518.75,698.7005,522.9167,709.1171,518.75,704.9505" style="stroke:#446E9B;stroke-width:3.125;"/><line style="stroke:#446E9B;stroke-width:3.125;" x1="518.75" x2="518.75" y1="267.7694" y2="1150.4649"/><line style="stroke:#446E9B;stroke-width:3.125;" x1="518.75" x2="271.3542" y1="267.7694" y2="267.7694"/><polygon fill="#446E9B" points="281.7708,263.6027,271.3542,267.7694,281.7708,271.936,277.6042,267.7694" style="stroke:#446E9B;stroke-width:1.0416666666666667;"/><line style="stroke:#446E9B;stroke-width:3.125;" x1="258.8542" x2="258.8542" y1="1089.1357" y2="1122.4691"/><polygon fill="#446E9B" points="254.6875,1112.0524,258.8542,1122.4691,263.0208,1112.0524,258.8542,1116.2191" style="stroke:#446E9B;stroke-width:1.0416666666666667;"/><line style="stroke:#446E9B;stroke-width:3.125;" x1="258.8542" x2="258.8542" y1="234.436" y2="255.2694"/><polygon fill="#446E9B" points="254.6875,244.8527,258.8542,255.2694,263.0208,244.8527,258.8542,249.0194" style="stroke:#446E9B;stroke-width:1.0416666666666667;"/><line style="stroke:#446E9B;stroke-width:3.125;" x1="258.8542" x2="258.8542" y1="1178.4607" y2="1199.294"/><polygon fill="#446E9B" points="254.6875,1188.8774,258.8542,1199.294,263.0208,1188.8774,258.8542,1193.044" style="stroke:#446E9B;stroke-width:1.0416666666666667;"/><!--SRC=[RLDDRzim3BthLt0z9K23tXCCGv2iQu0a3UeEFGQCnSH25ScGw0x6jly-MhRprVaaKNnyxv7q5oxeI11BpCdYJh5XIp13crSMsGTORRBjnaV3nhljoZikRAqYOs0rtWJ_OJI1SMN5SGmpVopHrMiyqZqiicT0fs7fKMTqE9BZ7y5NvKIDvsI92QRMGg3S1nsb133kXFg_VByAanUm8-lT0TYtX3rTOX6sYGfK4egkLtmdy8uIDtJauFTApAROjejjao9mdg4cXZBud6AST1LGz3M8MutgIkEJhuAj9wgKbgG8t3qQonHEE17S6hYIOo9WMLgJ9ziZM2worz7q3duha6_yQF406fa4No031eBrzvSP5DuQZRMeJ7dJ6Ct1mTlx7Ek6YL28_3u9J_0kxsUyQOUclN6jOEDIpbLdiW9BQWhkMpCNZKZ99rDSY9EhoZawcLNhZlH4_RtiJRzQbCQMuGUTBBV3kEduqaGUJM5Nz-E-JycoEpwNAdhBNcOHU2zjyTl5F9LDUzD8p7kshWiB9ru-q4RuAlKgnuENbchO9JH6Lc-5F6VLST3TXl07sgF4-um7E1Nhi4-a3tG6zzS6tPtbvPJq6Rz-tfpHxQN1ffD4k-U7MzZCH-v0pN7ODBpz4ve9oMuDfg5Tviif9Upvausvcc6QnKsEbb_gsr0fSbhz0m00]--></g></svg>