<?xml version="1.0" encoding="us-ascii" standalone="no"?><svg xmlns="http://www.w3.org/2000/svg" xmlns:xlink="http://www.w3.org/1999/xlink" contentStyleType="text/css" height="655.2083px" preserveAspectRatio="none" style="width:976px;height:655px;" version="1.1" viewBox="0 0 976 655" width="976.0417px" zoomAndPan="magnify"><defs><linearGradient id="g1qvvnzo5vyq1z0" x1="50%" x2="50%" y1="0%" y2="100%"><stop offset="0%" stop-color="#B8B8B8"/><stop offset="100%" stop-color="#999999"/></linearGradient><linearGradient id="g1qvvnzo5vyq1z1" x1="50%" x2="50%" y1="0%" y2="100%"><stop offset="0%" stop-color="#7C9AB9"/><stop offset="100%" stop-color="#304D6D"/></linearGradient><linearGradient id="g1qvvnzo5vyq1z2" x1="50%" x2="50%" y1="0%" y2="100%"><stop offset="0%" stop-color="#70B8F7"/><stop offset="100%" stop-color="#246BAA"/></linearGradient></defs><g><rect fill="url(#g1qvvnzo5vyq1z0)" height="48.2361" id="_title" rx="4.1667" ry="4.1667" style="stroke:#6B6B6B;stroke-width:1.0416666666666667;" width="421.875" x="275.5208" y="20.8333"/><text fill="#304D6D" font-family="Verdana" font-size="20.8333" font-weight="bold" lengthAdjust="spacing" textLength="398.9583" x="286.9792" y="53.2369">Calculation MPS_Postition_Hourly</text><ellipse cx="278.125" cy="90.9444" fill="#3399F3" rx="10.4167" ry="10.4167" style="stroke:#304D6D;stroke-width:1.0416666666666667;"/><rect fill="url(#g1qvvnzo5vyq1z1)" height="38.1083" rx="4.1667" ry="4.1667" style="stroke:#304D6D;stroke-width:1.0416666666666667;" width="354.1667" x="101.0417" y="122.1944"/><text fill="#FFFFFF" font-family="Verdana" font-size="12.5" lengthAdjust="spacing" textLength="331.25" x="112.5" y="146.2199">Provide input- CompanyName, StartDate, EndDate</text><rect fill="url(#g1qvvnzo5vyq1z1)" height="38.1083" rx="4.1667" ry="4.1667" style="stroke:#304D6D;stroke-width:1.0416666666666667;" width="484.375" x="35.9375" y="181.1361"/><text fill="#FFFFFF" font-family="Verdana" font-size="12.5" lengthAdjust="spacing" textLength="461.4583" x="47.3958" y="205.1615">Delete the records for the Company in the table MPS_Postition_Hourly</text><rect fill="url(#g1qvvnzo5vyq1z1)" height="38.1083" rx="4.1667" ry="4.1667" style="stroke:#304D6D;stroke-width:1.0416666666666667;" width="264.5833" x="145.8333" y="240.0777"/><text fill="#FFFFFF" font-family="Verdana" font-size="12.5" lengthAdjust="spacing" textLength="241.6667" x="157.2917" y="264.1032">Get all the Portfolios of the Company</text><path d="M565.625,288.6027 L565.625,355.6193 L544.7917,359.786 L565.625,363.9526 L565.625,430.9692 A0,0 0 0 0 565.625,430.9692 L963.5417,430.9692 A0,0 0 0 0 963.5417,430.9692 L963.5417,299.0194 L953.125,288.6027 L565.625,288.6027 A0,0 0 0 0 565.625,288.6027 " fill="url(#g1qvvnzo5vyq1z2)" style="stroke:#246BAA;stroke-width:1.0416666666666667;"/><path d="M953.125,288.6027 L953.125,299.0194 L963.5417,299.0194 L953.125,288.6027 " fill="url(#g1qvvnzo5vyq1z2)" style="stroke:#246BAA;stroke-width:1.0416666666666667;"/><text fill="#FFFFFF" font-family="Verdana" font-size="12.5" lengthAdjust="spacing" textLength="62.5" x="577.0833" y="311.5865">Use table</text><text fill="#FFFFFF" font-family="Verdana" font-size="12.5" lengthAdjust="spacing" textLength="217.7083" x="577.0833" y="326.7782">MPS_LoadForeCastData_Interval</text><text fill="#FFFFFF" font-family="Verdana" font-size="12.5" lengthAdjust="spacing" textLength="89.5833" x="577.0833" y="341.9698">MPS_Portfolio</text><text fill="#FFFFFF" font-family="Verdana" font-size="12.5" lengthAdjust="spacing" textLength="4.1667" x="577.0833" y="357.1615">&#160;</text><text fill="#FFFFFF" font-family="Verdana" font-size="12.5" font-weight="bold" lengthAdjust="spacing" textLength="261.4583" x="577.0833" y="372.3531">MPS_HedgeData_Interval_SrcMktLoc</text><text fill="#FFFFFF" font-family="Verdana" font-size="12.5" lengthAdjust="spacing" textLength="100" x="842.7083" y="372.3531">the data in this</text><text fill="#FFFFFF" font-family="Verdana" font-size="12.5" lengthAdjust="spacing" textLength="208.3333" x="577.0833" y="387.5448">table saved at hourly level for a</text><text fill="#FFFFFF" font-family="Verdana" font-size="12.5" font-weight="bold" lengthAdjust="spacing" textLength="59.375" x="789.5833" y="387.5448">Portfolio</text><text fill="#FFFFFF" font-family="Verdana" font-size="12.5" lengthAdjust="spacing" textLength="15.625" x="853.125" y="387.5448">by</text><text fill="#FFFFFF" font-family="Verdana" font-size="12.5" font-weight="bold" lengthAdjust="spacing" textLength="100" x="577.0833" y="402.7364">DeliverZoneID</text><text fill="#FFFFFF" font-family="Verdana" font-size="12.5" lengthAdjust="spacing" textLength="25" x="681.25" y="402.7364">and</text><text fill="#FFFFFF" font-family="Verdana" font-size="12.5" font-weight="bold" lengthAdjust="spacing" textLength="54.1667" x="710.4167" y="402.7364">FinPhys</text><text fill="#FFFFFF" font-family="Verdana" font-size="12.5" lengthAdjust="spacing" textLength="158.3333" x="764.5833" y="402.7364">. This needs to be rolled</text><text fill="#FFFFFF" font-family="Verdana" font-size="12.5" lengthAdjust="spacing" textLength="206.25" x="577.0833" y="417.9281">up at hourly level for a Portfolio</text><rect fill="url(#g1qvvnzo5vyq1z1)" height="53.3" rx="4.1667" ry="4.1667" style="stroke:#304D6D;stroke-width:1.0416666666666667;" width="533.3333" x="11.4583" y="333.136"/><text fill="#FFFFFF" font-family="Verdana" font-size="12.5" lengthAdjust="spacing" textLength="510.4167" x="22.9167" y="357.1615">1. LoadMWh, HedgeMWh and Cost - Between StartDate and EndDate for HE -</text><text fill="#FFFFFF" font-family="Verdana" font-size="12.5" lengthAdjust="spacing" textLength="102.0833" x="22.9167" y="372.3531">for all Portfolios</text><path d="M534.8958,445.2484 L534.8958,481.8817 L514.0625,486.0484 L534.8958,490.215 L534.8958,526.8483 A0,0 0 0 0 534.8958,526.8483 L920.3125,526.8483 A0,0 0 0 0 920.3125,526.8483 L920.3125,455.6651 L909.8958,445.2484 L534.8958,445.2484 A0,0 0 0 0 534.8958,445.2484 " fill="url(#g1qvvnzo5vyq1z2)" style="stroke:#246BAA;stroke-width:1.0416666666666667;"/><path d="M909.8958,445.2484 L909.8958,455.6651 L920.3125,455.6651 L909.8958,445.2484 " fill="url(#g1qvvnzo5vyq1z2)" style="stroke:#246BAA;stroke-width:1.0416666666666667;"/><text fill="#FFFFFF" font-family="Verdana" font-size="12.5" lengthAdjust="spacing" textLength="353.125" x="546.3542" y="468.2322">If Using GROUP BY to roll up the numbers then do this</text><text fill="#FFFFFF" font-family="Verdana" font-size="12.5" lengthAdjust="spacing" textLength="58.3333" x="546.3542" y="483.4239">Ref table</text><text fill="#FFFFFF" font-family="Verdana" font-size="12.5" lengthAdjust="spacing" textLength="262.5" x="546.3542" y="498.6155">For HE3 in March there should 0 records</text><text fill="#FFFFFF" font-family="Verdana" font-size="12.5" lengthAdjust="spacing" textLength="240.625" x="546.3542" y="513.8072">For HE2 in Nov ther should 2 records</text><rect fill="url(#g1qvvnzo5vyq1z1)" height="68.4916" rx="4.1667" ry="4.1667" style="stroke:#304D6D;stroke-width:1.0416666666666667;" width="471.875" x="42.1875" y="451.8026"/><text fill="#FFFFFF" font-family="Verdana" font-size="12.5" lengthAdjust="spacing" textLength="448.9583" x="53.6458" y="475.828">2. Handle DST - Between StartDate and EndDate for ONLY DST HEs -</text><text fill="#FFFFFF" font-family="Verdana" font-size="12.5" lengthAdjust="spacing" textLength="354.1667" x="53.6458" y="491.0197">recalculate HedgeMWh = HedgeMwh/2, Cost = Cost/2</text><text fill="#FFFFFF" font-family="Verdana" font-size="12.5" font-style="italic" lengthAdjust="spacing" textLength="204.1667" x="53.6458" y="506.2113">Duplicate the records for DST HE</text><rect fill="url(#g1qvvnzo5vyq1z1)" height="53.3" rx="4.1667" ry="4.1667" style="stroke:#304D6D;stroke-width:1.0416666666666667;" width="423.9583" x="66.1458" y="547.6817"/><text fill="#FFFFFF" font-family="Verdana" font-size="12.5" lengthAdjust="spacing" textLength="401.0417" x="77.6042" y="571.7072">3. NOPMWh - Between StartDate and EndDate for end HE for</text><text fill="#FFFFFF" font-family="Verdana" font-size="12.5" lengthAdjust="spacing" textLength="304.1667" x="77.6042" y="586.8988">all Portfolios - calculate NOPMWh as LoadMWh</text><ellipse cx="278.125" cy="633.2733" fill="none" rx="11.4583" ry="11.4583" style="stroke:#304D6D;stroke-width:1.0416666666666667;"/><ellipse cx="278.125" cy="633.2733" fill="none" rx="6.25" ry="6.25" style="stroke:#304D6D;stroke-width:1.0416666666666667;"/><line style="stroke:#446E9B;stroke-width:3.125;" x1="278.125" x2="278.125" y1="101.3611" y2="122.1944"/><polygon fill="#446E9B" points="273.9583,111.7778,278.125,122.1944,282.2917,111.7778,278.125,115.9444" style="stroke:#446E9B;stroke-width:1.0416666666666667;"/><line style="stroke:#446E9B;stroke-width:3.125;" x1="278.125" x2="278.125" y1="160.3027" y2="181.1361"/><polygon fill="#446E9B" points="273.9583,170.7194,278.125,181.1361,282.2917,170.7194,278.125,174.8861" style="stroke:#446E9B;stroke-width:1.0416666666666667;"/><line style="stroke:#446E9B;stroke-width:3.125;" x1="278.125" x2="278.125" y1="219.2444" y2="240.0777"/><polygon fill="#446E9B" points="273.9583,229.6611,278.125,240.0777,282.2917,229.6611,278.125,233.8277" style="stroke:#446E9B;stroke-width:1.0416666666666667;"/><line style="stroke:#446E9B;stroke-width:3.125;" x1="278.125" x2="278.125" y1="278.186" y2="333.136"/><polygon fill="#446E9B" points="273.9583,322.7193,278.125,333.136,282.2917,322.7193,278.125,326.886" style="stroke:#446E9B;stroke-width:1.0416666666666667;"/><line style="stroke:#446E9B;stroke-width:3.125;" x1="278.125" x2="278.125" y1="386.436" y2="451.8026"/><polygon fill="#446E9B" points="273.9583,441.3859,278.125,451.8026,282.2917,441.3859,278.125,445.5526" style="stroke:#446E9B;stroke-width:1.0416666666666667;"/><line style="stroke:#446E9B;stroke-width:3.125;" x1="278.125" x2="278.125" y1="520.2942" y2="547.6817"/><polygon fill="#446E9B" points="273.9583,537.265,278.125,547.6817,282.2917,537.265,278.125,541.4317" style="stroke:#446E9B;stroke-width:1.0416666666666667;"/><line style="stroke:#446E9B;stroke-width:3.125;" x1="278.125" x2="278.125" y1="600.9816" y2="621.815"/><polygon fill="#446E9B" points="273.9583,611.3983,278.125,621.815,282.2917,611.3983,278.125,615.565" style="stroke:#446E9B;stroke-width:1.0416666666666667;"/><!--SRC=[ZLDDR-8m4BtxLynU8o2xz0RgfNmK93wYKbHrByZ40x7Ms97jfEBVxzW9pI9rfPuoZb_UlFTcyiCNU45m9SzHyIFpqYk42LTvfRYNHiCwsnqou-Y2JeU5gQowCkOyjvwDCcjgAH2aBYlVXucvb5nVD_o2FTW5o9HxAcTQX6BCHbDKw16eArZCZHKEJiR6S_inSSMZvqTIybLtedb63rof2CoCzIUZf75WJlyo4UxN05Q6Y_LRqOC5YZDI1LmBWZWFVNX2_u6eEwtnifKRbIrcq6UX2EswLcEc3I6iF1UUxLqhbmMveU7SM9nm5oZvOQazsfehrfXfAHXBal0Yohh37NOsN__nAvCdIVGZwBQ9HJhMvE9uZGAuXo960WfhL54mXoJvR484noirejXbZVQtqRYSqilWCadcKcV5rIN905w96ZGYpSCRE98penGALfN_QTBvGE8AOR3HS00BOYPvqzthjzBTRbRl4RoOESgPLgBTFEp6zTYM7qKwx3M3UuoFTCZIT5gLIkRyYvrgQDFqRbJB4-oTr6TuVjdkCtXw3tQ3Lo2dWK5NboDQ5seDmZIPl-2f7V0yhiH3cCQQsxm8E4lZe8IKW9yt0Irk670RKqVK3JJy17N9FGnWiys2s- -a5hwZlQIItMybVTq5s19oT_i5nk6tDINx2m00]--></g></svg>