<?xml version="1.0" encoding="us-ascii" standalone="no"?><svg xmlns="http://www.w3.org/2000/svg" xmlns:xlink="http://www.w3.org/1999/xlink" contentStyleType="text/css" height="535.4167px" preserveAspectRatio="none" style="width:434px;height:535px;" version="1.1" viewBox="0 0 434 535" width="434.375px" zoomAndPan="magnify"><defs><linearGradient id="gke78adzk2ebr0" x1="50%" x2="50%" y1="0%" y2="100%"><stop offset="0%" stop-color="#B8B8B8"/><stop offset="100%" stop-color="#999999"/></linearGradient><linearGradient id="gke78adzk2ebr1" x1="50%" x2="50%" y1="0%" y2="100%"><stop offset="0%" stop-color="#7C9AB9"/><stop offset="100%" stop-color="#304D6D"/></linearGradient><linearGradient id="gke78adzk2ebr2" x1="50%" x2="50%" y1="0%" y2="100%"><stop offset="0%" stop-color="#B8B8B8"/><stop offset="100%" stop-color="#6B6B6B"/></linearGradient></defs><g><rect fill="url(#gke78adzk2ebr0)" height="48.2361" id="_title" rx="4.1667" ry="4.1667" style="stroke:#6B6B6B;stroke-width:1.0416666666666667;" width="323.9583" x="53.6458" y="20.8333"/><text fill="#304D6D" font-family="Verdana" font-size="20.8333" font-weight="bold" lengthAdjust="spacing" textLength="301.0417" x="65.1042" y="53.2369">MPS_HedgeData_Interval</text><ellipse cx="217.1875" cy="90.9444" fill="#3399F3" rx="10.4167" ry="10.4167" style="stroke:#304D6D;stroke-width:1.0416666666666667;"/><rect fill="url(#gke78adzk2ebr1)" height="68.4916" rx="4.1667" ry="4.1667" style="stroke:#304D6D;stroke-width:1.0416666666666667;" width="411.4583" x="11.4583" y="122.1944"/><text fill="#FFFFFF" font-family="Verdana" font-size="12.5" lengthAdjust="spacing" textLength="245.8333" x="22.9167" y="146.2199">Get list of all the HedgeDataID where</text><text fill="#FFFFFF" font-family="Verdana" font-size="12.5" lengthAdjust="spacing" textLength="332.2917" x="22.9167" y="161.4115">CreatedDate or ModifiedDate (HedgeData table) is</text><text fill="#FFFFFF" font-family="Verdana" font-size="12.5" lengthAdjust="spacing" textLength="388.5417" x="22.9167" y="176.6032">after max (CreateDated MPS_HedgeData_Interval) -&gt; ListA</text><rect fill="url(#gke78adzk2ebr1)" height="53.3" rx="4.1667" ry="4.1667" style="stroke:#304D6D;stroke-width:1.0416666666666667;" width="390.625" x="21.875" y="211.5194"/><text fill="#FFFFFF" font-family="Verdana" font-size="12.5" lengthAdjust="spacing" textLength="367.7083" x="33.3333" y="235.5448">Delete records in table MPS_HedgeData_Interval where</text><text fill="#FFFFFF" font-family="Verdana" font-size="12.5" lengthAdjust="spacing" textLength="154.1667" x="33.3333" y="250.7365">HedgeDataID is in ListA</text><rect fill="url(#gke78adzk2ebr1)" height="38.1083" rx="4.1667" ry="4.1667" style="stroke:#304D6D;stroke-width:1.0416666666666667;" width="227.0833" x="103.6458" y="331.486"/><text fill="#FFFFFF" font-family="Verdana" font-size="12.5" lengthAdjust="spacing" textLength="204.1667" x="115.1042" y="355.5115">Take one HedgeDataID in ListA</text><rect fill="url(#gke78adzk2ebr1)" height="38.1083" rx="4.1667" ry="4.1667" style="stroke:#304D6D;stroke-width:1.0416666666666667;" width="189.5833" x="122.3958" y="398.0881"/><text fill="#FFFFFF" font-family="Verdana" font-size="12.5" lengthAdjust="spacing" textLength="158.3333" x="133.8542" y="422.1135">For every date between</text><polygon fill="url(#gke78adzk2ebr2)" points="217.1875,285.6527,229.6875,298.1527,217.1875,310.6527,204.6875,298.1527,217.1875,285.6527" style="stroke:#6B6B6B;stroke-width:1.0416666666666667;"/><polygon fill="url(#gke78adzk2ebr2)" points="117.1875,457.0297,317.1875,457.0297,329.6875,469.8339,317.1875,482.638,117.1875,482.638,104.6875,469.8339,117.1875,457.0297" style="stroke:#6B6B6B;stroke-width:1.0416666666666667;"/><text fill="#FFFFFF" font-family="Verdana" font-size="12.5" lengthAdjust="spacing" textLength="189.5833" x="122.3958" y="474.8052">Are all records in ListA done?</text><ellipse cx="217.1875" cy="513.888" fill="none" rx="10.4167" ry="10.4167" style="stroke:#3399F3;stroke-width:1.5625;"/><line style="stroke:#3399F3;stroke-width:2.604166666666667;" x1="210.7425" x2="223.6325" y1="507.4431" y2="520.333"/><line style="stroke:#3399F3;stroke-width:2.604166666666667;" x1="223.6325" x2="210.7425" y1="507.4431" y2="520.333"/><line style="stroke:#446E9B;stroke-width:3.125;" x1="217.1875" x2="217.1875" y1="101.3611" y2="122.1944"/><polygon fill="#446E9B" points="213.0208,111.7778,217.1875,122.1944,221.3542,111.7778,217.1875,115.9444" style="stroke:#446E9B;stroke-width:1.0416666666666667;"/><line style="stroke:#446E9B;stroke-width:3.125;" x1="217.1875" x2="217.1875" y1="190.686" y2="211.5194"/><polygon fill="#446E9B" points="213.0208,201.1027,217.1875,211.5194,221.3542,201.1027,217.1875,205.2694" style="stroke:#446E9B;stroke-width:1.0416666666666667;"/><line style="stroke:#446E9B;stroke-width:3.125;" x1="217.1875" x2="217.1875" y1="369.5943" y2="398.0881"/><polygon fill="#446E9B" points="213.0208,387.6714,217.1875,398.0881,221.3542,387.6714,217.1875,391.8381" style="stroke:#446E9B;stroke-width:1.0416666666666667;"/><line style="stroke:#446E9B;stroke-width:3.125;" x1="217.1875" x2="217.1875" y1="310.6527" y2="331.486"/><polygon fill="#446E9B" points="213.0208,321.0693,217.1875,331.486,221.3542,321.0693,217.1875,325.236" style="stroke:#446E9B;stroke-width:1.0416666666666667;"/><line style="stroke:#446E9B;stroke-width:3.125;" x1="329.6875" x2="343.2292" y1="469.8339" y2="469.8339"/><polygon fill="#446E9B" points="339.0625,390.4277,343.2292,380.011,347.3958,390.4277,343.2292,386.261" style="stroke:#446E9B;stroke-width:3.125;"/><line style="stroke:#446E9B;stroke-width:3.125;" x1="343.2292" x2="343.2292" y1="298.1527" y2="469.8339"/><line style="stroke:#446E9B;stroke-width:3.125;" x1="343.2292" x2="229.6875" y1="298.1527" y2="298.1527"/><polygon fill="#446E9B" points="240.1042,293.986,229.6875,298.1527,240.1042,302.3193,235.9375,298.1527" style="stroke:#446E9B;stroke-width:1.0416666666666667;"/><line style="stroke:#446E9B;stroke-width:3.125;" x1="217.1875" x2="217.1875" y1="436.1964" y2="457.0297"/><polygon fill="#446E9B" points="213.0208,446.6131,217.1875,457.0297,221.3542,446.6131,217.1875,450.7797" style="stroke:#446E9B;stroke-width:1.0416666666666667;"/><line style="stroke:#446E9B;stroke-width:3.125;" x1="217.1875" x2="217.1875" y1="264.8193" y2="285.6527"/><polygon fill="#446E9B" points="213.0208,275.236,217.1875,285.6527,221.3542,275.236,217.1875,279.4027" style="stroke:#446E9B;stroke-width:1.0416666666666667;"/><line style="stroke:#446E9B;stroke-width:3.125;" x1="217.1875" x2="217.1875" y1="482.638" y2="503.4714"/><polygon fill="#446E9B" points="213.0208,493.0547,217.1875,503.4714,221.3542,493.0547,217.1875,497.2214" style="stroke:#446E9B;stroke-width:1.0416666666666667;"/><!--SRC=[TP31JiCm44Jl_ehXbXpuWI21AYAW4fMGu5vjwWcrwZhLUjN2t-EcePH3ZxPctipiZQsv9V9ELepIEGiMYSNR-_A5_fEjc2pdoQXxYIwRgBdccOOOic7e8J6Y871MpriSrbIwHwKOVVaZ1iLYyA4Fqxiwos7IHTO8sKbVOh2LBrGdxr7ghtIfSNkFrr9YTkUQbf65gbmDwZD2Eb6lMAT-but3Q9fmobr9Tys7R4hpz7_RdwnvAgkuftx37pTrj0EPW5z2oGcHrKmvNkcYtKY0B-o7sZ7v7m00]--></g></svg>