<?xml version="1.0" encoding="us-ascii" standalone="no"?><svg xmlns="http://www.w3.org/2000/svg" xmlns:xlink="http://www.w3.org/1999/xlink" contentStyleType="text/css" height="1147.9167px" preserveAspectRatio="none" style="width:837px;height:1147px;" version="1.1" viewBox="0 0 837 1147" width="837.5px" zoomAndPan="magnify"><defs><linearGradient id="g1y1fxwc248afy0" x1="50%" x2="50%" y1="0%" y2="100%"><stop offset="0%" stop-color="#B8B8B8"/><stop offset="100%" stop-color="#999999"/></linearGradient><linearGradient id="g1y1fxwc248afy1" x1="50%" x2="50%" y1="0%" y2="100%"><stop offset="0%" stop-color="#7C9AB9"/><stop offset="100%" stop-color="#304D6D"/></linearGradient><linearGradient id="g1y1fxwc248afy2" x1="50%" x2="50%" y1="0%" y2="100%"><stop offset="0%" stop-color="#B8B8B8"/><stop offset="100%" stop-color="#6B6B6B"/></linearGradient><linearGradient id="g1y1fxwc248afy3" x1="50%" x2="50%" y1="0%" y2="100%"><stop offset="0%" stop-color="#70B8F7"/><stop offset="100%" stop-color="#246BAA"/></linearGradient></defs><g><rect fill="url(#g1y1fxwc248afy0)" height="48.2361" id="_title" rx="4.1667" ry="4.1667" style="stroke:#6B6B6B;stroke-width:1.0416666666666667;" width="233.3333" x="300.651" y="20.8333"/><text fill="#304D6D" font-family="Verdana" font-size="20.8333" font-weight="bold" lengthAdjust="spacing" textLength="210.4167" x="312.1094" y="53.2369">LoadForecastData</text><ellipse cx="543.75" cy="90.9444" fill="#3399F3" rx="10.4167" ry="10.4167" style="stroke:#304D6D;stroke-width:1.0416666666666667;"/><rect fill="url(#g1y1fxwc248afy1)" height="38.1083" rx="4.1667" ry="4.1667" style="stroke:#304D6D;stroke-width:1.0416666666666667;" width="166.6667" x="460.4167" y="168.0278"/><text fill="#FFFFFF" font-family="Verdana" font-size="12.5" lengthAdjust="spacing" textLength="143.75" x="471.875" y="192.0532">Input/Pick a Company</text><rect fill="url(#g1y1fxwc248afy1)" height="38.1083" rx="4.1667" ry="4.1667" style="stroke:#304D6D;stroke-width:1.0416666666666667;" width="365.625" x="360.9375" y="226.9694"/><text fill="#FFFFFF" font-family="Verdana" font-size="12.5" lengthAdjust="spacing" textLength="342.7083" x="372.3958" y="250.9949">Determine the Vendor/Source table for the company</text><rect fill="url(#g1y1fxwc248afy1)" height="38.1083" rx="4.1667" ry="4.1667" style="stroke:#304D6D;stroke-width:1.0416666666666667;" width="178.125" x="454.6875" y="331.7444"/><text fill="#FFFFFF" font-family="Verdana" font-size="12.5" lengthAdjust="spacing" textLength="155.2083" x="466.1458" y="355.7699">pick file in vendor folder</text><rect fill="url(#g1y1fxwc248afy1)" height="38.1083" rx="4.1667" ry="4.1667" style="stroke:#304D6D;stroke-width:1.0416666666666667;" width="127.0833" x="480.2083" y="390.686"/><text fill="#FFFFFF" font-family="Verdana" font-size="12.5" lengthAdjust="spacing" textLength="104.1667" x="491.6667" y="414.7115">Vendor forecast</text><polygon fill="url(#g1y1fxwc248afy2)" points="509.8958,449.6277,577.6042,449.6277,590.1042,462.4318,577.6042,475.236,509.8958,475.236,497.3958,462.4318,509.8958,449.6277" style="stroke:#6B6B6B;stroke-width:1.0416666666666667;"/><text fill="#FFFFFF" font-family="Verdana" font-size="12.5" lengthAdjust="spacing" textLength="57.2917" x="515.1042" y="467.4032">Valid File</text><text fill="#FFFFFF" font-family="Verdana" font-size="12.5" lengthAdjust="spacing" textLength="22.9167" x="469.2708" y="454.599">yes</text><text fill="#FFFFFF" font-family="Verdana" font-size="12.5" lengthAdjust="spacing" textLength="16.6667" x="595.3125" y="454.599">no</text><rect fill="url(#g1y1fxwc248afy1)" height="38.1083" rx="4.1667" ry="4.1667" style="stroke:#304D6D;stroke-width:1.0416666666666667;" width="295.8333" x="261.7188" y="485.6527"/><text fill="#FFFFFF" font-family="Verdana" font-size="12.5" lengthAdjust="spacing" textLength="272.9167" x="273.1771" y="509.6781">Upserted data to InnoWatt_Forcast table</text><rect fill="url(#g1y1fxwc248afy1)" height="38.1083" rx="4.1667" ry="4.1667" style="stroke:#304D6D;stroke-width:1.0416666666666667;" width="193.75" x="312.7604" y="544.5943"/><text fill="#FFFFFF" font-family="Verdana" font-size="12.5" lengthAdjust="spacing" textLength="170.8333" x="324.2188" y="568.6198">Move file to Archive Folder</text><rect fill="url(#g1y1fxwc248afy1)" height="38.1083" rx="4.1667" ry="4.1667" style="stroke:#304D6D;stroke-width:1.0416666666666667;" width="198.9583" x="578.3854" y="485.6527"/><text fill="#FFFFFF" font-family="Verdana" font-size="12.5" lengthAdjust="spacing" textLength="176.0417" x="589.8438" y="509.6781">Write message to error file</text><rect fill="url(#g1y1fxwc248afy1)" height="38.1083" rx="4.1667" ry="4.1667" style="stroke:#304D6D;stroke-width:1.0416666666666667;" width="179.1667" x="588.2813" y="544.5943"/><text fill="#FFFFFF" font-family="Verdana" font-size="12.5" lengthAdjust="spacing" textLength="156.25" x="599.7396" y="568.6198">Move file to Error Folder</text><polygon fill="url(#g1y1fxwc248afy2)" points="543.75,593.1193,556.25,605.6193,543.75,618.1193,531.25,605.6193,543.75,593.1193" style="stroke:#6B6B6B;stroke-width:1.0416666666666667;"/><polygon fill="url(#g1y1fxwc248afy2)" points="543.75,285.9111,556.25,298.4111,543.75,310.9111,531.25,298.4111,543.75,285.9111" style="stroke:#6B6B6B;stroke-width:1.0416666666666667;"/><polygon fill="url(#g1y1fxwc248afy2)" points="450.5208,638.9526,636.9792,638.9526,649.4792,651.7568,636.9792,664.561,450.5208,664.561,438.0208,651.7568,450.5208,638.9526" style="stroke:#6B6B6B;stroke-width:1.0416666666666667;"/><text fill="#FFFFFF" font-family="Verdana" font-size="12.5" lengthAdjust="spacing" textLength="176.0417" x="455.7292" y="656.7281">Exists file in vendor folder?</text><path d="M10.4167,694.0318 L10.4167,745.2484 A0,0 0 0 0 10.4167,745.2484 L360.4167,745.2484 A0,0 0 0 0 360.4167,745.2484 L360.4167,723.8068 L381.25,719.6401 L360.4167,715.4734 L360.4167,704.4484 L350,694.0318 L10.4167,694.0318 A0,0 0 0 0 10.4167,694.0318 " fill="url(#g1y1fxwc248afy3)" style="stroke:#246BAA;stroke-width:1.0416666666666667;"/><path d="M350,694.0318 L350,704.4484 L360.4167,704.4484 L350,694.0318 " fill="url(#g1y1fxwc248afy3)" style="stroke:#246BAA;stroke-width:1.0416666666666667;"/><text fill="#FFFFFF" font-family="Verdana" font-size="12.5" lengthAdjust="spacing" textLength="160.4167" x="21.875" y="717.0156">StartDate = TODAY() + 1</text><text fill="#FFFFFF" font-family="Verdana" font-size="12.5" lengthAdjust="spacing" textLength="317.7083" x="21.875" y="732.2072">EndDate =EOMONTH(StartDate, PositionMonths)</text><rect fill="url(#g1y1fxwc248afy1)" height="68.4916" rx="4.1667" ry="4.1667" style="stroke:#304D6D;stroke-width:1.0416666666666667;" width="325" x="381.25" y="685.3943"/><text fill="#FFFFFF" font-family="Verdana" font-size="12.5" lengthAdjust="spacing" textLength="302.0833" x="392.7083" y="709.4198">Determine StartDate and EndDate via number</text><text fill="#FFFFFF" font-family="Verdana" font-size="12.5" lengthAdjust="spacing" textLength="275" x="392.7083" y="724.6114">of months for which forecast data nees to</text><text fill="#FFFFFF" font-family="Verdana" font-size="12.5" lengthAdjust="spacing" textLength="107.2917" x="392.7083" y="739.8031">inserted in table</text><rect fill="url(#g1y1fxwc248afy1)" height="53.3" rx="4.1667" ry="4.1667" style="stroke:#304D6D;stroke-width:1.0416666666666667;" width="353.125" x="367.1875" y="774.7192"/><text fill="#FFFFFF" font-family="Verdana" font-size="12.5" lengthAdjust="spacing" textLength="330.2083" x="378.6458" y="798.7447">Delete records in MPS_LoadForecastData_Interval</text><text fill="#FFFFFF" font-family="Verdana" font-size="12.5" lengthAdjust="spacing" textLength="296.875" x="378.6458" y="813.9364">where Date &gt; StartDate and Date &lt; EndDate</text><rect fill="url(#g1y1fxwc248afy1)" height="38.1083" rx="4.1667" ry="4.1667" style="stroke:#304D6D;stroke-width:1.0416666666666667;" width="266.6667" x="410.4167" y="848.8525"/><text fill="#FFFFFF" font-family="Verdana" font-size="12.5" lengthAdjust="spacing" textLength="243.75" x="421.875" y="872.878">Get all the Portfolio of InputCompany</text><rect fill="#3CB521" height="6.25" rx="2.6042" ry="2.6042" style="stroke:#3CB521;stroke-width:1.0416666666666667;" width="351.0417" x="368.2292" y="907.7942"/><rect fill="none" height="97.05" rx="4.1667" ry="4.1667" style="stroke:#446E9B;stroke-width:1.0416666666666667;" width="162.5" x="382.8125" y="924.4609"/><path d="M466.1458,924.4609 L466.1458,942.7775 L455.7292,953.1942 L382.8125,953.1942 " fill="none" style="stroke:#446E9B;stroke-width:1.0416666666666667;"/><text fill="#446E9B" font-family="Verdana" font-size="12.5" lengthAdjust="spacing" textLength="62.5" x="391.1458" y="943.278">InnoWatt</text><rect fill="url(#g1y1fxwc248afy1)" height="38.1083" rx="4.1667" ry="4.1667" style="stroke:#304D6D;stroke-width:1.0416666666666667;" width="141.6667" x="393.2292" y="970.9025"/><text fill="#FFFFFF" font-family="Verdana" font-size="12.5" lengthAdjust="spacing" textLength="118.75" x="404.6875" y="994.928">InnoWatt_Forcast</text><rect fill="none" height="97.05" rx="4.1667" ry="4.1667" style="stroke:#446E9B;stroke-width:1.0416666666666667;" width="130.2083" x="574.4792" y="924.4609"/><path d="M621.3542,924.4609 L621.3542,942.7775 L610.9375,953.1942 L574.4792,953.1942 " fill="none" style="stroke:#446E9B;stroke-width:1.0416666666666667;"/><text fill="#446E9B" font-family="Verdana" font-size="12.5" lengthAdjust="spacing" textLength="26.0417" x="582.8125" y="943.278">CES</text><rect fill="url(#g1y1fxwc248afy1)" height="38.1083" rx="4.1667" ry="4.1667" style="stroke:#304D6D;stroke-width:1.0416666666666667;" width="109.375" x="584.8958" y="970.9025"/><text fill="#FFFFFF" font-family="Verdana" font-size="12.5" lengthAdjust="spacing" textLength="86.4583" x="596.3542" y="994.928">CES Forecast</text><rect fill="#3CB521" height="6.25" rx="2.6042" ry="2.6042" style="stroke:#3CB521;stroke-width:1.0416666666666667;" width="351.0417" x="368.2292" y="1042.3442"/><polygon fill="url(#g1y1fxwc248afy2)" points="543.75,122.1944,556.25,134.6944,543.75,147.1944,531.25,134.6944,543.75,122.1944" style="stroke:#6B6B6B;stroke-width:1.0416666666666667;"/><polygon fill="url(#g1y1fxwc248afy2)" points="429.6875,1069.4275,657.8125,1069.4275,670.3125,1082.2316,657.8125,1095.0358,429.6875,1095.0358,417.1875,1082.2316,429.6875,1069.4275" style="stroke:#6B6B6B;stroke-width:1.0416666666666667;"/><text fill="#FFFFFF" font-family="Verdana" font-size="12.5" lengthAdjust="spacing" textLength="217.7083" x="434.8958" y="1087.203">Exists any company not process?</text><ellipse cx="543.75" cy="1126.2858" fill="none" rx="10.4167" ry="10.4167" style="stroke:#3399F3;stroke-width:1.5625;"/><line style="stroke:#3399F3;stroke-width:2.604166666666667;" x1="537.305" x2="550.195" y1="1119.8408" y2="1132.7308"/><line style="stroke:#3399F3;stroke-width:2.604166666666667;" x1="550.195" x2="537.305" y1="1119.8408" y2="1132.7308"/><line style="stroke:#446E9B;stroke-width:3.125;" x1="543.75" x2="543.75" y1="206.1361" y2="226.9694"/><polygon fill="#446E9B" points="539.5833,216.5527,543.75,226.9694,547.9167,216.5527,543.75,220.7194" style="stroke:#446E9B;stroke-width:1.0416666666666667;"/><line style="stroke:#446E9B;stroke-width:3.125;" x1="543.75" x2="543.75" y1="369.8527" y2="390.686"/><polygon fill="#446E9B" points="539.5833,380.2694,543.75,390.686,547.9167,380.2694,543.75,384.436" style="stroke:#446E9B;stroke-width:1.0416666666666667;"/><line style="stroke:#446E9B;stroke-width:3.125;" x1="409.6354" x2="409.6354" y1="523.761" y2="544.5943"/><polygon fill="#446E9B" points="405.4688,534.1777,409.6354,544.5943,413.8021,534.1777,409.6354,538.3443" style="stroke:#446E9B;stroke-width:1.0416666666666667;"/><line style="stroke:#446E9B;stroke-width:3.125;" x1="677.8646" x2="677.8646" y1="523.761" y2="544.5943"/><polygon fill="#446E9B" points="673.6979,534.1777,677.8646,544.5943,682.0313,534.1777,677.8646,538.3443" style="stroke:#446E9B;stroke-width:1.0416666666666667;"/><line style="stroke:#446E9B;stroke-width:3.125;" x1="497.3958" x2="409.6354" y1="462.4318" y2="462.4318"/><line style="stroke:#446E9B;stroke-width:3.125;" x1="409.6354" x2="409.6354" y1="462.4318" y2="485.6527"/><polygon fill="#446E9B" points="405.4688,475.236,409.6354,485.6527,413.8021,475.236,409.6354,479.4027" style="stroke:#446E9B;stroke-width:1.0416666666666667;"/><line style="stroke:#446E9B;stroke-width:3.125;" x1="590.1042" x2="677.8646" y1="462.4318" y2="462.4318"/><line style="stroke:#446E9B;stroke-width:3.125;" x1="677.8646" x2="677.8646" y1="462.4318" y2="485.6527"/><polygon fill="#446E9B" points="673.6979,475.236,677.8646,485.6527,682.0313,475.236,677.8646,479.4027" style="stroke:#446E9B;stroke-width:1.0416666666666667;"/><line style="stroke:#446E9B;stroke-width:3.125;" x1="409.6354" x2="409.6354" y1="582.7026" y2="605.6193"/><line style="stroke:#446E9B;stroke-width:3.125;" x1="409.6354" x2="531.25" y1="605.6193" y2="605.6193"/><polygon fill="#446E9B" points="520.8333,601.4526,531.25,605.6193,520.8333,609.786,525,605.6193" style="stroke:#446E9B;stroke-width:1.0416666666666667;"/><line style="stroke:#446E9B;stroke-width:3.125;" x1="677.8646" x2="677.8646" y1="582.7026" y2="605.6193"/><line style="stroke:#446E9B;stroke-width:3.125;" x1="677.8646" x2="556.25" y1="605.6193" y2="605.6193"/><polygon fill="#446E9B" points="566.6667,601.4526,556.25,605.6193,566.6667,609.786,562.5,605.6193" style="stroke:#446E9B;stroke-width:1.0416666666666667;"/><line style="stroke:#446E9B;stroke-width:3.125;" x1="543.75" x2="543.75" y1="428.7944" y2="449.6277"/><polygon fill="#446E9B" points="539.5833,439.211,543.75,449.6277,547.9167,439.211,543.75,443.3777" style="stroke:#446E9B;stroke-width:1.0416666666666667;"/><line style="stroke:#446E9B;stroke-width:3.125;" x1="543.75" x2="543.75" y1="310.9111" y2="331.7444"/><polygon fill="#446E9B" points="539.5833,321.3277,543.75,331.7444,547.9167,321.3277,543.75,325.4944" style="stroke:#446E9B;stroke-width:1.0416666666666667;"/><line style="stroke:#446E9B;stroke-width:3.125;" x1="649.4792" x2="791.9271" y1="651.7568" y2="651.7568"/><polygon fill="#446E9B" points="787.7604,480.8131,791.9271,470.3964,796.0938,480.8131,791.9271,476.6464" style="stroke:#446E9B;stroke-width:3.125;"/><line style="stroke:#446E9B;stroke-width:3.125;" x1="791.9271" x2="791.9271" y1="298.4111" y2="651.7568"/><line style="stroke:#446E9B;stroke-width:3.125;" x1="791.9271" x2="556.25" y1="298.4111" y2="298.4111"/><polygon fill="#446E9B" points="566.6667,294.2444,556.25,298.4111,566.6667,302.5777,562.5,298.4111" style="stroke:#446E9B;stroke-width:1.0416666666666667;"/><line style="stroke:#446E9B;stroke-width:3.125;" x1="543.75" x2="543.75" y1="618.1193" y2="638.9526"/><polygon fill="#446E9B" points="539.5833,628.536,543.75,638.9526,547.9167,628.536,543.75,632.7026" style="stroke:#446E9B;stroke-width:1.0416666666666667;"/><line style="stroke:#446E9B;stroke-width:3.125;" x1="543.75" x2="543.75" y1="265.0777" y2="285.9111"/><polygon fill="#446E9B" points="539.5833,275.4944,543.75,285.9111,547.9167,275.4944,543.75,279.6611" style="stroke:#446E9B;stroke-width:1.0416666666666667;"/><line style="stroke:#446E9B;stroke-width:3.125;" x1="543.75" x2="543.75" y1="664.561" y2="685.3943"/><polygon fill="#446E9B" points="539.5833,674.9776,543.75,685.3943,547.9167,674.9776,543.75,679.1443" style="stroke:#446E9B;stroke-width:1.0416666666666667;"/><line style="stroke:#446E9B;stroke-width:3.125;" x1="543.75" x2="543.75" y1="753.8859" y2="774.7192"/><polygon fill="#446E9B" points="539.5833,764.3026,543.75,774.7192,547.9167,764.3026,543.75,768.4692" style="stroke:#446E9B;stroke-width:1.0416666666666667;"/><line style="stroke:#446E9B;stroke-width:3.125;" x1="543.75" x2="543.75" y1="828.0192" y2="848.8525"/><polygon fill="#446E9B" points="539.5833,838.4359,543.75,848.8525,547.9167,838.4359,543.75,842.6025" style="stroke:#446E9B;stroke-width:1.0416666666666667;"/><line style="stroke:#446E9B;stroke-width:3.125;" x1="464.0625" x2="464.0625" y1="914.0442" y2="970.9025"/><polygon fill="#446E9B" points="459.8958,960.4858,464.0625,970.9025,468.2292,960.4858,464.0625,964.6525" style="stroke:#446E9B;stroke-width:1.0416666666666667;"/><line style="stroke:#446E9B;stroke-width:3.125;" x1="639.5833" x2="639.5833" y1="914.0442" y2="970.9025"/><polygon fill="#446E9B" points="635.4167,960.4858,639.5833,970.9025,643.75,960.4858,639.5833,964.6525" style="stroke:#446E9B;stroke-width:1.0416666666666667;"/><line style="stroke:#446E9B;stroke-width:3.125;" x1="464.0625" x2="464.0625" y1="1009.0108" y2="1042.3442"/><polygon fill="#446E9B" points="459.8958,1031.9275,464.0625,1042.3442,468.2292,1031.9275,464.0625,1036.0942" style="stroke:#446E9B;stroke-width:1.0416666666666667;"/><line style="stroke:#446E9B;stroke-width:3.125;" x1="639.5833" x2="639.5833" y1="1009.0108" y2="1042.3442"/><polygon fill="#446E9B" points="635.4167,1031.9275,639.5833,1042.3442,643.75,1031.9275,639.5833,1036.0942" style="stroke:#446E9B;stroke-width:1.0416666666666667;"/><line style="stroke:#446E9B;stroke-width:3.125;" x1="543.75" x2="543.75" y1="886.9609" y2="907.7942"/><polygon fill="#446E9B" points="539.5833,897.3775,543.75,907.7942,547.9167,897.3775,543.75,901.5442" style="stroke:#446E9B;stroke-width:1.0416666666666667;"/><line style="stroke:#446E9B;stroke-width:3.125;" x1="543.75" x2="543.75" y1="147.1944" y2="168.0278"/><polygon fill="#446E9B" points="539.5833,157.6111,543.75,168.0278,547.9167,157.6111,543.75,161.7778" style="stroke:#446E9B;stroke-width:1.0416666666666667;"/><line style="stroke:#446E9B;stroke-width:3.125;" x1="670.3125" x2="810.6771" y1="1082.2316" y2="1082.2316"/><polygon fill="#446E9B" points="806.5104,617.3172,810.6771,606.9005,814.8438,617.3172,810.6771,613.1505" style="stroke:#446E9B;stroke-width:3.125;"/><line style="stroke:#446E9B;stroke-width:3.125;" x1="810.6771" x2="810.6771" y1="134.6944" y2="1082.2316"/><line style="stroke:#446E9B;stroke-width:3.125;" x1="810.6771" x2="556.25" y1="134.6944" y2="134.6944"/><polygon fill="#446E9B" points="566.6667,130.5278,556.25,134.6944,566.6667,138.8611,562.5,134.6944" style="stroke:#446E9B;stroke-width:1.0416666666666667;"/><line style="stroke:#446E9B;stroke-width:3.125;" x1="543.75" x2="543.75" y1="1048.5942" y2="1069.4275"/><polygon fill="#446E9B" points="539.5833,1059.0108,543.75,1069.4275,547.9167,1059.0108,543.75,1063.1775" style="stroke:#446E9B;stroke-width:1.0416666666666667;"/><line style="stroke:#446E9B;stroke-width:3.125;" x1="543.75" x2="543.75" y1="101.3611" y2="122.1944"/><polygon fill="#446E9B" points="539.5833,111.7778,543.75,122.1944,547.9167,111.7778,543.75,115.9444" style="stroke:#446E9B;stroke-width:1.0416666666666667;"/><line style="stroke:#446E9B;stroke-width:3.125;" x1="543.75" x2="543.75" y1="1095.0358" y2="1115.8691"/><polygon fill="#446E9B" points="539.5833,1105.4525,543.75,1115.8691,547.9167,1105.4525,543.75,1109.6191" style="stroke:#446E9B;stroke-width:1.0416666666666667;"/><!--SRC=[RL9BRzim3BxhLt0zsTY0ejTatL0qoHPWMGAaJR5Jm5XqBLIM38b9LmpzxwEKs5iV9ris-RtqVU26MeBOOKKMTueDMu8V7lNC1wemyWGPLMGCh09rXAn6SzVj-NnbgWT0kFPjX-vfh4OJOWgjSGG22XjoseVpjT-7IhxWJd1h7_A_gj_f4Rk4LHiPCGuEULE6hQOWk9l-V1GqLgQ6OeFMQ9Z9IfaW7HHF54irkkqY1IODMdG3UvWxv- -GUIk6qlfHYi0k_86Ed39r5Qh6o7bs8YKR2Ghd1V4k62PeAKQypxCKGf9Ztg9Cyvy1msbJdop2OvDcYkbl4pc-R_Lh-IB4TSfSqYT0fs7gT7u_60ItRtSKbA-XzOwRc7CLWgePGZhQTqHHT2dZJg48vSc-ym9cgMRrZ-SIRfQJgrz52H_XGlMCbzFbOldpvdin37w2bO-6ZNUBp5ycgv0Gatuh3a1K-A1Z8boirjlNXThEdTWye5MF3GM2JFJbbUNyyhbtBjby8mQqDbTevGDBRCQ3n90BEHHHCdXGdI1bYN3MD-3iJwhkopQCrNEU1xn7u_xVkfwkqu8yO3OqxpaxpGJltglmz-LEUK0NV2N5IJShYty1]--></g></svg>