<?xml version="1.0" encoding="us-ascii" standalone="no"?><svg xmlns="http://www.w3.org/2000/svg" xmlns:xlink="http://www.w3.org/1999/xlink" contentStyleType="text/css" height="1115.625px" preserveAspectRatio="none" style="width:1011px;height:1115px;" version="1.1" viewBox="0 0 1011 1115" width="1011.4583px" zoomAndPan="magnify"><defs><linearGradient id="gh6gl5vwsba8e0" x1="50%" x2="50%" y1="0%" y2="100%"><stop offset="0%" stop-color="#B8B8B8"/><stop offset="100%" stop-color="#999999"/></linearGradient><linearGradient id="gh6gl5vwsba8e1" x1="50%" x2="50%" y1="0%" y2="100%"><stop offset="0%" stop-color="#7C9AB9"/><stop offset="100%" stop-color="#304D6D"/></linearGradient><linearGradient id="gh6gl5vwsba8e2" x1="50%" x2="50%" y1="0%" y2="100%"><stop offset="0%" stop-color="#70B8F7"/><stop offset="100%" stop-color="#246BAA"/></linearGradient><linearGradient id="gh6gl5vwsba8e3" x1="50%" x2="50%" y1="0%" y2="100%"><stop offset="0%" stop-color="#B8B8B8"/><stop offset="100%" stop-color="#6B6B6B"/></linearGradient></defs><g><rect fill="url(#gh6gl5vwsba8e0)" height="48.2361" id="_title" rx="4.1667" ry="4.1667" style="stroke:#6B6B6B;stroke-width:1.0416666666666667;" width="745.8333" x="131.25" y="20.8333"/><text fill="#304D6D" font-family="Verdana" font-size="20.8333" font-weight="bold" lengthAdjust="spacing" textLength="722.9167" x="142.7083" y="53.2369">Process for calculating and saving MPS_M2M_Hedge_Interval</text><ellipse cx="288.0208" cy="90.9444" fill="#3399F3" rx="10.4167" ry="10.4167" style="stroke:#304D6D;stroke-width:1.0416666666666667;"/><rect fill="url(#gh6gl5vwsba8e1)" height="38.1083" rx="4.1667" ry="4.1667" style="stroke:#304D6D;stroke-width:1.0416666666666667;" width="163.5417" x="206.25" y="122.1944"/><text fill="#FFFFFF" font-family="Verdana" font-size="12.5" lengthAdjust="spacing" textLength="140.625" x="217.7083" y="146.2199">User inputs Comapny</text><path d="M481.25,170.7194 L481.25,199.7569 L460.4167,203.9235 L481.25,208.0902 L481.25,237.1277 A0,0 0 0 0 481.25,237.1277 L760.4167,237.1277 A0,0 0 0 0 760.4167,237.1277 L760.4167,181.1361 L750,170.7194 L481.25,170.7194 A0,0 0 0 0 481.25,170.7194 " fill="url(#gh6gl5vwsba8e2)" style="stroke:#246BAA;stroke-width:1.0416666666666667;"/><path d="M750,170.7194 L750,181.1361 L760.4167,181.1361 L750,170.7194 " fill="url(#gh6gl5vwsba8e2)" style="stroke:#246BAA;stroke-width:1.0416666666666667;"/><text fill="#FFFFFF" font-family="Verdana" font-size="12.5" lengthAdjust="spacing" textLength="242.7083" x="492.7083" y="193.7032">Temporarily captures the data points</text><text fill="#FFFFFF" font-family="Verdana" font-size="12.5" lengthAdjust="spacing" textLength="246.875" x="492.7083" y="208.8949">that make up output. The records are</text><text fill="#FFFFFF" font-family="Verdana" font-size="12.5" lengthAdjust="spacing" textLength="215.625" x="492.7083" y="224.0865">used to validate final calculation;</text><rect fill="url(#gh6gl5vwsba8e1)" height="38.1083" rx="4.1667" ry="4.1667" style="stroke:#304D6D;stroke-width:1.0416666666666667;" width="344.7917" x="115.625" y="184.8694"/><text fill="#FFFFFF" font-family="Verdana" font-size="12.5" lengthAdjust="spacing" textLength="321.875" x="127.0833" y="208.8949">Truncate temp table [MPS_M2M_Hedge_Interval]</text><path d="M503.6458,247.5444 L503.6458,284.1777 L482.8125,288.3443 L503.6458,292.511 L503.6458,329.1443 A0,0 0 0 0 503.6458,329.1443 L828.6458,329.1443 A0,0 0 0 0 828.6458,329.1443 L828.6458,257.961 L818.2292,247.5444 L503.6458,247.5444 A0,0 0 0 0 503.6458,247.5444 " fill="url(#gh6gl5vwsba8e2)" style="stroke:#246BAA;stroke-width:1.0416666666666667;"/><path d="M818.2292,247.5444 L818.2292,257.961 L828.6458,257.961 L818.2292,247.5444 " fill="url(#gh6gl5vwsba8e2)" style="stroke:#246BAA;stroke-width:1.0416666666666667;"/><text fill="#FFFFFF" font-family="Verdana" font-size="12.5" lengthAdjust="spacing" textLength="205.2083" x="515.1042" y="270.5282">HedgeDataId.EndDate &gt; Today</text><text fill="#FFFFFF" font-family="Verdana" font-size="12.5" lengthAdjust="spacing" textLength="292.7083" x="515.1042" y="285.7198">Hedges are evaluated against Forward Price</text><text fill="#FFFFFF" font-family="Verdana" font-size="12.5" lengthAdjust="spacing" textLength="272.9167" x="515.1042" y="300.9115">only for period where contrated ennery is</text><text fill="#FFFFFF" font-family="Verdana" font-size="12.5" lengthAdjust="spacing" textLength="123.9583" x="515.1042" y="316.1031">yet to be delivered</text><rect fill="url(#gh6gl5vwsba8e1)" height="53.3" rx="4.1667" ry="4.1667" style="stroke:#304D6D;stroke-width:1.0416666666666667;" width="389.5833" x="93.2292" y="261.6943"/><text fill="#FFFFFF" font-family="Verdana" font-size="12.5" lengthAdjust="spacing" textLength="366.6667" x="104.6875" y="285.7198">For the company, get all the Hedge transaction that are</text><text fill="#FFFFFF" font-family="Verdana" font-size="12.5" lengthAdjust="spacing" textLength="116.6667" x="104.6875" y="300.9115">still 'Active' - ListH</text><rect fill="url(#gh6gl5vwsba8e1)" height="38.1083" rx="4.1667" ry="4.1667" style="stroke:#304D6D;stroke-width:1.0416666666666667;" width="276.0417" x="150" y="349.9776"/><text fill="#FFFFFF" font-family="Verdana" font-size="12.5" lengthAdjust="spacing" textLength="213.5417" x="161.4583" y="374.0031">Takes First Hedge Transaction in</text><text fill="#FFFFFF" font-family="Verdana" font-size="12.5" font-weight="bold" lengthAdjust="spacing" textLength="35.4167" x="379.1667" y="374.0031">ListH</text><rect fill="url(#gh6gl5vwsba8e1)" height="68.4916" rx="4.1667" ry="4.1667" style="stroke:#304D6D;stroke-width:1.0416666666666667;" width="385.4167" x="95.3125" y="454.7526"/><text fill="#FFFFFF" font-family="Verdana" font-size="12.5" lengthAdjust="spacing" textLength="362.5" x="106.7708" y="478.7781">Using table [MPS_HedgeData_Interval] get the interval</text><text fill="#FFFFFF" font-family="Verdana" font-size="12.5" lengthAdjust="spacing" textLength="290.625" x="106.7708" y="493.9697">level data for the Hedge transaction where '</text><text fill="#FFFFFF" font-family="Verdana" font-size="12.5" lengthAdjust="spacing" textLength="109.375" x="106.7708" y="509.1614">[Date] &gt; Today()</text><rect fill="url(#gh6gl5vwsba8e1)" height="53.3" rx="4.1667" ry="4.1667" style="stroke:#304D6D;stroke-width:1.0416666666666667;" width="329.1667" x="123.4375" y="544.0776"/><text fill="#FFFFFF" font-family="Verdana" font-size="12.5" lengthAdjust="spacing" textLength="306.25" x="134.8958" y="568.103">Assign 'Interval Type' (On-Peak or Off-Peak) to</text><text fill="#FFFFFF" font-family="Verdana" font-size="12.5" lengthAdjust="spacing" textLength="122.9167" x="134.8958" y="583.2947">every record in 4.0</text><rect fill="url(#gh6gl5vwsba8e1)" height="38.1083" rx="4.1667" ry="4.1667" style="stroke:#304D6D;stroke-width:1.0416666666666667;" width="155.2083" x="210.4167" y="618.2109"/><text fill="#FFFFFF" font-family="Verdana" font-size="12.5" lengthAdjust="spacing" textLength="132.2917" x="221.875" y="642.2363">Take the first record</text><rect fill="url(#gh6gl5vwsba8e1)" height="38.1083" rx="4.1667" ry="4.1667" style="stroke:#304D6D;stroke-width:1.0416666666666667;" width="382.2917" x="96.875" y="739.9567"/><text fill="#FFFFFF" font-family="Verdana" font-size="12.5" lengthAdjust="spacing" textLength="359.375" x="108.3333" y="763.9821">For the record get the applicable LMP Scalar value (SV)</text><rect fill="url(#gh6gl5vwsba8e1)" height="68.4916" rx="4.1667" ry="4.1667" style="stroke:#304D6D;stroke-width:1.0416666666666667;" width="494.7917" x="40.625" y="810.2692"/><text fill="#FFFFFF" font-family="Verdana" font-size="12.5" lengthAdjust="spacing" textLength="471.875" x="52.0833" y="834.2946">For the record calculate and save (in [MPS_M2M_Hedge_Interval] table)</text><text fill="#FFFFFF" font-family="Verdana" font-size="12.5" lengthAdjust="spacing" textLength="283.3333" x="56.25" y="849.4863">M2MNotional ($) as [HedgeMW] * (FP * SV)</text><text fill="#FFFFFF" font-family="Verdana" font-size="12.5" lengthAdjust="spacing" textLength="253.125" x="56.25" y="864.6779">M2MValue = M2MNotional - HedgeCost</text><polygon fill="url(#gh6gl5vwsba8e3)" points="288.0208,677.1525,300.5208,689.6525,288.0208,702.1525,275.5208,689.6525,288.0208,677.1525" style="stroke:#6B6B6B;stroke-width:1.0416666666666667;"/><polygon fill="url(#gh6gl5vwsba8e3)" points="126.0417,899.5941,450,899.5941,462.5,912.3983,450,925.2024,126.0417,925.2024,113.5417,912.3983,126.0417,899.5941" style="stroke:#6B6B6B;stroke-width:1.0416666666666667;"/><text fill="#FFFFFF" font-family="Verdana" font-size="12.5" lengthAdjust="spacing" textLength="313.5417" x="131.25" y="917.3696">Are all records done for the Hedge Transaction?</text><rect fill="url(#gh6gl5vwsba8e1)" height="38.1083" rx="4.1667" ry="4.1667" style="stroke:#304D6D;stroke-width:1.0416666666666667;" width="159.375" x="560.4167" y="788.4816"/><text fill="#FFFFFF" font-family="Verdana" font-size="12.5" lengthAdjust="spacing" textLength="136.4583" x="571.875" y="812.5071">Take the next record</text><polygon fill="url(#gh6gl5vwsba8e3)" points="288.0208,408.9193,300.5208,421.4193,288.0208,433.9193,275.5208,421.4193,288.0208,408.9193" style="stroke:#6B6B6B;stroke-width:1.0416666666666667;"/><polygon fill="url(#gh6gl5vwsba8e3)" points="139.0625,946.0358,436.9792,946.0358,449.4792,958.8399,436.9792,971.6441,139.0625,971.6441,126.5625,958.8399,139.0625,946.0358" style="stroke:#6B6B6B;stroke-width:1.0416666666666667;"/><text fill="#FFFFFF" font-family="Verdana" font-size="12.5" lengthAdjust="spacing" textLength="287.5" x="144.2708" y="963.8112">Are all Hedge Transaction in Step 3.0 done?</text><rect fill="url(#gh6gl5vwsba8e1)" height="38.1083" rx="4.1667" ry="4.1667" style="stroke:#304D6D;stroke-width:1.0416666666666667;" width="255.2083" x="744.7917" y="670.5983"/><text fill="#FFFFFF" font-family="Verdana" font-size="12.5" lengthAdjust="spacing" textLength="232.2917" x="756.25" y="694.6238">Take the next Hedge from **ListH*</text><rect fill="url(#gh6gl5vwsba8e1)" height="68.4916" rx="4.1667" ry="4.1667" style="stroke:#304D6D;stroke-width:1.0416666666666667;" width="553.125" x="11.4583" y="992.4774"/><text fill="#FFFFFF" font-family="Verdana" font-size="12.5" lengthAdjust="spacing" textLength="530.2083" x="22.9167" y="1016.5029">Summarize the records in Temp table and save in table MPS_M2M_Hedge_Month</text><text fill="#FFFFFF" font-family="Verdana" font-size="12.5" lengthAdjust="spacing" textLength="421.875" x="27.0833" y="1031.6945">Use Sum for HedgeMW, HedgeCost, M2MNotional and M2MValue</text><text fill="#FFFFFF" font-family="Verdana" font-size="12.5" lengthAdjust="spacing" textLength="340.625" x="27.0833" y="1046.8862">Determine value of field IsMarkedforPartialDelMonth</text><ellipse cx="288.0208" cy="1093.2607" fill="none" rx="11.4583" ry="11.4583" style="stroke:#304D6D;stroke-width:1.0416666666666667;"/><ellipse cx="288.0208" cy="1093.2607" fill="none" rx="6.25" ry="6.25" style="stroke:#304D6D;stroke-width:1.0416666666666667;"/><line style="stroke:#446E9B;stroke-width:3.125;" x1="288.0208" x2="288.0208" y1="101.3611" y2="122.1944"/><polygon fill="#446E9B" points="283.8542,111.7778,288.0208,122.1944,292.1875,111.7778,288.0208,115.9444" style="stroke:#446E9B;stroke-width:1.0416666666666667;"/><line style="stroke:#446E9B;stroke-width:3.125;" x1="288.0208" x2="288.0208" y1="160.3027" y2="184.8694"/><polygon fill="#446E9B" points="283.8542,174.4527,288.0208,184.8694,292.1875,174.4527,288.0208,178.6194" style="stroke:#446E9B;stroke-width:1.0416666666666667;"/><line style="stroke:#446E9B;stroke-width:3.125;" x1="288.0208" x2="288.0208" y1="222.9777" y2="261.6943"/><polygon fill="#446E9B" points="283.8542,251.2777,288.0208,261.6943,292.1875,251.2777,288.0208,255.4443" style="stroke:#446E9B;stroke-width:1.0416666666666667;"/><line style="stroke:#446E9B;stroke-width:3.125;" x1="288.0208" x2="288.0208" y1="314.9943" y2="349.9776"/><polygon fill="#446E9B" points="283.8542,339.561,288.0208,349.9776,292.1875,339.561,288.0208,343.7276" style="stroke:#446E9B;stroke-width:1.0416666666666667;"/><line style="stroke:#446E9B;stroke-width:3.125;" x1="288.0208" x2="288.0208" y1="523.2442" y2="544.0776"/><polygon fill="#446E9B" points="283.8542,533.6609,288.0208,544.0776,292.1875,533.6609,288.0208,537.8276" style="stroke:#446E9B;stroke-width:1.0416666666666667;"/><line style="stroke:#446E9B;stroke-width:3.125;" x1="288.0208" x2="288.0208" y1="597.3775" y2="618.2109"/><polygon fill="#446E9B" points="283.8542,607.7942,288.0208,618.2109,292.1875,607.7942,288.0208,611.9609" style="stroke:#446E9B;stroke-width:1.0416666666666667;"/><line style="stroke:#446E9B;stroke-width:3.125;" x1="288.0208" x2="288.0208" y1="778.065" y2="810.2692"/><polygon fill="#446E9B" points="283.8542,799.8525,288.0208,810.2692,292.1875,799.8525,288.0208,804.0192" style="stroke:#446E9B;stroke-width:1.0416666666666667;"/><line style="stroke:#446E9B;stroke-width:3.125;" x1="288.0208" x2="288.0208" y1="702.1525" y2="739.9567"/><polygon fill="#446E9B" points="283.8542,729.54,288.0208,739.9567,292.1875,729.54,288.0208,733.7067" style="stroke:#446E9B;stroke-width:1.0416666666666667;"/><line style="stroke:#446E9B;stroke-width:3.125;" x1="462.5" x2="640.1042" y1="912.3983" y2="912.3983"/><line style="stroke:#446E9B;stroke-width:3.125;" x1="640.1042" x2="640.1042" y1="826.59" y2="912.3983"/><polygon fill="#446E9B" points="635.9375,837.0066,640.1042,826.59,644.2708,837.0066,640.1042,832.84" style="stroke:#446E9B;stroke-width:1.0416666666666667;"/><line style="stroke:#446E9B;stroke-width:3.125;" x1="640.1042" x2="640.1042" y1="689.6525" y2="788.4816"/><line style="stroke:#446E9B;stroke-width:3.125;" x1="640.1042" x2="300.5208" y1="689.6525" y2="689.6525"/><polygon fill="#446E9B" points="310.9375,685.4858,300.5208,689.6525,310.9375,693.8192,306.7708,689.6525" style="stroke:#446E9B;stroke-width:1.0416666666666667;"/><line style="stroke:#446E9B;stroke-width:3.125;" x1="288.0208" x2="288.0208" y1="878.7608" y2="899.5941"/><polygon fill="#446E9B" points="283.8542,889.1774,288.0208,899.5941,292.1875,889.1774,288.0208,893.3441" style="stroke:#446E9B;stroke-width:1.0416666666666667;"/><line style="stroke:#446E9B;stroke-width:3.125;" x1="288.0208" x2="288.0208" y1="656.3192" y2="677.1525"/><polygon fill="#446E9B" points="283.8542,666.7358,288.0208,677.1525,292.1875,666.7358,288.0208,670.9025" style="stroke:#446E9B;stroke-width:1.0416666666666667;"/><line style="stroke:#446E9B;stroke-width:3.125;" x1="288.0208" x2="288.0208" y1="433.9193" y2="454.7526"/><polygon fill="#446E9B" points="283.8542,444.3359,288.0208,454.7526,292.1875,444.3359,288.0208,448.5026" style="stroke:#446E9B;stroke-width:1.0416666666666667;"/><line style="stroke:#446E9B;stroke-width:3.125;" x1="449.4792" x2="872.3958" y1="958.8399" y2="958.8399"/><line style="stroke:#446E9B;stroke-width:3.125;" x1="872.3958" x2="872.3958" y1="708.7067" y2="958.8399"/><polygon fill="#446E9B" points="868.2292,719.1233,872.3958,708.7067,876.5625,719.1233,872.3958,714.9567" style="stroke:#446E9B;stroke-width:1.0416666666666667;"/><line style="stroke:#446E9B;stroke-width:3.125;" x1="872.3958" x2="872.3958" y1="421.4193" y2="670.5983"/><line style="stroke:#446E9B;stroke-width:3.125;" x1="872.3958" x2="300.5208" y1="421.4193" y2="421.4193"/><polygon fill="#446E9B" points="310.9375,417.2526,300.5208,421.4193,310.9375,425.5859,306.7708,421.4193" style="stroke:#446E9B;stroke-width:1.0416666666666667;"/><line style="stroke:#446E9B;stroke-width:3.125;" x1="288.0208" x2="288.0208" y1="925.2024" y2="946.0358"/><polygon fill="#446E9B" points="283.8542,935.6191,288.0208,946.0358,292.1875,935.6191,288.0208,939.7858" style="stroke:#446E9B;stroke-width:1.0416666666666667;"/><line style="stroke:#446E9B;stroke-width:3.125;" x1="288.0208" x2="288.0208" y1="388.0859" y2="408.9193"/><polygon fill="#446E9B" points="283.8542,398.5026,288.0208,408.9193,292.1875,398.5026,288.0208,402.6693" style="stroke:#446E9B;stroke-width:1.0416666666666667;"/><line style="stroke:#446E9B;stroke-width:3.125;" x1="288.0208" x2="288.0208" y1="971.6441" y2="992.4774"/><polygon fill="#446E9B" points="283.8542,982.0608,288.0208,992.4774,292.1875,982.0608,288.0208,986.2274" style="stroke:#446E9B;stroke-width:1.0416666666666667;"/><line style="stroke:#446E9B;stroke-width:3.125;" x1="288.0208" x2="288.0208" y1="1060.969" y2="1081.8024"/><polygon fill="#446E9B" points="283.8542,1071.3857,288.0208,1081.8024,292.1875,1071.3857,288.0208,1075.5524" style="stroke:#446E9B;stroke-width:1.0416666666666667;"/><!--SRC=[TLJRQXin47tNLqoXu0k92MsVRDeIueO4uiRWRVeGGXYlPcrXhIGaRLBtwplIPdr9avTbaMPqBdEa3t5DDK5mM9B6fOWgQeAvjoM509NrKA8k6urHcHMWaH3mAVtEvel7sQVPunN95JrUcqZ-2RK84NqKur-1F2ZZcXZWmjRep7OYneLlJ8cH85Bj8EAIeUxVFkXX8epbIgzMwoWAhhSUlT9RvkDYuoa0CmU94S5PPM8GSOqHQjmGD0vi4nby10KNUIgjbm7GasW2IOWM64B9HALI1lLUf3KJGQmoWOln9UjFCAMj7Phj2Qme0cgT5pDXY1vDm39rGcQGK49KNDGxv-Kdwi4ftAWGhuuavUufqx-Menz6JXENRr1OYTjsB_C5Og8Dxqd05IeJ8Z2dP_IIPwHA4jQm9MbCZhoo4fxNv1DVmxnI5nb3VWigY2rJP-5BDeqqq_8a3vGMx5k0I-KPeHLM70XJ1eR3h64ud0XFZZ0FEGNXO8mxJVinPiUIMwfBYAOdqktWgXTx_tUobT4JzycNXywO_e13T1w2MXdeTH1GR1rxtByrftF23V2PjrML_mSiM30S6z1c80dvCZgRj7epTfKbjzjxQTtWNzew4UYSLcKMV3ERmu9ZWpvbgI7eB-uIlLUTNR2ekpjSo2JUItthva00x_sqoGeMsFyu00nmdsjdlnzW2FtBENyPCLVUPG9VZvfEMrSlR8WJiSHoaqApbstepslLRBfYOVrpTZvblBisqXfwDQg3R7mVl7TwMrfvM-_2ynxKcubRH7BmUNIM2J3CUD7KDRy1V-d0u90gY_rpidEPbzkLOwTdV3FM0lXz0ZukotgnzMHlsCcHa-d8dSa2fiIpgXLxqixTLfmXqXAkmmpzXYIVEUT7KA6UaivuCE4NmRf_]--></g></svg>