<?xml version="1.0" encoding="us-ascii" standalone="no"?><svg xmlns="http://www.w3.org/2000/svg" xmlns:xlink="http://www.w3.org/1999/xlink" contentStyleType="text/css" height="1495.8333px" preserveAspectRatio="none" style="width:1092px;height:1495px;" version="1.1" viewBox="0 0 1092 1495" width="1092.7083px" zoomAndPan="magnify"><defs><linearGradient id="gu4lj8b2rqv9f0" x1="50%" x2="50%" y1="0%" y2="100%"><stop offset="0%" stop-color="#B8B8B8"/><stop offset="100%" stop-color="#999999"/></linearGradient><linearGradient id="gu4lj8b2rqv9f1" x1="50%" x2="50%" y1="0%" y2="100%"><stop offset="0%" stop-color="#7C9AB9"/><stop offset="100%" stop-color="#304D6D"/></linearGradient><linearGradient id="gu4lj8b2rqv9f2" x1="50%" x2="50%" y1="0%" y2="100%"><stop offset="0%" stop-color="#B8B8B8"/><stop offset="100%" stop-color="#6B6B6B"/></linearGradient><linearGradient id="gu4lj8b2rqv9f3" x1="50%" x2="50%" y1="0%" y2="100%"><stop offset="0%" stop-color="#70B8F7"/><stop offset="100%" stop-color="#246BAA"/></linearGradient></defs><g><rect fill="url(#gu4lj8b2rqv9f0)" height="48.2361" id="_title" rx="4.1667" ry="4.1667" style="stroke:#6B6B6B;stroke-width:1.0416666666666667;" width="569.7917" x="260.1563" y="20.8333"/><text fill="#304D6D" font-family="Verdana" font-size="20.8333" font-weight="bold" lengthAdjust="spacing" textLength="546.875" x="271.6146" y="53.2369">Calculate MPS_HedgeData_Interval_Allocation</text><ellipse cx="519.2708" cy="90.9444" fill="#3399F3" rx="10.4167" ry="10.4167" style="stroke:#304D6D;stroke-width:1.0416666666666667;"/><rect fill="url(#gu4lj8b2rqv9f1)" height="53.3" rx="4.1667" ry="4.1667" style="stroke:#304D6D;stroke-width:1.0416666666666667;" width="313.5417" x="362.5" y="122.1944"/><text fill="#FFFFFF" font-family="Verdana" font-size="12.5" lengthAdjust="spacing" textLength="275" x="373.9583" y="146.2199">Input Company &amp; get DT_last run process</text><text fill="#FFFFFF" font-family="Verdana" font-size="12.5" lengthAdjust="spacing" textLength="290.625" x="373.9583" y="161.4115">\n from MPS_HedgeData_Interval_Allocation</text><rect fill="#3CB521" height="6.25" rx="2.6042" ry="2.6042" style="stroke:#3CB521;stroke-width:1.0416666666666667;" width="875" x="81.7708" y="196.3277"/><rect fill="url(#gu4lj8b2rqv9f1)" height="53.3" rx="4.1667" ry="4.1667" style="stroke:#304D6D;stroke-width:1.0416666666666667;" width="403.125" x="96.3542" y="223.4111"/><text fill="#FFFFFF" font-family="Verdana" font-size="12.5" lengthAdjust="spacing" textLength="286.4583" x="107.8125" y="247.4365">1. MPS_HedgeData_Interval pick all records</text><text fill="#FFFFFF" font-family="Verdana" font-size="12.5" lengthAdjust="spacing" textLength="380.2083" x="107.8125" y="262.6282">\n Where CreatedDateTime &amp; ModifiedDateTime &gt; DT_last</text><rect fill="url(#gu4lj8b2rqv9f1)" height="38.1083" rx="4.1667" ry="4.1667" style="stroke:#304D6D;stroke-width:1.0416666666666667;" width="338.5417" x="128.6458" y="297.5444"/><text fill="#FFFFFF" font-family="Verdana" font-size="12.5" lengthAdjust="spacing" textLength="315.625" x="140.1042" y="321.5698">1.1 Join MPS_HedgeData_Interval with #1 table</text><rect fill="url(#gu4lj8b2rqv9f1)" height="53.3" rx="4.1667" ry="4.1667" style="stroke:#304D6D;stroke-width:1.0416666666666667;" width="403.125" x="533.8542" y="223.4111"/><text fill="#FFFFFF" font-family="Verdana" font-size="12.5" lengthAdjust="spacing" textLength="286.4583" x="545.3125" y="247.4365">2. MPS_HedgeData_Interval pick all records</text><text fill="#FFFFFF" font-family="Verdana" font-size="12.5" lengthAdjust="spacing" textLength="380.2083" x="545.3125" y="262.6282">\n Where CreatedDateTime &amp; ModifiedDateTime &gt; DT_last</text><rect fill="url(#gu4lj8b2rqv9f1)" height="38.1083" rx="4.1667" ry="4.1667" style="stroke:#304D6D;stroke-width:1.0416666666666667;" width="413.5417" x="528.6458" y="297.5444"/><text fill="#FFFFFF" font-family="Verdana" font-size="12.5" lengthAdjust="spacing" textLength="390.625" x="540.1042" y="321.5698">2.1. Join MPS_HedgeData_Interval_Allocation with #2 table</text><rect fill="#3CB521" height="6.25" rx="2.6042" ry="2.6042" style="stroke:#3CB521;stroke-width:1.0416666666666667;" width="875" x="81.7708" y="356.486"/><rect fill="url(#gu4lj8b2rqv9f1)" height="38.1083" rx="4.1667" ry="4.1667" style="stroke:#304D6D;stroke-width:1.0416666666666667;" width="156.25" x="441.1458" y="383.5693"/><text fill="#FFFFFF" font-family="Verdana" font-size="12.5" lengthAdjust="spacing" textLength="133.3333" x="452.6042" y="407.5948">3. Union 1.1 and 2.1</text><rect fill="#3CB521" height="6.25" rx="2.6042" ry="2.6042" style="stroke:#3CB521;stroke-width:1.0416666666666667;" width="913.5417" x="62.5" y="442.511"/><rect fill="url(#gu4lj8b2rqv9f1)" height="38.1083" rx="4.1667" ry="4.1667" style="stroke:#304D6D;stroke-width:1.0416666666666667;" width="373.9583" x="77.6042" y="648.8068"/><text fill="#FFFFFF" font-family="Verdana" font-size="12.5" lengthAdjust="spacing" textLength="351.0417" x="89.0625" y="672.8322">Get #3 with HedgeAllocationMethod 'Direct Allocation'</text><rect fill="url(#gu4lj8b2rqv9f1)" height="53.3" rx="4.1667" ry="4.1667" style="stroke:#304D6D;stroke-width:1.0416666666666667;" width="375" x="77.0833" y="723.2442"/><text fill="#FFFFFF" font-family="Verdana" font-size="12.5" lengthAdjust="spacing" textLength="352.0833" x="88.5417" y="747.2697">4.1 HedgeMWh = HedgeMW * AllocationPercent / 100</text><text fill="#FFFFFF" font-family="Verdana" font-size="12.5" lengthAdjust="spacing" textLength="263.5417" x="88.5417" y="762.4613">\n Cost = Cost * AllocationPercent / 100</text><rect fill="url(#gu4lj8b2rqv9f1)" height="38.1083" rx="4.1667" ry="4.1667" style="stroke:#304D6D;stroke-width:1.0416666666666667;" width="382.2917" x="517.7083" y="469.5943"/><text fill="#FFFFFF" font-family="Verdana" font-size="12.5" lengthAdjust="spacing" textLength="359.375" x="529.1667" y="493.6198">Get #3 with HedgeAllocationMethod 'Load Ratio Share'</text><rect fill="url(#gu4lj8b2rqv9f1)" height="38.1083" rx="4.1667" ry="4.1667" style="stroke:#304D6D;stroke-width:1.0416666666666667;" width="426.0417" x="495.8333" y="528.536"/><text fill="#FFFFFF" font-family="Verdana" font-size="12.5" lengthAdjust="spacing" textLength="403.125" x="507.2917" y="552.5614">4.2 Get unique list of HedgeDataID and Date combine use #3</text><rect fill="url(#gu4lj8b2rqv9f1)" height="38.1083" rx="4.1667" ry="4.1667" style="stroke:#304D6D;stroke-width:1.0416666666666667;" width="312.5" x="552.6042" y="633.311"/><text fill="#FFFFFF" font-family="Verdana" font-size="12.5" lengthAdjust="spacing" textLength="289.5833" x="564.0625" y="657.3364">4.3 Pick first HedgeDataID &amp; Date from #4.2</text><rect fill="url(#gu4lj8b2rqv9f1)" height="38.1083" rx="4.1667" ry="4.1667" style="stroke:#304D6D;stroke-width:1.0416666666666667;" width="455.2083" x="481.25" y="707.7484"/><text fill="#FFFFFF" font-family="Verdana" font-size="12.5" lengthAdjust="spacing" textLength="432.2917" x="492.7083" y="731.7739">4.4 Get all Participation Portfolio for HedgeDataID &amp; Date combine</text><rect fill="url(#gu4lj8b2rqv9f1)" height="53.3" rx="4.1667" ry="4.1667" style="stroke:#304D6D;stroke-width:1.0416666666666667;" width="350" x="533.8542" y="782.3151"/><text fill="#FFFFFF" font-family="Verdana" font-size="12.5" lengthAdjust="spacing" textLength="327.0833" x="545.3125" y="806.3405">4.5 For each Hour Ending (interval) calculate Load</text><text fill="#FFFFFF" font-family="Verdana" font-size="12.5" lengthAdjust="spacing" textLength="289.5833" x="545.3125" y="821.5322">\n Ratio Share of each participating Portfolio</text><rect fill="url(#gu4lj8b2rqv9f1)" height="68.4916" rx="4.1667" ry="4.1667" style="stroke:#304D6D;stroke-width:1.0416666666666667;" width="361.4583" x="528.125" y="856.4484"/><text fill="#FFFFFF" font-family="Verdana" font-size="12.5" lengthAdjust="spacing" textLength="176.0417" x="539.5833" y="880.4738">Calculate each HourEnding</text><text fill="#FFFFFF" font-family="Verdana" font-size="12.5" lengthAdjust="spacing" textLength="338.5417" x="539.5833" y="895.6655">\n HedgeMWh = HedgeMW * Hourly LRS of Portfolio</text><text fill="#FFFFFF" font-family="Verdana" font-size="12.5" lengthAdjust="spacing" textLength="257.2917" x="539.5833" y="910.8571">\n Cost = Cost * Hourly LRS of Portfolio</text><polygon fill="url(#gu4lj8b2rqv9f2)" points="708.8542,587.4776,721.3542,599.9776,708.8542,612.4776,696.3542,599.9776,708.8542,587.4776" style="stroke:#6B6B6B;stroke-width:1.0416666666666667;"/><polygon fill="url(#gu4lj8b2rqv9f2)" points="540.625,945.7733,877.0833,945.7733,889.5833,958.5775,877.0833,971.3816,540.625,971.3816,528.125,958.5775,540.625,945.7733" style="stroke:#6B6B6B;stroke-width:1.0416666666666667;"/><text fill="#FFFFFF" font-family="Verdana" font-size="12.5" lengthAdjust="spacing" textLength="326.0417" x="545.8333" y="963.5488">Does finish all HedgeDataID &amp; Date combine #4.2</text><rect fill="#3CB521" height="6.25" rx="2.6042" ry="2.6042" style="stroke:#3CB521;stroke-width:1.0416666666666667;" width="913.5417" x="62.5" y="992.215"/><path d="M25.5208,1019.2983 L25.5208,1116.0899 L311.9792,1116.0899 L311.9792,1029.715 L301.5625,1019.2983 L25.5208,1019.2983 " fill="url(#gu4lj8b2rqv9f3)" style="stroke:#246BAA;stroke-width:1.0416666666666667;"/><path d="M301.5625,1019.2983 L301.5625,1029.715 L311.9792,1029.715 L301.5625,1019.2983 " fill="url(#gu4lj8b2rqv9f3)" style="stroke:#246BAA;stroke-width:1.0416666666666667;"/><text fill="#FFFFFF" font-family="Verdana" font-size="12.5" lengthAdjust="spacing" textLength="234.375" x="36.9792" y="1042.2821">If HedgeDataID &amp; Date combination</text><text fill="#FFFFFF" font-family="Verdana" font-size="12.5" lengthAdjust="spacing" textLength="154.1667" x="36.9792" y="1057.4738">already exists in table -</text><text fill="#FFFFFF" font-family="Verdana" font-size="12.5" font-weight="bold" lengthAdjust="spacing" textLength="42.7083" x="195.3125" y="1057.4738">delete</text><text fill="#FFFFFF" font-family="Verdana" font-size="12.5" lengthAdjust="spacing" textLength="254.1667" x="36.9792" y="1072.6654">all the records for the combination and</text><text fill="#FFFFFF" font-family="Verdana" font-size="12.5" lengthAdjust="spacing" textLength="238.5417" x="36.9792" y="1087.8571">insert newly calculated records. Else</text><text fill="#FFFFFF" font-family="Verdana" font-size="12.5" lengthAdjust="spacing" textLength="203.125" x="36.9792" y="1103.0487">insert newly calculated records</text><path d="M20.8333,1136.9232 L20.8333,1233.7148 L316.6667,1233.7148 L316.6667,1147.3399 L306.25,1136.9232 L20.8333,1136.9232 " fill="url(#gu4lj8b2rqv9f3)" style="stroke:#246BAA;stroke-width:1.0416666666666667;"/><path d="M306.25,1136.9232 L306.25,1147.3399 L316.6667,1147.3399 L306.25,1136.9232 " fill="url(#gu4lj8b2rqv9f3)" style="stroke:#246BAA;stroke-width:1.0416666666666667;"/><text fill="#FFFFFF" font-family="Verdana" font-size="12.5" lengthAdjust="spacing" textLength="254.1667" x="32.2917" y="1159.907">Doing a pure Upsert*on HedgeDataID,</text><text fill="#FFFFFF" font-family="Verdana" font-size="12.5" lengthAdjust="spacing" textLength="188.5417" x="32.2917" y="1175.0987">PortfolioID, and Date will o/p</text><text fill="#FFFFFF" font-family="Verdana" font-size="12.5" lengthAdjust="spacing" textLength="257.2917" x="32.2917" y="1190.2903">incorrect results as processes MPS-234</text><text fill="#FFFFFF" font-family="Verdana" font-size="12.5" lengthAdjust="spacing" textLength="263.5417" x="32.2917" y="1205.482">perform limited UPSERT (delete + insert)</text><text fill="#FFFFFF" font-family="Verdana" font-size="12.5" lengthAdjust="spacing" textLength="141.6667" x="32.2917" y="1220.6736">in the upstream table</text><rect fill="url(#gu4lj8b2rqv9f1)" height="38.1083" rx="4.1667" ry="4.1667" style="stroke:#304D6D;stroke-width:1.0416666666666667;" width="384.375" x="327.0833" y="1107.4524"/><text fill="#FFFFFF" font-family="Verdana" font-size="12.5" lengthAdjust="spacing" textLength="361.4583" x="338.5417" y="1131.4779">5. Save records in MPS_HedgeData_Interval_Allocation</text><path d="M597.3958,1254.5481 L597.3958,1313.9689 L576.5625,1318.1356 L597.3958,1322.3022 L597.3958,1381.723 A0,0 0 0 0 597.3958,1381.723 L1080.7292,1381.723 A0,0 0 0 0 1080.7292,1381.723 L1080.7292,1264.9648 L1070.3125,1254.5481 L597.3958,1254.5481 A0,0 0 0 0 597.3958,1254.5481 " fill="url(#gu4lj8b2rqv9f3)" style="stroke:#246BAA;stroke-width:1.0416666666666667;"/><path d="M1070.3125,1254.5481 L1070.3125,1264.9648 L1080.7292,1264.9648 L1070.3125,1254.5481 " fill="url(#gu4lj8b2rqv9f3)" style="stroke:#246BAA;stroke-width:1.0416666666666667;"/><text fill="#FFFFFF" font-family="Verdana" font-size="12.5" lengthAdjust="spacing" textLength="428.125" x="608.8542" y="1277.5319">In the table [MPS_HedgeData_Interval_Allocation] HedgeDataID,</text><text fill="#FFFFFF" font-family="Verdana" font-size="12.5" lengthAdjust="spacing" textLength="425" x="608.8542" y="1292.7236">Date, HourEnding, PortfolioID make a unique combination except</text><text fill="#FFFFFF" font-family="Verdana" font-size="12.5" lengthAdjust="spacing" textLength="182.2917" x="608.8542" y="1307.9152">for DST End Interval(in Nov)</text><text fill="#FFFFFF" font-family="Verdana" font-size="12.5" lengthAdjust="spacing" textLength="451.0417" x="608.8542" y="1323.1069">- When DST Start (HE3) in March - the table should contain 0 records</text><text fill="#FFFFFF" font-family="Verdana" font-size="12.5" lengthAdjust="spacing" textLength="437.5" x="608.8542" y="1338.2985">- When DST Ends (HE2) in Nov - the table should contain 2 records</text><text fill="#FFFFFF" font-family="Verdana" font-size="12.5" lengthAdjust="spacing" textLength="396.875" x="608.8542" y="1353.4902">Note - Fields HedgeDataIntervalID &amp; PortfolioID can be used</text><text fill="#FFFFFF" font-family="Verdana" font-size="12.5" lengthAdjust="spacing" textLength="429.1667" x="608.8542" y="1368.6818">in place of 4 fields mention above to identify unique combinations</text><rect fill="url(#gu4lj8b2rqv9f1)" height="38.1083" rx="4.1667" ry="4.1667" style="stroke:#304D6D;stroke-width:1.0416666666666667;" width="114.5833" x="461.9792" y="1299.0814"/><text fill="#FFFFFF" font-family="Verdana" font-size="12.5" lengthAdjust="spacing" textLength="91.6667" x="473.4375" y="1323.1069">6. Handle DST</text><rect fill="url(#gu4lj8b2rqv9f1)" height="38.1083" rx="4.1667" ry="4.1667" style="stroke:#304D6D;stroke-width:1.0416666666666667;" width="61.4583" x="488.5417" y="1402.5564"/><text fill="#FFFFFF" font-family="Verdana" font-size="12.5" lengthAdjust="spacing" textLength="38.5417" x="500" y="1426.5818">test 2</text><ellipse cx="519.2708" cy="1472.9563" fill="none" rx="11.4583" ry="11.4583" style="stroke:#304D6D;stroke-width:1.0416666666666667;"/><ellipse cx="519.2708" cy="1472.9563" fill="none" rx="6.25" ry="6.25" style="stroke:#304D6D;stroke-width:1.0416666666666667;"/><line style="stroke:#446E9B;stroke-width:3.125;" x1="519.2708" x2="519.2708" y1="101.3611" y2="122.1944"/><polygon fill="#446E9B" points="515.1042,111.7778,519.2708,122.1944,523.4375,111.7778,519.2708,115.9444" style="stroke:#446E9B;stroke-width:1.0416666666666667;"/><line style="stroke:#446E9B;stroke-width:3.125;" x1="297.9167" x2="297.9167" y1="276.711" y2="297.5444"/><polygon fill="#446E9B" points="293.75,287.1277,297.9167,297.5444,302.0833,287.1277,297.9167,291.2944" style="stroke:#446E9B;stroke-width:1.0416666666666667;"/><line style="stroke:#446E9B;stroke-width:3.125;" x1="735.4167" x2="735.4167" y1="276.711" y2="297.5444"/><polygon fill="#446E9B" points="731.25,287.1277,735.4167,297.5444,739.5833,287.1277,735.4167,291.2944" style="stroke:#446E9B;stroke-width:1.0416666666666667;"/><line style="stroke:#446E9B;stroke-width:3.125;" x1="297.9167" x2="297.9167" y1="202.5777" y2="223.4111"/><polygon fill="#446E9B" points="293.75,212.9944,297.9167,223.4111,302.0833,212.9944,297.9167,217.1611" style="stroke:#446E9B;stroke-width:1.0416666666666667;"/><line style="stroke:#446E9B;stroke-width:3.125;" x1="735.4167" x2="735.4167" y1="202.5777" y2="223.4111"/><polygon fill="#446E9B" points="731.25,212.9944,735.4167,223.4111,739.5833,212.9944,735.4167,217.1611" style="stroke:#446E9B;stroke-width:1.0416666666666667;"/><line style="stroke:#446E9B;stroke-width:3.125;" x1="297.9167" x2="297.9167" y1="335.6527" y2="356.486"/><polygon fill="#446E9B" points="293.75,346.0693,297.9167,356.486,302.0833,346.0693,297.9167,350.236" style="stroke:#446E9B;stroke-width:1.0416666666666667;"/><line style="stroke:#446E9B;stroke-width:3.125;" x1="735.4167" x2="735.4167" y1="335.6527" y2="356.486"/><polygon fill="#446E9B" points="731.25,346.0693,735.4167,356.486,739.5833,346.0693,735.4167,350.236" style="stroke:#446E9B;stroke-width:1.0416666666666667;"/><line style="stroke:#446E9B;stroke-width:3.125;" x1="519.2708" x2="519.2708" y1="175.4944" y2="196.3277"/><polygon fill="#446E9B" points="515.1042,185.9111,519.2708,196.3277,523.4375,185.9111,519.2708,190.0777" style="stroke:#446E9B;stroke-width:1.0416666666666667;"/><line style="stroke:#446E9B;stroke-width:3.125;" x1="519.2708" x2="519.2708" y1="362.736" y2="383.5693"/><polygon fill="#446E9B" points="515.1042,373.1527,519.2708,383.5693,523.4375,373.1527,519.2708,377.3193" style="stroke:#446E9B;stroke-width:1.0416666666666667;"/><line style="stroke:#446E9B;stroke-width:3.125;" x1="264.5833" x2="264.5833" y1="686.9151" y2="723.2442"/><polygon fill="#446E9B" points="260.4167,712.8276,264.5833,723.2442,268.75,712.8276,264.5833,716.9942" style="stroke:#446E9B;stroke-width:1.0416666666666667;"/><line style="stroke:#446E9B;stroke-width:3.125;" x1="708.8542" x2="708.8542" y1="507.7026" y2="528.536"/><polygon fill="#446E9B" points="704.6875,518.1193,708.8542,528.536,713.0208,518.1193,708.8542,522.286" style="stroke:#446E9B;stroke-width:1.0416666666666667;"/><line style="stroke:#446E9B;stroke-width:3.125;" x1="708.8542" x2="708.8542" y1="671.4193" y2="707.7484"/><polygon fill="#446E9B" points="704.6875,697.3317,708.8542,707.7484,713.0208,697.3317,708.8542,701.4984" style="stroke:#446E9B;stroke-width:1.0416666666666667;"/><line style="stroke:#446E9B;stroke-width:3.125;" x1="708.8542" x2="708.8542" y1="745.8567" y2="782.3151"/><polygon fill="#446E9B" points="704.6875,771.8984,708.8542,782.3151,713.0208,771.8984,708.8542,776.0651" style="stroke:#446E9B;stroke-width:1.0416666666666667;"/><line style="stroke:#446E9B;stroke-width:3.125;" x1="708.8542" x2="708.8542" y1="835.615" y2="856.4484"/><polygon fill="#446E9B" points="704.6875,846.0317,708.8542,856.4484,713.0208,846.0317,708.8542,850.1984" style="stroke:#446E9B;stroke-width:1.0416666666666667;"/><line style="stroke:#446E9B;stroke-width:3.125;" x1="708.8542" x2="708.8542" y1="612.4776" y2="633.311"/><polygon fill="#446E9B" points="704.6875,622.8943,708.8542,633.311,713.0208,622.8943,708.8542,627.061" style="stroke:#446E9B;stroke-width:1.0416666666666667;"/><line style="stroke:#446E9B;stroke-width:3.125;" x1="889.5833" x2="948.9583" y1="958.5775" y2="958.5775"/><polygon fill="#446E9B" points="944.7917,797.4421,948.9583,787.0255,953.125,797.4421,948.9583,793.2755" style="stroke:#446E9B;stroke-width:3.125;"/><line style="stroke:#446E9B;stroke-width:3.125;" x1="948.9583" x2="948.9583" y1="599.9776" y2="958.5775"/><line style="stroke:#446E9B;stroke-width:3.125;" x1="948.9583" x2="721.3542" y1="599.9776" y2="599.9776"/><polygon fill="#446E9B" points="731.7708,595.811,721.3542,599.9776,731.7708,604.1443,727.6042,599.9776" style="stroke:#446E9B;stroke-width:1.0416666666666667;"/><line style="stroke:#446E9B;stroke-width:3.125;" x1="708.8542" x2="708.8542" y1="924.94" y2="945.7733"/><polygon fill="#446E9B" points="704.6875,935.3566,708.8542,945.7733,713.0208,935.3566,708.8542,939.5233" style="stroke:#446E9B;stroke-width:1.0416666666666667;"/><line style="stroke:#446E9B;stroke-width:3.125;" x1="708.8542" x2="708.8542" y1="566.6443" y2="587.4776"/><polygon fill="#446E9B" points="704.6875,577.061,708.8542,587.4776,713.0208,577.061,708.8542,581.2276" style="stroke:#446E9B;stroke-width:1.0416666666666667;"/><line style="stroke:#446E9B;stroke-width:3.125;" x1="264.5833" x2="264.5833" y1="448.761" y2="648.8068"/><polygon fill="#446E9B" points="260.4167,638.3901,264.5833,648.8068,268.75,638.3901,264.5833,642.5568" style="stroke:#446E9B;stroke-width:1.0416666666666667;"/><line style="stroke:#446E9B;stroke-width:3.125;" x1="708.8542" x2="708.8542" y1="448.761" y2="469.5943"/><polygon fill="#446E9B" points="704.6875,459.1777,708.8542,469.5943,713.0208,459.1777,708.8542,463.3443" style="stroke:#446E9B;stroke-width:1.0416666666666667;"/><line style="stroke:#446E9B;stroke-width:3.125;" x1="264.5833" x2="264.5833" y1="776.5442" y2="992.215"/><polygon fill="#446E9B" points="260.4167,981.7983,264.5833,992.215,268.75,981.7983,264.5833,985.965" style="stroke:#446E9B;stroke-width:1.0416666666666667;"/><line style="stroke:#446E9B;stroke-width:3.125;" x1="708.8542" x2="708.8542" y1="971.3816" y2="992.215"/><polygon fill="#446E9B" points="704.6875,981.7983,708.8542,992.215,713.0208,981.7983,708.8542,985.965" style="stroke:#446E9B;stroke-width:1.0416666666666667;"/><line style="stroke:#446E9B;stroke-width:3.125;" x1="519.2708" x2="519.2708" y1="421.6777" y2="442.511"/><polygon fill="#446E9B" points="515.1042,432.0943,519.2708,442.511,523.4375,432.0943,519.2708,436.261" style="stroke:#446E9B;stroke-width:1.0416666666666667;"/><line style="stroke:#446E9B;stroke-width:3.125;" x1="519.2708" x2="519.2708" y1="998.465" y2="1107.4524"/><polygon fill="#446E9B" points="515.1042,1097.0357,519.2708,1107.4524,523.4375,1097.0357,519.2708,1101.2024" style="stroke:#446E9B;stroke-width:1.0416666666666667;"/><line style="stroke:#446E9B;stroke-width:3.125;" x1="519.2708" x2="519.2708" y1="1145.5607" y2="1299.0814"/><polygon fill="#446E9B" points="515.1042,1288.6648,519.2708,1299.0814,523.4375,1288.6648,519.2708,1292.8314" style="stroke:#446E9B;stroke-width:1.0416666666666667;"/><line style="stroke:#446E9B;stroke-width:3.125;" x1="519.2708" x2="519.2708" y1="1337.1897" y2="1402.5564"/><polygon fill="#446E9B" points="515.1042,1392.1397,519.2708,1402.5564,523.4375,1392.1397,519.2708,1396.3064" style="stroke:#446E9B;stroke-width:1.0416666666666667;"/><line style="stroke:#446E9B;stroke-width:3.125;" x1="519.2708" x2="519.2708" y1="1440.6647" y2="1461.498"/><polygon fill="#446E9B" points="515.1042,1451.0813,519.2708,1461.498,523.4375,1451.0813,519.2708,1455.248" style="stroke:#446E9B;stroke-width:1.0416666666666667;"/><!--SRC=[jLLDJzj04BtlhvWA2GWb0HBe8Nn85Q652b14G1pQ2ctiSRnYlUkkrtpy-ywiOyUe1BZqbCIPUVFclPdn9vzYXb3aCa8jfy8hhn6EfOvABJt2nNXoTuhn34VIoxipuz4zI7ttLMiRIQ-i4OMNpelXcSbB3ySsowLvXbMOeOVHzPsMXGTN6iYTZR0en2y3YRFP-y3x8h7kNWntUajY8LVHFKYjmM5aNHomRrDqnDyXaOyf7AyLjRSA5pPMYMezEghPxNE97VXXbLbMw57v55PsmCkfneeNo9bKHWpx_vzTlqSIl46lfTcSQRzcYYQkH1pquCPm0BSgJGm4MWlydPnQ6LIf0Ns1Tu4-jJ6iZHGruM7nnnhnsYMe47zncy9X_HKsMc5ZT14Q3rkmixtD0XnR6eV3wcDfu4k5Fq3ltCeOhlWHJ5Bfi6BN1qujZVfJ8cX55Mq2ZNndew03AmwHpQRA89G5KgbzuJ0dXnXZ06EsCL6EqjkvgrLc6EKLgXKgxeQAxFcOTa95AgzS6Lld4wk97ZNs6ioSG03PWsyKX3AYTctfuCJ4oinWNStjxa3KR2StphAsUkScGtA-e43f3GMgiTZkfafLXA5UTPH3z3ESNqqOli7wrz4bWRMaZwcYwx8-ibYGfaOLQL1hkI91syvYZlTwC94FMEyKV6GfzeMnXAWnyU8iMLwiEcTIqtR6pu1FD36XGDWbwCB1z2X6ZHuFjgP7WddJxMoOiBFykuN50oQKAT1vCFX8kZJEnNLU3qvqWUz5iG30NOXMBoFBnah8ItBz9cU03MlQ_MsAnW7wiPZtHqNaxLPEPGa-hBR3ejJKhopgIqqMaRJT_c1NvEYelOoMA5FCwcOyERcwXlLA3lWC5VsEOBL8Wp8lFAcOLT8jo0-_zE2KM92Seydrt1UdPYaPKsLMMlzyrzFVBzlahZPRWxm9hSOXa_T8EiqlGTiWV8emztnkc12l6jJ5QD_WqZvqH9UljWd_J_XL1-kd9uDEc3pfQ7swBU95QaiTKmdZwNR1TkDV2uIA58pH3nXKuYs4VeDmoLfruPj2JVcBxkTqmp2tcuwaWMauQJo3a6jwmVDExjBY1OYCxcqOqgcbXV8MLCnFakTNX6eDuD0ZRJhTEthns_ml]--></g></svg>