<?xml version="1.0" encoding="us-ascii" standalone="no"?><svg xmlns="http://www.w3.org/2000/svg" xmlns:xlink="http://www.w3.org/1999/xlink" contentStyleType="text/css" height="708.3333px" preserveAspectRatio="none" style="width:539px;height:708px;" version="1.1" viewBox="0 0 539 708" width="539.5833px" zoomAndPan="magnify"><defs><linearGradient id="g1j1tdddonmllx0" x1="50%" x2="50%" y1="0%" y2="100%"><stop offset="0%" stop-color="#B8B8B8"/><stop offset="100%" stop-color="#999999"/></linearGradient><linearGradient id="g1j1tdddonmllx1" x1="50%" x2="50%" y1="0%" y2="100%"><stop offset="0%" stop-color="#7C9AB9"/><stop offset="100%" stop-color="#304D6D"/></linearGradient></defs><g><rect fill="url(#g1j1tdddonmllx0)" height="48.2361" id="_title" rx="4.1667" ry="4.1667" style="stroke:#6B6B6B;stroke-width:1.0416666666666667;" width="494.7917" x="20.8333" y="20.8333"/><text fill="#304D6D" font-family="Verdana" font-size="20.8333" font-weight="bold" lengthAdjust="spacing" textLength="471.875" x="32.2917" y="53.2369">Calculate MPS_Position_Monthly_by_HE</text><ellipse cx="269.7917" cy="90.9444" fill="#3399F3" rx="10.4167" ry="10.4167" style="stroke:#304D6D;stroke-width:1.0416666666666667;"/><rect fill="url(#g1j1tdddonmllx1)" height="38.1083" rx="4.1667" ry="4.1667" style="stroke:#304D6D;stroke-width:1.0416666666666667;" width="309.375" x="115.1042" y="122.1944"/><text fill="#FFFFFF" font-family="Verdana" font-size="12.5" lengthAdjust="spacing" textLength="286.4583" x="126.5625" y="146.2199">Take all the records in MPS_Position_Hourly</text><rect fill="url(#g1j1tdddonmllx1)" height="38.1083" rx="4.1667" ry="4.1667" style="stroke:#304D6D;stroke-width:1.0416666666666667;" width="401.0417" x="69.2708" y="181.1361"/><text fill="#FFFFFF" font-family="Verdana" font-size="12.5" lengthAdjust="spacing" textLength="378.125" x="80.7292" y="205.1615">Classifying the records by WeekDayType (WkDay/WkEnd)</text><rect fill="url(#g1j1tdddonmllx1)" height="38.1083" rx="4.1667" ry="4.1667" style="stroke:#304D6D;stroke-width:1.0416666666666667;" width="266.6667" x="136.4583" y="240.0777"/><text fill="#FFFFFF" font-family="Verdana" font-size="12.5" lengthAdjust="spacing" textLength="243.75" x="147.9167" y="264.1032">Flag the dates that are NERC Holiday</text><rect fill="url(#g1j1tdddonmllx1)" height="53.3" rx="4.1667" ry="4.1667" style="stroke:#304D6D;stroke-width:1.0416666666666667;" width="370.8333" x="84.375" y="299.0194"/><text fill="#FFFFFF" font-family="Verdana" font-size="12.5" lengthAdjust="spacing" textLength="347.9167" x="95.8333" y="323.0448">WEND = Sunday/Saturday ~ WeekDayType = WkEnd</text><text fill="#FFFFFF" font-family="Verdana" font-size="12.5" lengthAdjust="spacing" textLength="268.75" x="100" y="338.2365">WkDay = Mon~Fri ~ WDAYType = WkDay</text><rect fill="url(#g1j1tdddonmllx1)" height="38.1083" rx="4.1667" ry="4.1667" style="stroke:#304D6D;stroke-width:1.0416666666666667;" width="278.125" x="130.7292" y="373.1527"/><text fill="#FFFFFF" font-family="Verdana" font-size="12.5" lengthAdjust="spacing" textLength="251.0417" x="146.3542" y="397.1781">Find CalenderMonth for all the records</text><rect fill="none" height="231.9499" rx="4.1667" ry="4.1667" style="stroke:#446E9B;stroke-width:1.0416666666666667;" width="486.4583" x="26.5625" y="421.6777"/><path d="M173.4375,421.6777 L173.4375,439.9943 L163.0208,450.411 L26.5625,450.411 " fill="none" style="stroke:#446E9B;stroke-width:1.0416666666666667;"/><text fill="#446E9B" font-family="Verdana" font-size="12.5" lengthAdjust="spacing" textLength="126.0417" x="34.8958" y="440.4948">Calculate and Save</text><rect fill="url(#g1j1tdddonmllx1)" height="53.3" rx="4.1667" ry="4.1667" style="stroke:#304D6D;stroke-width:1.0416666666666667;" width="402.0833" x="68.75" y="468.1193"/><text fill="#FFFFFF" font-family="Verdana" font-size="12.5" lengthAdjust="spacing" textLength="379.1667" x="80.2083" y="492.1448">Group the recordsby Company, Allocated_to_Portfolio_ID,</text><text fill="#FFFFFF" font-family="Verdana" font-size="12.5" lengthAdjust="spacing" textLength="311.4583" x="80.2083" y="507.3364">CalendarMonth, WeekDayType and HourEnding</text><rect fill="url(#g1j1tdddonmllx1)" height="98.8749" rx="4.1667" ry="4.1667" style="stroke:#304D6D;stroke-width:1.0416666666666667;" width="465.625" x="36.9792" y="542.2526"/><text fill="#FFFFFF" font-family="Verdana" font-size="12.5" lengthAdjust="spacing" textLength="170.8333" x="48.4375" y="566.2781">Interval = Count(Records)</text><text fill="#FFFFFF" font-family="Verdana" font-size="12.5" lengthAdjust="spacing" textLength="401.0417" x="48.4375" y="581.4697">LoadMWh = Sum(LoadMWh) | LoadMW = LoadMWh/Intervals</text><text fill="#FFFFFF" font-family="Verdana" font-size="12.5" lengthAdjust="spacing" textLength="442.7083" x="48.4375" y="596.6614">HedgeMWh = Sum(HedgeMWh) | HedgeMW = HedgeMWh/Intervals</text><text fill="#FFFFFF" font-family="Verdana" font-size="12.5" lengthAdjust="spacing" textLength="384.375" x="48.4375" y="611.853">NOPMWh = Sum(NOPMWh) | NOPMW = NOPMWh/Intervals</text><text fill="#FFFFFF" font-family="Verdana" font-size="12.5" lengthAdjust="spacing" textLength="297.9167" x="48.4375" y="627.0447">Cost = Sum(Cost) | UnitCost = Cost/Intervals</text><ellipse cx="269.7917" cy="685.9192" fill="none" rx="11.4583" ry="11.4583" style="stroke:#304D6D;stroke-width:1.0416666666666667;"/><ellipse cx="269.7917" cy="685.9192" fill="none" rx="6.25" ry="6.25" style="stroke:#304D6D;stroke-width:1.0416666666666667;"/><line style="stroke:#446E9B;stroke-width:3.125;" x1="269.7917" x2="269.7917" y1="101.3611" y2="122.1944"/><polygon fill="#446E9B" points="265.625,111.7778,269.7917,122.1944,273.9583,111.7778,269.7917,115.9444" style="stroke:#446E9B;stroke-width:1.0416666666666667;"/><line style="stroke:#446E9B;stroke-width:3.125;" x1="269.7917" x2="269.7917" y1="160.3027" y2="181.1361"/><polygon fill="#446E9B" points="265.625,170.7194,269.7917,181.1361,273.9583,170.7194,269.7917,174.8861" style="stroke:#446E9B;stroke-width:1.0416666666666667;"/><line style="stroke:#446E9B;stroke-width:3.125;" x1="269.7917" x2="269.7917" y1="219.2444" y2="240.0777"/><polygon fill="#446E9B" points="265.625,229.6611,269.7917,240.0777,273.9583,229.6611,269.7917,233.8277" style="stroke:#446E9B;stroke-width:1.0416666666666667;"/><line style="stroke:#446E9B;stroke-width:3.125;" x1="269.7917" x2="269.7917" y1="278.186" y2="299.0194"/><polygon fill="#446E9B" points="265.625,288.6027,269.7917,299.0194,273.9583,288.6027,269.7917,292.7694" style="stroke:#446E9B;stroke-width:1.0416666666666667;"/><line style="stroke:#446E9B;stroke-width:3.125;" x1="269.7917" x2="269.7917" y1="352.3193" y2="373.1527"/><polygon fill="#446E9B" points="265.625,362.736,269.7917,373.1527,273.9583,362.736,269.7917,366.9027" style="stroke:#446E9B;stroke-width:1.0416666666666667;"/><line style="stroke:#446E9B;stroke-width:3.125;" x1="269.7917" x2="269.7917" y1="521.4193" y2="542.2526"/><polygon fill="#446E9B" points="265.625,531.8359,269.7917,542.2526,273.9583,531.8359,269.7917,536.0026" style="stroke:#446E9B;stroke-width:1.0416666666666667;"/><line style="stroke:#446E9B;stroke-width:3.125;" x1="269.7917" x2="269.7917" y1="411.261" y2="468.1193"/><polygon fill="#446E9B" points="265.625,457.7026,269.7917,468.1193,273.9583,457.7026,269.7917,461.8693" style="stroke:#446E9B;stroke-width:1.0416666666666667;"/><line style="stroke:#446E9B;stroke-width:3.125;" x1="269.7917" x2="269.7917" y1="641.1275" y2="674.4609"/><polygon fill="#446E9B" points="265.625,664.0442,269.7917,674.4609,273.9583,664.0442,269.7917,668.2109" style="stroke:#446E9B;stroke-width:1.0416666666666667;"/><!--SRC=[NLB1Ri8m3BtdApnE825n1-s0MXYJ1aF0LErK6M96H4Yg99rKRUFRvxHbm4vvTjwpyvxo40vq8l05xaZZLWGLD462UbTg30JpvJfVMg-2iYQVMnCEkigtLJwR21_G1J7Su940jGQU18vsraaFojmhPxPqkXg9OQBHUxMlbFcu4smho8YEALQRgY3ePX4EikF4o1xBfXeRlkH7UKOO01t1Oh9AO6QraXYdPvD52e-mBWtNWpM6qZ60yztiHwZ72gXtSCcspbEd8YqTl_znqdeaJ9MHCH0oaboT0Eoj- -zu94J1STHkeNFD3rcyna_gm9U0uPEpPN4hOzk9FHLegZwCjROxriWyM4xEXJtxilbpsXVjVcpsz-_in0qnNhR4eV8xOFXi0hbFr6mZiQK9tLMphIVWnQASPuSwf5EthNhmtLvml-qDBaEyW1d93xggBcMKjPXlBjrRuU9rUPKrHHJLYBjDvrQGM1zQUeIH_6PKQDlnkB97ueV_e2r-0G00]--></g></svg>