<?xml version="1.0" encoding="us-ascii" standalone="no"?><svg xmlns="http://www.w3.org/2000/svg" xmlns:xlink="http://www.w3.org/1999/xlink" contentStyleType="text/css" height="1301.0417px" preserveAspectRatio="none" style="width:1836px;height:1301px;" version="1.1" viewBox="0 0 1836 1301" width="1836.4583px" zoomAndPan="magnify"><defs><linearGradient id="gjp5qaiddrdjk0" x1="50%" x2="50%" y1="0%" y2="100%"><stop offset="0%" stop-color="#B8B8B8"/><stop offset="100%" stop-color="#999999"/></linearGradient><linearGradient id="gjp5qaiddrdjk1" x1="50%" x2="50%" y1="0%" y2="100%"><stop offset="0%" stop-color="#70B8F7"/><stop offset="100%" stop-color="#246BAA"/></linearGradient><linearGradient id="gjp5qaiddrdjk2" x1="50%" x2="50%" y1="0%" y2="100%"><stop offset="0%" stop-color="#7C9AB9"/><stop offset="100%" stop-color="#304D6D"/></linearGradient><linearGradient id="gjp5qaiddrdjk3" x1="50%" x2="50%" y1="0%" y2="100%"><stop offset="0%" stop-color="#B8B8B8"/><stop offset="100%" stop-color="#6B6B6B"/></linearGradient></defs><g><rect fill="url(#gjp5qaiddrdjk0)" height="48.2361" id="_title" rx="4.1667" ry="4.1667" style="stroke:#6B6B6B;stroke-width:1.0416666666666667;" width="570.8333" x="631.25" y="20.8333"/><text fill="#304D6D" font-family="Verdana" font-size="20.8333" font-weight="bold" lengthAdjust="spacing" textLength="547.9167" x="642.7083" y="53.2369">Process for calculating and saving LMP Scalars</text><ellipse cx="1055.2083" cy="90.9444" fill="#3399F3" rx="10.4167" ry="10.4167" style="stroke:#304D6D;stroke-width:1.0416666666666667;"/><path d="M1250.5208,130.8319 L1250.5208,144.6777 L1229.6875,148.8444 L1250.5208,153.0111 L1250.5208,166.8569 A0,0 0 0 0 1250.5208,166.8569 L1351.5625,166.8569 A0,0 0 0 0 1351.5625,166.8569 L1351.5625,141.2486 L1341.1458,130.8319 L1250.5208,130.8319 A0,0 0 0 0 1250.5208,130.8319 " fill="url(#gjp5qaiddrdjk1)" style="stroke:#246BAA;stroke-width:1.0416666666666667;"/><path d="M1341.1458,130.8319 L1341.1458,141.2486 L1351.5625,141.2486 L1341.1458,130.8319 " fill="url(#gjp5qaiddrdjk1)" style="stroke:#246BAA;stroke-width:1.0416666666666667;"/><text fill="#FFFFFF" font-family="Verdana" font-size="12.5" lengthAdjust="spacing" textLength="68.75" x="1261.9792" y="153.8157">MPS_Zone</text><rect fill="url(#gjp5qaiddrdjk2)" height="53.3" rx="4.1667" ry="4.1667" style="stroke:#304D6D;stroke-width:1.0416666666666667;" width="348.9583" x="880.7292" y="122.1944"/><text fill="#FFFFFF" font-family="Verdana" font-size="12.5" lengthAdjust="spacing" textLength="41.6667" x="892.1875" y="146.2199">Get all</text><text fill="#FFFFFF" font-family="Verdana" font-size="12.5" font-weight="bold" lengthAdjust="spacing" textLength="110.4167" x="938.0208" y="146.2199">Market Location</text><text fill="#FFFFFF" font-family="Verdana" font-size="12.5" lengthAdjust="spacing" textLength="165.625" x="1052.6042" y="146.2199">for which Scalars need to</text><text fill="#FFFFFF" font-family="Verdana" font-size="12.5" lengthAdjust="spacing" textLength="86.4583" x="892.1875" y="161.4115">be calculated</text><rect fill="url(#gjp5qaiddrdjk2)" height="38.1083" rx="4.1667" ry="4.1667" style="stroke:#304D6D;stroke-width:1.0416666666666667;" width="462.5" x="823.9583" y="196.3277"/><text fill="#FFFFFF" font-family="Verdana" font-size="12.5" lengthAdjust="spacing" textLength="22.9167" x="835.4167" y="220.3532">Get</text><text fill="#FFFFFF" font-family="Verdana" font-size="12.5" font-weight="bold" lengthAdjust="spacing" textLength="110.4167" x="862.5" y="220.3532">Version Number</text><text fill="#FFFFFF" font-family="Verdana" font-size="12.5" lengthAdjust="spacing" textLength="297.9167" x="977.0833" y="220.3532">= max(VersionNumber) from MPS_LMP_Scalar</text><rect fill="url(#gjp5qaiddrdjk2)" height="53.3" rx="4.1667" ry="4.1667" style="stroke:#304D6D;stroke-width:1.0416666666666667;" width="316.6667" x="896.875" y="255.2694"/><text fill="#FFFFFF" font-family="Verdana" font-size="12.5" lengthAdjust="spacing" textLength="112.5" x="908.3333" y="279.2948">Get the values of</text><text fill="#FFFFFF" font-family="Verdana" font-size="12.5" font-weight="bold" lengthAdjust="spacing" textLength="177.0833" x="1025" y="279.2948">ScalarLookBackStartDate</text><text fill="#FFFFFF" font-family="Verdana" font-size="12.5" lengthAdjust="spacing" textLength="25" x="908.3333" y="294.4865">and</text><text fill="#FFFFFF" font-family="Verdana" font-size="12.5" font-weight="bold" lengthAdjust="spacing" textLength="167.7083" x="937.5" y="294.4865">ScalarLookBackEndDate</text><path d="M1140.625,364.8193 L1140.625,401.4526 L1119.7917,405.6193 L1140.625,409.786 L1140.625,446.4193 A0,0 0 0 0 1140.625,446.4193 L1401.0417,446.4193 A0,0 0 0 0 1401.0417,446.4193 L1401.0417,375.236 L1390.625,364.8193 L1140.625,364.8193 A0,0 0 0 0 1140.625,364.8193 " fill="url(#gjp5qaiddrdjk1)" style="stroke:#246BAA;stroke-width:1.0416666666666667;"/><path d="M1390.625,364.8193 L1390.625,375.236 L1401.0417,375.236 L1390.625,364.8193 " fill="url(#gjp5qaiddrdjk1)" style="stroke:#246BAA;stroke-width:1.0416666666666667;"/><text fill="#FFFFFF" font-family="Verdana" font-size="12.5" lengthAdjust="spacing" textLength="72.9167" x="1152.0833" y="387.8031">Ref Step 1:</text><text fill="#FFFFFF" font-family="Verdana" font-size="12.5" lengthAdjust="spacing" textLength="202.0833" x="1152.0833" y="402.9948">No need to take the ISO that's</text><text fill="#FFFFFF" font-family="Verdana" font-size="12.5" lengthAdjust="spacing" textLength="228.125" x="1152.0833" y="418.1864">didn't have MktLocation configured</text><text fill="#FFFFFF" font-family="Verdana" font-size="12.5" lengthAdjust="spacing" textLength="88.5417" x="1152.0833" y="433.3781">in the system</text><rect fill="url(#gjp5qaiddrdjk2)" height="38.1083" rx="4.1667" ry="4.1667" style="stroke:#304D6D;stroke-width:1.0416666666666667;" width="129.1667" x="990.625" y="386.5651"/><text fill="#FFFFFF" font-family="Verdana" font-size="12.5" lengthAdjust="spacing" textLength="106.25" x="1002.0833" y="410.5906">Get the first ISO</text><path d="M1233.3333,483.4859 L1233.3333,497.3317 L1212.5,501.4984 L1233.3333,505.6651 L1233.3333,519.5109 A0,0 0 0 0 1233.3333,519.5109 L1484.375,519.5109 A0,0 0 0 0 1484.375,519.5109 L1484.375,493.9026 L1473.9583,483.4859 L1233.3333,483.4859 A0,0 0 0 0 1233.3333,483.4859 " fill="url(#gjp5qaiddrdjk1)" style="stroke:#246BAA;stroke-width:1.0416666666666667;"/><path d="M1473.9583,483.4859 L1473.9583,493.9026 L1484.375,493.9026 L1473.9583,483.4859 " fill="url(#gjp5qaiddrdjk1)" style="stroke:#246BAA;stroke-width:1.0416666666666667;"/><text fill="#FFFFFF" font-family="Verdana" font-size="12.5" lengthAdjust="spacing" textLength="218.75" x="1244.7917" y="506.4697">Use table MPS_ISO_interval_Map</text><rect fill="url(#gjp5qaiddrdjk2)" height="68.4916" rx="4.1667" ry="4.1667" style="stroke:#304D6D;stroke-width:1.0416666666666667;" width="314.5833" x="897.9167" y="467.2526"/><text fill="#FFFFFF" font-family="Verdana" font-size="12.5" lengthAdjust="spacing" textLength="291.6667" x="909.375" y="491.2781">For the ISO, b/w LBSD adn LBED for each HE</text><text fill="#FFFFFF" font-family="Verdana" font-size="12.5" lengthAdjust="spacing" textLength="271.875" x="909.375" y="506.4697">interval (for all days) get the intervalType</text><text fill="#FFFFFF" font-family="Verdana" font-size="12.5" lengthAdjust="spacing" textLength="210.4167" x="909.375" y="521.6614">(On Peak, Off Peak) designation</text><path d="M1225.5208,572.8109 L1225.5208,586.6567 L1204.6875,590.8234 L1225.5208,594.99 L1225.5208,608.8359 A0,0 0 0 0 1225.5208,608.8359 L1382.8125,608.8359 A0,0 0 0 0 1382.8125,608.8359 L1382.8125,583.2275 L1372.3958,572.8109 L1225.5208,572.8109 A0,0 0 0 0 1225.5208,572.8109 " fill="url(#gjp5qaiddrdjk1)" style="stroke:#246BAA;stroke-width:1.0416666666666667;"/><path d="M1372.3958,572.8109 L1372.3958,583.2275 L1382.8125,583.2275 L1372.3958,572.8109 " fill="url(#gjp5qaiddrdjk1)" style="stroke:#246BAA;stroke-width:1.0416666666666667;"/><text fill="#FFFFFF" font-family="Verdana" font-size="12.5" lengthAdjust="spacing" textLength="125" x="1236.9792" y="595.7947">Use DWData views</text><rect fill="url(#gjp5qaiddrdjk2)" height="68.4916" rx="4.1667" ry="4.1667" style="stroke:#304D6D;stroke-width:1.0416666666666667;" width="298.9583" x="905.7292" y="556.5776"/><text fill="#FFFFFF" font-family="Verdana" font-size="12.5" lengthAdjust="spacing" textLength="276.0417" x="917.1875" y="580.603">For the ISO, get hourly DA LMP and hourly</text><text fill="#FFFFFF" font-family="Verdana" font-size="12.5" lengthAdjust="spacing" textLength="256.25" x="917.1875" y="595.7947">RT LMP values for all MktLocation for all</text><text fill="#FFFFFF" font-family="Verdana" font-size="12.5" lengthAdjust="spacing" textLength="204.1667" x="917.1875" y="610.9863">dates between LBSD and LBED</text><rect fill="none" height="490.3748" rx="4.1667" ry="4.1667" style="stroke:#446E9B;stroke-width:1.0416666666666667;" width="1785.4167" x="11.4583" y="635.4858"/><path d="M191.6667,635.4858 L191.6667,653.8025 L181.25,664.2192 L11.4583,664.2192 " fill="none" style="stroke:#446E9B;stroke-width:1.0416666666666667;"/><text fill="#446E9B" font-family="Verdana" font-size="12.5" font-weight="bold" lengthAdjust="spacing" textLength="159.375" x="19.7917" y="654.303">Process Options Scalar</text><path d="M32.2917,872.0357 L32.2917,923.2524 L313.5417,923.2524 L313.5417,882.4524 L303.125,872.0357 L32.2917,872.0357 " fill="url(#gjp5qaiddrdjk1)" style="stroke:#246BAA;stroke-width:1.0416666666666667;"/><path d="M303.125,872.0357 L303.125,882.4524 L313.5417,882.4524 L303.125,872.0357 " fill="url(#gjp5qaiddrdjk1)" style="stroke:#246BAA;stroke-width:1.0416666666666667;"/><text fill="#FFFFFF" font-family="Verdana" font-size="12.5" lengthAdjust="spacing" textLength="5.2083" x="43.75" y="895.0195">-</text><text fill="#FFFFFF" font-family="Verdana" font-size="12.5" font-weight="bold" lengthAdjust="spacing" textLength="117.7083" x="53.125" y="895.0195">*Month(number)</text><text fill="#FFFFFF" font-family="Verdana" font-size="12.5" lengthAdjust="spacing" textLength="91.6667" x="175" y="895.0195">is informed by</text><text fill="#FFFFFF" font-family="Verdana" font-size="12.5" lengthAdjust="spacing" textLength="248.9583" x="43.75" y="910.2112">[MPS_ISO_Interval_Map].[Date] fields</text><rect fill="#3CB521" height="6.25" rx="2.6042" ry="2.6042" style="stroke:#3CB521;stroke-width:1.0416666666666667;" width="1462.5" x="323.9583" y="681.9275"/><rect fill="url(#gjp5qaiddrdjk2)" height="38.1083" rx="4.1667" ry="4.1667" style="stroke:#304D6D;stroke-width:1.0416666666666667;" width="239.5833" x="567.7083" y="709.0108"/><text fill="#FFFFFF" font-family="Verdana" font-size="12.5" font-weight="bold" lengthAdjust="spacing" textLength="68.75" x="579.1667" y="733.0363">'On-Peak'</text><text fill="#FFFFFF" font-family="Verdana" font-size="12.5" lengthAdjust="spacing" textLength="25" x="652.0833" y="733.0363">and</text><text fill="#FFFFFF" font-family="Verdana" font-size="12.5" font-weight="bold" lengthAdjust="spacing" textLength="70.8333" x="681.25" y="733.0363">'Off-Peak'</text><text fill="#FFFFFF" font-family="Verdana" font-size="12.5" lengthAdjust="spacing" textLength="39.5833" x="756.25" y="733.0363">Scalar</text><rect fill="#3CB521" height="6.25" rx="2.6042" ry="2.6042" style="stroke:#3CB521;stroke-width:1.0416666666666667;" width="704.1667" x="336.4583" y="775.5483"/><rect fill="url(#gjp5qaiddrdjk2)" height="159.6415" rx="4.1667" ry="4.1667" style="stroke:#304D6D;stroke-width:1.0416666666666667;" width="323.9583" x="348.9583" y="802.6316"/><text fill="#FFFFFF" font-family="Verdana" font-size="12.5" lengthAdjust="spacing" textLength="85.4167" x="360.4167" y="826.6571">7.1 Calculate</text><text fill="#FFFFFF" font-family="Verdana" font-size="12.5" font-weight="bold" lengthAdjust="spacing" textLength="130.2083" x="450" y="826.6571">MonthlyHEAverage</text><text fill="#FFFFFF" font-family="Verdana" font-size="12.5" font-style="italic" lengthAdjust="spacing" textLength="131.25" x="360.4167" y="841.8488">Group the records by</text><text fill="#FFFFFF" font-family="Verdana" font-size="12.5" lengthAdjust="spacing" textLength="118.75" x="360.4167" y="857.0404">- Month(number)*</text><text fill="#FFFFFF" font-family="Verdana" font-size="12.5" lengthAdjust="spacing" textLength="85.4167" x="360.4167" y="872.2321">- HourEnding</text><text fill="#FFFFFF" font-family="Verdana" font-size="12.5" lengthAdjust="spacing" textLength="223.9583" x="360.4167" y="887.4237">- IntervalType (On-Peak/Off-Peak)</text><text fill="#FFFFFF" font-family="Verdana" font-size="12.5" lengthAdjust="spacing" textLength="87.5" x="360.4167" y="902.6154">- MktLocation</text><text fill="#FFFFFF" font-family="Verdana" font-size="12.5" lengthAdjust="spacing" textLength="165.625" x="360.4167" y="917.807">- SettlementType (DA/RT)</text><text fill="#FFFFFF" font-family="Verdana" font-size="12.5" lengthAdjust="spacing" textLength="301.0417" x="360.4167" y="932.9987">When grouping, Use AVG for aggregating LMP</text><text fill="#FFFFFF" font-family="Verdana" font-size="12.5" lengthAdjust="spacing" textLength="4.1667" x="360.4167" y="948.1903">&#160;</text><rect fill="url(#gjp5qaiddrdjk2)" height="144.4499" rx="4.1667" ry="4.1667" style="stroke:#304D6D;stroke-width:1.0416666666666667;" width="323.9583" x="702.0833" y="810.2275"/><text fill="#FFFFFF" font-family="Verdana" font-size="12.5" lengthAdjust="spacing" textLength="93.75" x="713.5417" y="834.2529">7.2 Calculated</text><text fill="#FFFFFF" font-family="Verdana" font-size="12.5" font-weight="bold" lengthAdjust="spacing" textLength="200" x="811.4583" y="834.2529">MonthlyIntervalTypeAverage</text><text fill="#FFFFFF" font-family="Verdana" font-size="12.5" font-style="italic" lengthAdjust="spacing" textLength="131.25" x="713.5417" y="849.4446">Group the records by</text><text fill="#FFFFFF" font-family="Verdana" font-size="12.5" lengthAdjust="spacing" textLength="118.75" x="713.5417" y="864.6362">- Month(number)*</text><text fill="#FFFFFF" font-family="Verdana" font-size="12.5" lengthAdjust="spacing" textLength="223.9583" x="713.5417" y="879.8279">- IntervalType (On-Peak/Off-Peak)</text><text fill="#FFFFFF" font-family="Verdana" font-size="12.5" lengthAdjust="spacing" textLength="87.5" x="713.5417" y="895.0195">- MktLocation</text><text fill="#FFFFFF" font-family="Verdana" font-size="12.5" lengthAdjust="spacing" textLength="165.625" x="713.5417" y="910.2112">- SettlementType (DA/RT)</text><text fill="#FFFFFF" font-family="Verdana" font-size="12.5" lengthAdjust="spacing" textLength="301.0417" x="713.5417" y="925.4028">When grouping, Use AVG for aggregating LMP</text><text fill="#FFFFFF" font-family="Verdana" font-size="12.5" lengthAdjust="spacing" textLength="4.1667" x="713.5417" y="940.5945">&#160;</text><rect fill="#3CB521" height="6.25" rx="2.6042" ry="2.6042" style="stroke:#3CB521;stroke-width:1.0416666666666667;" width="704.1667" x="336.4583" y="983.1065"/><rect fill="url(#gjp5qaiddrdjk2)" height="68.4916" rx="4.1667" ry="4.1667" style="stroke:#304D6D;stroke-width:1.0416666666666667;" width="401.0417" x="486.9792" y="1017.7856"/><text fill="#FFFFFF" font-family="Verdana" font-size="12.5" lengthAdjust="spacing" textLength="93.75" x="498.4375" y="1041.8111">7.3 Calculated</text><text fill="#FFFFFF" font-family="Verdana" font-size="12.5" font-weight="bold" lengthAdjust="spacing" textLength="82.2917" x="596.3542" y="1041.8111">ScalarValue</text><text fill="#FFFFFF" font-family="Verdana" font-size="12.5" lengthAdjust="spacing" textLength="378.125" x="498.4375" y="1057.0028">Divide MonthlyHEAverage by MonthlyIntervalTypeAverage</text><text fill="#FFFFFF" font-family="Verdana" font-size="12.5" lengthAdjust="spacing" textLength="4.1667" x="498.4375" y="1072.1944">&#160;</text><rect fill="url(#gjp5qaiddrdjk2)" height="38.1083" rx="4.1667" ry="4.1667" style="stroke:#304D6D;stroke-width:1.0416666666666667;" width="101.0417" x="1372.3958" y="716.6066"/><text fill="#FFFFFF" font-family="Verdana" font-size="12.5" font-weight="bold" lengthAdjust="spacing" textLength="27.0833" x="1383.8542" y="740.6321">ATC</text><text fill="#FFFFFF" font-family="Verdana" font-size="12.5" lengthAdjust="spacing" textLength="46.875" x="1415.1042" y="740.6321">Scalars</text><rect fill="#3CB521" height="6.25" rx="2.6042" ry="2.6042" style="stroke:#3CB521;stroke-width:1.0416666666666667;" width="704.1667" x="1069.7917" y="783.1441"/><rect fill="url(#gjp5qaiddrdjk2)" height="144.4499" rx="4.1667" ry="4.1667" style="stroke:#304D6D;stroke-width:1.0416666666666667;" width="323.9583" x="1084.375" y="810.2275"/><text fill="#FFFFFF" font-family="Verdana" font-size="12.5" lengthAdjust="spacing" textLength="93.75" x="1095.8333" y="834.2529">8.1 Calculated</text><text fill="#FFFFFF" font-family="Verdana" font-size="12.5" font-weight="bold" lengthAdjust="spacing" textLength="200" x="1193.75" y="834.2529">MonthlyIntervalTypeAverage</text><text fill="#FFFFFF" font-family="Verdana" font-size="12.5" font-style="italic" lengthAdjust="spacing" textLength="131.25" x="1095.8333" y="849.4446">Group the records by</text><text fill="#FFFFFF" font-family="Verdana" font-size="12.5" lengthAdjust="spacing" textLength="118.75" x="1095.8333" y="864.6362">- Month(number)*</text><text fill="#FFFFFF" font-family="Verdana" font-size="12.5" lengthAdjust="spacing" textLength="85.4167" x="1095.8333" y="879.8279">- HourEnding</text><text fill="#FFFFFF" font-family="Verdana" font-size="12.5" lengthAdjust="spacing" textLength="87.5" x="1095.8333" y="895.0195">- MktLocation</text><text fill="#FFFFFF" font-family="Verdana" font-size="12.5" lengthAdjust="spacing" textLength="165.625" x="1095.8333" y="910.2112">- SettlementType (DA/RT)</text><text fill="#FFFFFF" font-family="Verdana" font-size="12.5" lengthAdjust="spacing" textLength="301.0417" x="1095.8333" y="925.4028">When grouping, Use AVG for aggregating LMP</text><text fill="#FFFFFF" font-family="Verdana" font-size="12.5" lengthAdjust="spacing" textLength="4.1667" x="1095.8333" y="940.5945">&#160;</text><rect fill="url(#gjp5qaiddrdjk2)" height="144.4499" rx="4.1667" ry="4.1667" style="stroke:#304D6D;stroke-width:1.0416666666666667;" width="323.9583" x="1437.5" y="810.2275"/><text fill="#FFFFFF" font-family="Verdana" font-size="12.5" lengthAdjust="spacing" textLength="93.75" x="1448.9583" y="834.2529">8.2 Calculated</text><text fill="#FFFFFF" font-family="Verdana" font-size="12.5" font-weight="bold" lengthAdjust="spacing" textLength="200" x="1546.875" y="834.2529">MonthlyIntervalTypeAverage</text><text fill="#FFFFFF" font-family="Verdana" font-size="12.5" font-style="italic" lengthAdjust="spacing" textLength="131.25" x="1448.9583" y="849.4446">Group the records by</text><text fill="#FFFFFF" font-family="Verdana" font-size="12.5" lengthAdjust="spacing" textLength="118.75" x="1448.9583" y="864.6362">- Month(number)*</text><text fill="#FFFFFF" font-family="Verdana" font-size="12.5" lengthAdjust="spacing" textLength="85.4167" x="1448.9583" y="879.8279">- HourEnding</text><text fill="#FFFFFF" font-family="Verdana" font-size="12.5" lengthAdjust="spacing" textLength="87.5" x="1448.9583" y="895.0195">- MktLocation</text><text fill="#FFFFFF" font-family="Verdana" font-size="12.5" lengthAdjust="spacing" textLength="165.625" x="1448.9583" y="910.2112">- SettlementType (DA/RT)</text><text fill="#FFFFFF" font-family="Verdana" font-size="12.5" lengthAdjust="spacing" textLength="301.0417" x="1448.9583" y="925.4028">When grouping, Use AVG for aggregating LMP</text><text fill="#FFFFFF" font-family="Verdana" font-size="12.5" lengthAdjust="spacing" textLength="4.1667" x="1448.9583" y="940.5945">&#160;</text><rect fill="#3CB521" height="6.25" rx="2.6042" ry="2.6042" style="stroke:#3CB521;stroke-width:1.0416666666666667;" width="704.1667" x="1069.7917" y="975.5107"/><rect fill="url(#gjp5qaiddrdjk2)" height="68.4916" rx="4.1667" ry="4.1667" style="stroke:#304D6D;stroke-width:1.0416666666666667;" width="401.0417" x="1222.3958" y="1010.1898"/><text fill="#FFFFFF" font-family="Verdana" font-size="12.5" lengthAdjust="spacing" textLength="93.75" x="1233.8542" y="1034.2153">8.3 Calculated</text><text fill="#FFFFFF" font-family="Verdana" font-size="12.5" font-weight="bold" lengthAdjust="spacing" textLength="82.2917" x="1331.7708" y="1034.2153">ScalarValue</text><text fill="#FFFFFF" font-family="Verdana" font-size="12.5" lengthAdjust="spacing" textLength="378.125" x="1233.8542" y="1049.4069">Divide MonthlyHEAverage by MonthlyIntervalTypeAverage</text><text fill="#FFFFFF" font-family="Verdana" font-size="12.5" lengthAdjust="spacing" textLength="4.1667" x="1233.8542" y="1064.5986">&#160;</text><rect fill="#3CB521" height="6.25" rx="2.6042" ry="2.6042" style="stroke:#3CB521;stroke-width:1.0416666666666667;" width="1462.5" x="323.9583" y="1107.1106"/><polygon fill="url(#gjp5qaiddrdjk3)" points="1055.2083,329.4027,1067.7083,341.9027,1055.2083,354.4027,1042.7083,341.9027,1055.2083,329.4027" style="stroke:#6B6B6B;stroke-width:1.0416666666666667;"/><polygon fill="url(#gjp5qaiddrdjk3)" points="988.0208,1146.6939,1122.3958,1146.6939,1134.8958,1159.4981,1122.3958,1172.3022,988.0208,1172.3022,975.5208,1159.4981,988.0208,1146.6939" style="stroke:#6B6B6B;stroke-width:1.0416666666666667;"/><text fill="#FFFFFF" font-family="Verdana" font-size="12.5" lengthAdjust="spacing" textLength="40.625" x="993.2292" y="1164.4694">Are all</text><text fill="#FFFFFF" font-family="Verdana" font-size="12.5" font-weight="bold" lengthAdjust="spacing" textLength="34.375" x="1038.0208" y="1164.4694">ISOs</text><text fill="#FFFFFF" font-family="Verdana" font-size="12.5" lengthAdjust="spacing" textLength="40.625" x="1076.5625" y="1164.4694">done?</text><rect fill="url(#gjp5qaiddrdjk2)" height="53.3" rx="4.1667" ry="4.1667" style="stroke:#304D6D;stroke-width:1.0416666666666667;" width="239.5833" x="935.4167" y="1193.1356"/><text fill="#FFFFFF" font-family="Verdana" font-size="12.5" lengthAdjust="spacing" textLength="196.875" x="946.875" y="1217.1611">9.0 Save the calculated Scalar</text><text fill="#FFFFFF" font-family="Verdana" font-size="12.5" lengthAdjust="spacing" textLength="216.6667" x="946.875" y="1232.3527">values in table MPS_LMP_Scalars</text><ellipse cx="1055.2083" cy="1278.7272" fill="none" rx="11.4583" ry="11.4583" style="stroke:#304D6D;stroke-width:1.0416666666666667;"/><ellipse cx="1055.2083" cy="1278.7272" fill="none" rx="6.25" ry="6.25" style="stroke:#304D6D;stroke-width:1.0416666666666667;"/><line style="stroke:#446E9B;stroke-width:3.125;" x1="1055.2083" x2="1055.2083" y1="101.3611" y2="122.1944"/><polygon fill="#446E9B" points="1051.0417,111.7778,1055.2083,122.1944,1059.375,111.7778,1055.2083,115.9444" style="stroke:#446E9B;stroke-width:1.0416666666666667;"/><line style="stroke:#446E9B;stroke-width:3.125;" x1="1055.2083" x2="1055.2083" y1="175.4944" y2="196.3277"/><polygon fill="#446E9B" points="1051.0417,185.9111,1055.2083,196.3277,1059.375,185.9111,1055.2083,190.0777" style="stroke:#446E9B;stroke-width:1.0416666666666667;"/><line style="stroke:#446E9B;stroke-width:3.125;" x1="1055.2083" x2="1055.2083" y1="234.436" y2="255.2694"/><polygon fill="#446E9B" points="1051.0417,244.8527,1055.2083,255.2694,1059.375,244.8527,1055.2083,249.0194" style="stroke:#446E9B;stroke-width:1.0416666666666667;"/><line style="stroke:#446E9B;stroke-width:3.125;" x1="1055.2083" x2="1055.2083" y1="424.6735" y2="467.2526"/><polygon fill="#446E9B" points="1051.0417,456.8359,1055.2083,467.2526,1059.375,456.8359,1055.2083,461.0026" style="stroke:#446E9B;stroke-width:1.0416666666666667;"/><line style="stroke:#446E9B;stroke-width:3.125;" x1="1055.2083" x2="1055.2083" y1="535.7442" y2="556.5776"/><polygon fill="#446E9B" points="1051.0417,546.1609,1055.2083,556.5776,1059.375,546.1609,1055.2083,550.3276" style="stroke:#446E9B;stroke-width:1.0416666666666667;"/><line style="stroke:#446E9B;stroke-width:3.125;" x1="510.9375" x2="510.9375" y1="781.7983" y2="802.6316"/><polygon fill="#446E9B" points="506.7708,792.215,510.9375,802.6316,515.1042,792.215,510.9375,796.3816" style="stroke:#446E9B;stroke-width:1.0416666666666667;"/><line style="stroke:#446E9B;stroke-width:3.125;" x1="864.0625" x2="864.0625" y1="781.7983" y2="810.2275"/><polygon fill="#446E9B" points="859.8958,799.8108,864.0625,810.2275,868.2292,799.8108,864.0625,803.9775" style="stroke:#446E9B;stroke-width:1.0416666666666667;"/><line style="stroke:#446E9B;stroke-width:3.125;" x1="510.9375" x2="510.9375" y1="962.2732" y2="983.1065"/><polygon fill="#446E9B" points="506.7708,972.6898,510.9375,983.1065,515.1042,972.6898,510.9375,976.8565" style="stroke:#446E9B;stroke-width:1.0416666666666667;"/><line style="stroke:#446E9B;stroke-width:3.125;" x1="864.0625" x2="864.0625" y1="954.6773" y2="983.1065"/><polygon fill="#446E9B" points="859.8958,972.6898,864.0625,983.1065,868.2292,972.6898,864.0625,976.8565" style="stroke:#446E9B;stroke-width:1.0416666666666667;"/><line style="stroke:#446E9B;stroke-width:3.125;" x1="687.5" x2="687.5" y1="747.1191" y2="775.5483"/><polygon fill="#446E9B" points="683.3333,765.1316,687.5,775.5483,691.6667,765.1316,687.5,769.2983" style="stroke:#446E9B;stroke-width:1.0416666666666667;"/><line style="stroke:#446E9B;stroke-width:3.125;" x1="687.5" x2="687.5" y1="989.3565" y2="1017.7856"/><polygon fill="#446E9B" points="683.3333,1007.369,687.5,1017.7856,691.6667,1007.369,687.5,1011.5356" style="stroke:#446E9B;stroke-width:1.0416666666666667;"/><line style="stroke:#446E9B;stroke-width:3.125;" x1="1246.3542" x2="1246.3542" y1="789.3941" y2="810.2275"/><polygon fill="#446E9B" points="1242.1875,799.8108,1246.3542,810.2275,1250.5208,799.8108,1246.3542,803.9775" style="stroke:#446E9B;stroke-width:1.0416666666666667;"/><line style="stroke:#446E9B;stroke-width:3.125;" x1="1599.4792" x2="1599.4792" y1="789.3941" y2="810.2275"/><polygon fill="#446E9B" points="1595.3125,799.8108,1599.4792,810.2275,1603.6458,799.8108,1599.4792,803.9775" style="stroke:#446E9B;stroke-width:1.0416666666666667;"/><line style="stroke:#446E9B;stroke-width:3.125;" x1="1246.3542" x2="1246.3542" y1="954.6773" y2="975.5107"/><polygon fill="#446E9B" points="1242.1875,965.094,1246.3542,975.5107,1250.5208,965.094,1246.3542,969.2607" style="stroke:#446E9B;stroke-width:1.0416666666666667;"/><line style="stroke:#446E9B;stroke-width:3.125;" x1="1599.4792" x2="1599.4792" y1="954.6773" y2="975.5107"/><polygon fill="#446E9B" points="1595.3125,965.094,1599.4792,975.5107,1603.6458,965.094,1599.4792,969.2607" style="stroke:#446E9B;stroke-width:1.0416666666666667;"/><line style="stroke:#446E9B;stroke-width:3.125;" x1="1422.9167" x2="1422.9167" y1="754.715" y2="783.1441"/><polygon fill="#446E9B" points="1418.75,772.7275,1422.9167,783.1441,1427.0833,772.7275,1422.9167,776.8941" style="stroke:#446E9B;stroke-width:1.0416666666666667;"/><line style="stroke:#446E9B;stroke-width:3.125;" x1="1422.9167" x2="1422.9167" y1="981.7607" y2="1010.1898"/><polygon fill="#446E9B" points="1418.75,999.7732,1422.9167,1010.1898,1427.0833,999.7732,1422.9167,1003.9398" style="stroke:#446E9B;stroke-width:1.0416666666666667;"/><line style="stroke:#446E9B;stroke-width:3.125;" x1="687.5" x2="687.5" y1="688.1775" y2="709.0108"/><polygon fill="#446E9B" points="683.3333,698.5942,687.5,709.0108,691.6667,698.5942,687.5,702.7608" style="stroke:#446E9B;stroke-width:1.0416666666666667;"/><line style="stroke:#446E9B;stroke-width:3.125;" x1="1422.9167" x2="1422.9167" y1="688.1775" y2="716.6066"/><polygon fill="#446E9B" points="1418.75,706.19,1422.9167,716.6066,1427.0833,706.19,1422.9167,710.3566" style="stroke:#446E9B;stroke-width:1.0416666666666667;"/><line style="stroke:#446E9B;stroke-width:3.125;" x1="687.5" x2="687.5" y1="1086.2773" y2="1107.1106"/><polygon fill="#446E9B" points="683.3333,1096.6939,687.5,1107.1106,691.6667,1096.6939,687.5,1100.8606" style="stroke:#446E9B;stroke-width:1.0416666666666667;"/><line style="stroke:#446E9B;stroke-width:3.125;" x1="1422.9167" x2="1422.9167" y1="1078.6814" y2="1107.1106"/><polygon fill="#446E9B" points="1418.75,1096.6939,1422.9167,1107.1106,1427.0833,1096.6939,1422.9167,1100.8606" style="stroke:#446E9B;stroke-width:1.0416666666666667;"/><line style="stroke:#446E9B;stroke-width:3.125;" x1="1055.2083" x2="1055.2083" y1="625.0692" y2="681.9275"/><polygon fill="#446E9B" points="1051.0417,671.5108,1055.2083,681.9275,1059.375,671.5108,1055.2083,675.6775" style="stroke:#446E9B;stroke-width:1.0416666666666667;"/><line style="stroke:#446E9B;stroke-width:3.125;" x1="1055.2083" x2="1055.2083" y1="354.4027" y2="386.5651"/><polygon fill="#446E9B" points="1051.0417,376.1485,1055.2083,386.5651,1059.375,376.1485,1055.2083,380.3151" style="stroke:#446E9B;stroke-width:1.0416666666666667;"/><line style="stroke:#446E9B;stroke-width:3.125;" x1="1134.8958" x2="1809.375" y1="1159.4981" y2="1159.4981"/><polygon fill="#446E9B" points="1805.2083,739.4587,1809.375,729.0421,1813.5417,739.4587,1809.375,735.2921" style="stroke:#446E9B;stroke-width:3.125;"/><line style="stroke:#446E9B;stroke-width:3.125;" x1="1809.375" x2="1809.375" y1="341.9027" y2="1159.4981"/><line style="stroke:#446E9B;stroke-width:3.125;" x1="1809.375" x2="1067.7083" y1="341.9027" y2="341.9027"/><polygon fill="#446E9B" points="1078.125,337.736,1067.7083,341.9027,1078.125,346.0693,1073.9583,341.9027" style="stroke:#446E9B;stroke-width:1.0416666666666667;"/><line style="stroke:#446E9B;stroke-width:3.125;" x1="1055.2083" x2="1055.2083" y1="1113.3606" y2="1146.6939"/><polygon fill="#446E9B" points="1051.0417,1136.2773,1055.2083,1146.6939,1059.375,1136.2773,1055.2083,1140.4439" style="stroke:#446E9B;stroke-width:1.0416666666666667;"/><line style="stroke:#446E9B;stroke-width:3.125;" x1="1055.2083" x2="1055.2083" y1="308.5693" y2="329.4027"/><polygon fill="#446E9B" points="1051.0417,318.986,1055.2083,329.4027,1059.375,318.986,1055.2083,323.1527" style="stroke:#446E9B;stroke-width:1.0416666666666667;"/><line style="stroke:#446E9B;stroke-width:3.125;" x1="1055.2083" x2="1055.2083" y1="1172.3022" y2="1193.1356"/><polygon fill="#446E9B" points="1051.0417,1182.7189,1055.2083,1193.1356,1059.375,1182.7189,1055.2083,1186.8856" style="stroke:#446E9B;stroke-width:1.0416666666666667;"/><line style="stroke:#446E9B;stroke-width:3.125;" x1="1055.2083" x2="1055.2083" y1="1246.4355" y2="1267.2689"/><polygon fill="#446E9B" points="1051.0417,1256.8522,1055.2083,1267.2689,1059.375,1256.8522,1055.2083,1261.0189" style="stroke:#446E9B;stroke-width:1.0416666666666667;"/><!--SRC=[pLPTJzim57tthxZZfHy2ie-7iPOn5Te1Kaihse4qX2edkKsZfdPak-sgQVzzrqxIfA2z3JPUIA_jS-yzv_ZZZPdZ4a6dFC24-yp49a4OAHcWrZ2J2WAU1Ak4crX4m4K8cg_jPtymWZ6DSQMPDbmPrhf40pn9uDG_6t2re5zz6T12AKuz_yo1RUPnC2_MWK0CmKZcuouBXcqcf45GSJGtR30QJxzBWGmfiurdMIZ37IfDo72pMlgeN8BFiEG_wlb05c_0JCabM1WgU9ebRcSWr3ciUR923N9c8RFHlfIBSnuinhQfBbLaiPdj_DcKdWYB2MscC4LkIkXPhBI1w_5mhw5RdC7OO0hlMkn65Wo0uGjqgsW-_UUcfbaOXw9cOCxN28E5ARY4G8fP7AqKXYmMRf7UQeFBaYFM-afSvt27u7iRw9-Fky13GH-zhfC2EIbnrICCWufuWBgDMlr2ljKDYF8-Yl79DaLM7meO8LySmd0sSryD2577aN2rxRNwJLDBt2SxMVgfaca1DHtmjABeNh4sxLokLBA5RiUvp5AVHTZjn4LorOfwg-JaCHQIBXfyD1j4aNTFEBRxPqLsxqb53kiODxeiAoNvOuTvq6mM6sAOseZE7Tni7i1FXyQEh3kQ0odCl2uowpbFnfe8fAAMfBE_PGy55TSLAXwF7woD7iaoc8IL4XWjNB0M8TU6uiYoNNEWkHbhf44bMfWRwCyjj1-jZyVluABON6vhsXgJxLMliqR5eypUTghdNIgvIfqK2WEfGY9mwtbky0ZsUclcmIlIXNO17GXvuBhY5gZdLNj5eOq2grGiZupHqC6pH66obTsETpl9fj_FIS78baPf3i4grhcxp9IE8eLHTZQHCTpqaW0Qvh4eQ7XVqX1MUAWM_3SO-Ly8i2Qgkk33a_OpjzpPdRJhjnklun3XgKEeP_WpMtdE2k7Mi9t9HSMKkisUsFAaQikNrEEPGr_VUoUlvRr_qEk-pKvUt6QxVB_o2zS-AUYAgNSK5eyFEb-rCrz8BuSl3TRwTFmMnlOQjMIMButSd2o_JknbkhkkojS2ULSRcVu6]--></g></svg>