<?xml version="1.0" encoding="us-ascii" standalone="no"?><svg xmlns="http://www.w3.org/2000/svg" xmlns:xlink="http://www.w3.org/1999/xlink" contentStyleType="text/css" height="544.7917px" preserveAspectRatio="none" style="width:2398px;height:544px;" version="1.1" viewBox="0 0 2398 544" width="2398.9583px" zoomAndPan="magnify"><defs><linearGradient id="g1x5htmwrvbkrh0" x1="50%" x2="50%" y1="0%" y2="100%"><stop offset="0%" stop-color="#B8B8B8"/><stop offset="100%" stop-color="#999999"/></linearGradient><linearGradient id="g1x5htmwrvbkrh1" x1="50%" x2="50%" y1="0%" y2="100%"><stop offset="0%" stop-color="#7C9AB9"/><stop offset="100%" stop-color="#304D6D"/></linearGradient><linearGradient id="g1x5htmwrvbkrh2" x1="50%" x2="50%" y1="0%" y2="100%"><stop offset="0%" stop-color="#70B8F7"/><stop offset="100%" stop-color="#246BAA"/></linearGradient><linearGradient id="g1x5htmwrvbkrh3" x1="50%" x2="50%" y1="0%" y2="100%"><stop offset="0%" stop-color="#B8B8B8"/><stop offset="100%" stop-color="#6B6B6B"/></linearGradient></defs><g><rect fill="url(#g1x5htmwrvbkrh0)" height="48.2361" id="_title" rx="4.1667" ry="4.1667" style="stroke:#6B6B6B;stroke-width:1.0416666666666667;" width="461.4583" x="967.1875" y="20.8333"/><text fill="#304D6D" font-family="Verdana" font-size="20.8333" font-weight="bold" lengthAdjust="spacing" textLength="438.5417" x="978.6458" y="53.2369">Bring LMP data from CESDM into MPS</text><ellipse cx="1190.1042" cy="90.9444" fill="#3399F3" rx="10.4167" ry="10.4167" style="stroke:#304D6D;stroke-width:1.0416666666666667;"/><rect fill="#3CB521" height="6.25" rx="2.6042" ry="2.6042" style="stroke:#3CB521;stroke-width:1.0416666666666667;" width="2376.0417" x="11.4583" y="122.1944"/><rect fill="url(#g1x5htmwrvbkrh1)" height="38.1083" rx="4.1667" ry="4.1667" style="stroke:#304D6D;stroke-width:1.0416666666666667;" width="195.8333" x="23.9583" y="149.2778"/><text fill="#FFFFFF" font-family="Verdana" font-size="12.5" lengthAdjust="spacing" textLength="168.75" x="39.5833" y="173.3032">View [ViewLMP_Hrly_PJM]</text><rect fill="url(#g1x5htmwrvbkrh1)" height="38.1083" rx="4.1667" ry="4.1667" style="stroke:#304D6D;stroke-width:1.0416666666666667;" width="419.7917" x="230.2083" y="149.2778"/><text fill="#FFFFFF" font-family="Verdana" font-size="12.5" lengthAdjust="spacing" textLength="392.7083" x="245.8333" y="173.3032">View [ViewLMPDA_Hrly_ERCOT] &amp; [ViewLMPRT_Hrly_ERCOT]</text><rect fill="url(#g1x5htmwrvbkrh1)" height="38.1083" rx="4.1667" ry="4.1667" style="stroke:#304D6D;stroke-width:1.0416666666666667;" width="415.625" x="660.4167" y="149.2778"/><text fill="#FFFFFF" font-family="Verdana" font-size="12.5" lengthAdjust="spacing" textLength="388.5417" x="676.0417" y="173.3032">View [ViewLMPDA_Hrly_ISONE] &amp; [ViewLMPRT_Hrly_ISONE]</text><rect fill="url(#g1x5htmwrvbkrh1)" height="38.1083" rx="4.1667" ry="4.1667" style="stroke:#304D6D;stroke-width:1.0416666666666667;" width="413.5417" x="1105.2083" y="149.2778"/><text fill="#FFFFFF" font-family="Verdana" font-size="12.5" lengthAdjust="spacing" textLength="386.4583" x="1120.8333" y="173.3032">View [ViewLMPDA_Hrly_NYISO] &amp; [ViewLMPRT_Hrly_NYISO]</text><rect fill="url(#g1x5htmwrvbkrh1)" height="38.1083" rx="4.1667" ry="4.1667" style="stroke:#304D6D;stroke-width:1.0416666666666667;" width="401.0417" x="1547.9167" y="149.2778"/><text fill="#FFFFFF" font-family="Verdana" font-size="12.5" lengthAdjust="spacing" textLength="373.9583" x="1563.5417" y="173.3032">View [ViewLMPDA_Hrly_MISO] &amp; [ViewLMPRT_Hrly_MISO]</text><rect fill="url(#g1x5htmwrvbkrh1)" height="38.1083" rx="4.1667" ry="4.1667" style="stroke:#304D6D;stroke-width:1.0416666666666667;" width="415.625" x="1959.375" y="149.2778"/><text fill="#FFFFFF" font-family="Verdana" font-size="12.5" lengthAdjust="spacing" textLength="388.5417" x="1975" y="173.3032">View [ViewLMPDA_Hrly_CAISO] &amp; [ViewLMPRT_Hrly_CAISO]</text><rect fill="#3CB521" height="6.25" rx="2.6042" ry="2.6042" style="stroke:#3CB521;stroke-width:1.0416666666666667;" width="2376.0417" x="11.4583" y="208.2194"/><path d="M1370.3125,224.8861 L1370.3125,306.486 L1674.4792,306.486 L1674.4792,235.3027 L1664.0625,224.8861 L1370.3125,224.8861 " fill="url(#g1x5htmwrvbkrh2)" style="stroke:#246BAA;stroke-width:1.0416666666666667;"/><path d="M1664.0625,224.8861 L1664.0625,235.3027 L1674.4792,235.3027 L1664.0625,224.8861 " fill="url(#g1x5htmwrvbkrh2)" style="stroke:#246BAA;stroke-width:1.0416666666666667;"/><text fill="#FFFFFF" font-family="Verdana" font-size="12.5" lengthAdjust="spacing" textLength="250" x="1381.7708" y="247.8699">For long days if there are more than 2</text><text fill="#FFFFFF" font-family="Verdana" font-size="12.5" lengthAdjust="spacing" textLength="237.5" x="1381.7708" y="263.0615">LMP values for a HE interval, the job</text><text fill="#FFFFFF" font-family="Verdana" font-size="12.5" lengthAdjust="spacing" textLength="271.875" x="1381.7708" y="278.2532">averages the 2 values and upserts in the</text><text fill="#FFFFFF" font-family="Verdana" font-size="12.5" lengthAdjust="spacing" textLength="68.75" x="1381.7708" y="293.4448">MPS table.</text><polygon fill="url(#g1x5htmwrvbkrh3)" points="1022.3958,306.486,1357.8125,306.486,1370.3125,326.886,1357.8125,347.286,1022.3958,347.286,1009.8958,326.886,1022.3958,306.486" style="stroke:#6B6B6B;stroke-width:1.0416666666666667;"/><text fill="#FFFFFF" font-family="Verdana" font-size="12.5" lengthAdjust="spacing" textLength="262.5" x="1027.6042" y="324.2615">Combination of ZoneID,SettlementType,</text><text fill="#FFFFFF" font-family="Verdana" font-size="12.5" lengthAdjust="spacing" textLength="325" x="1027.6042" y="339.4531">FlowDate and HourEnding exist in table MPS_LMP</text><text fill="#FFFFFF" font-family="Verdana" font-size="12.5" lengthAdjust="spacing" textLength="22.9167" x="981.7708" y="319.0531">yes</text><text fill="#FFFFFF" font-family="Verdana" font-size="12.5" lengthAdjust="spacing" textLength="16.6667" x="1375.5208" y="319.0531">no</text><rect fill="url(#g1x5htmwrvbkrh1)" height="38.1083" rx="4.1667" ry="4.1667" style="stroke:#304D6D;stroke-width:1.0416666666666667;" width="237.5" x="880.7292" y="357.7026"/><text fill="#FFFFFF" font-family="Verdana" font-size="12.5" lengthAdjust="spacing" textLength="214.5833" x="892.1875" y="381.7281">update the value of field ISOLMP</text><rect fill="url(#g1x5htmwrvbkrh1)" height="38.1083" rx="4.1667" ry="4.1667" style="stroke:#304D6D;stroke-width:1.0416666666666667;" width="262.5" x="1249.4792" y="357.7026"/><text fill="#FFFFFF" font-family="Verdana" font-size="12.5" lengthAdjust="spacing" textLength="235.4167" x="1265.1042" y="381.7281">Insert into data into MPS_LMP table</text><polygon fill="url(#g1x5htmwrvbkrh3)" points="1190.1042,406.2276,1202.6042,418.7276,1190.1042,431.2276,1177.6042,418.7276,1190.1042,406.2276" style="stroke:#6B6B6B;stroke-width:1.0416666666666667;"/><rect fill="url(#g1x5htmwrvbkrh1)" height="38.1083" rx="4.1667" ry="4.1667" style="stroke:#304D6D;stroke-width:1.0416666666666667;" width="61.4583" x="1159.375" y="452.061"/><text fill="#FFFFFF" font-family="Verdana" font-size="12.5" lengthAdjust="spacing" textLength="38.5417" x="1170.8333" y="476.0864">test 2</text><ellipse cx="1190.1042" cy="522.4609" fill="none" rx="11.4583" ry="11.4583" style="stroke:#304D6D;stroke-width:1.0416666666666667;"/><ellipse cx="1190.1042" cy="522.4609" fill="none" rx="6.25" ry="6.25" style="stroke:#304D6D;stroke-width:1.0416666666666667;"/><line style="stroke:#446E9B;stroke-width:3.125;" x1="121.875" x2="121.875" y1="128.4444" y2="149.2778"/><polygon fill="#446E9B" points="117.7083,138.8611,121.875,149.2778,126.0417,138.8611,121.875,143.0278" style="stroke:#446E9B;stroke-width:1.0416666666666667;"/><line style="stroke:#446E9B;stroke-width:3.125;" x1="440.1042" x2="440.1042" y1="128.4444" y2="149.2778"/><polygon fill="#446E9B" points="435.9375,138.8611,440.1042,149.2778,444.2708,138.8611,440.1042,143.0278" style="stroke:#446E9B;stroke-width:1.0416666666666667;"/><line style="stroke:#446E9B;stroke-width:3.125;" x1="868.2292" x2="868.2292" y1="128.4444" y2="149.2778"/><polygon fill="#446E9B" points="864.0625,138.8611,868.2292,149.2778,872.3958,138.8611,868.2292,143.0278" style="stroke:#446E9B;stroke-width:1.0416666666666667;"/><line style="stroke:#446E9B;stroke-width:3.125;" x1="1311.9792" x2="1311.9792" y1="128.4444" y2="149.2778"/><polygon fill="#446E9B" points="1307.8125,138.8611,1311.9792,149.2778,1316.1458,138.8611,1311.9792,143.0278" style="stroke:#446E9B;stroke-width:1.0416666666666667;"/><line style="stroke:#446E9B;stroke-width:3.125;" x1="1748.4375" x2="1748.4375" y1="128.4444" y2="149.2778"/><polygon fill="#446E9B" points="1744.2708,138.8611,1748.4375,149.2778,1752.6042,138.8611,1748.4375,143.0278" style="stroke:#446E9B;stroke-width:1.0416666666666667;"/><line style="stroke:#446E9B;stroke-width:3.125;" x1="2167.1875" x2="2167.1875" y1="128.4444" y2="149.2778"/><polygon fill="#446E9B" points="2163.0208,138.8611,2167.1875,149.2778,2171.3542,138.8611,2167.1875,143.0278" style="stroke:#446E9B;stroke-width:1.0416666666666667;"/><line style="stroke:#446E9B;stroke-width:3.125;" x1="121.875" x2="121.875" y1="187.3861" y2="208.2194"/><polygon fill="#446E9B" points="117.7083,197.8027,121.875,208.2194,126.0417,197.8027,121.875,201.9694" style="stroke:#446E9B;stroke-width:1.0416666666666667;"/><line style="stroke:#446E9B;stroke-width:3.125;" x1="440.1042" x2="440.1042" y1="187.3861" y2="208.2194"/><polygon fill="#446E9B" points="435.9375,197.8027,440.1042,208.2194,444.2708,197.8027,440.1042,201.9694" style="stroke:#446E9B;stroke-width:1.0416666666666667;"/><line style="stroke:#446E9B;stroke-width:3.125;" x1="868.2292" x2="868.2292" y1="187.3861" y2="208.2194"/><polygon fill="#446E9B" points="864.0625,197.8027,868.2292,208.2194,872.3958,197.8027,868.2292,201.9694" style="stroke:#446E9B;stroke-width:1.0416666666666667;"/><line style="stroke:#446E9B;stroke-width:3.125;" x1="1311.9792" x2="1311.9792" y1="187.3861" y2="208.2194"/><polygon fill="#446E9B" points="1307.8125,197.8027,1311.9792,208.2194,1316.1458,197.8027,1311.9792,201.9694" style="stroke:#446E9B;stroke-width:1.0416666666666667;"/><line style="stroke:#446E9B;stroke-width:3.125;" x1="1748.4375" x2="1748.4375" y1="187.3861" y2="208.2194"/><polygon fill="#446E9B" points="1744.2708,197.8027,1748.4375,208.2194,1752.6042,197.8027,1748.4375,201.9694" style="stroke:#446E9B;stroke-width:1.0416666666666667;"/><line style="stroke:#446E9B;stroke-width:3.125;" x1="2167.1875" x2="2167.1875" y1="187.3861" y2="208.2194"/><polygon fill="#446E9B" points="2163.0208,197.8027,2167.1875,208.2194,2171.3542,197.8027,2167.1875,201.9694" style="stroke:#446E9B;stroke-width:1.0416666666666667;"/><line style="stroke:#446E9B;stroke-width:3.125;" x1="1190.1042" x2="1190.1042" y1="101.3611" y2="122.1944"/><polygon fill="#446E9B" points="1185.9375,111.7778,1190.1042,122.1944,1194.2708,111.7778,1190.1042,115.9444" style="stroke:#446E9B;stroke-width:1.0416666666666667;"/><line style="stroke:#446E9B;stroke-width:3.125;" x1="1009.8958" x2="999.4792" y1="326.886" y2="326.886"/><line style="stroke:#446E9B;stroke-width:3.125;" x1="999.4792" x2="999.4792" y1="326.886" y2="357.7026"/><polygon fill="#446E9B" points="995.3125,347.286,999.4792,357.7026,1003.6458,347.286,999.4792,351.4526" style="stroke:#446E9B;stroke-width:1.0416666666666667;"/><line style="stroke:#446E9B;stroke-width:3.125;" x1="1370.3125" x2="1380.7292" y1="326.886" y2="326.886"/><line style="stroke:#446E9B;stroke-width:3.125;" x1="1380.7292" x2="1380.7292" y1="326.886" y2="357.7026"/><polygon fill="#446E9B" points="1376.5625,347.286,1380.7292,357.7026,1384.8958,347.286,1380.7292,351.4526" style="stroke:#446E9B;stroke-width:1.0416666666666667;"/><line style="stroke:#446E9B;stroke-width:3.125;" x1="999.4792" x2="999.4792" y1="395.811" y2="418.7276"/><line style="stroke:#446E9B;stroke-width:3.125;" x1="999.4792" x2="1177.6042" y1="418.7276" y2="418.7276"/><polygon fill="#446E9B" points="1167.1875,414.561,1177.6042,418.7276,1167.1875,422.8943,1171.3542,418.7276" style="stroke:#446E9B;stroke-width:1.0416666666666667;"/><line style="stroke:#446E9B;stroke-width:3.125;" x1="1380.7292" x2="1380.7292" y1="395.811" y2="418.7276"/><line style="stroke:#446E9B;stroke-width:3.125;" x1="1380.7292" x2="1202.6042" y1="418.7276" y2="418.7276"/><polygon fill="#446E9B" points="1213.0208,414.561,1202.6042,418.7276,1213.0208,422.8943,1208.8542,418.7276" style="stroke:#446E9B;stroke-width:1.0416666666666667;"/><line style="stroke:#446E9B;stroke-width:3.125;" x1="1190.1042" x2="1190.1042" y1="214.4694" y2="306.486"/><polygon fill="#446E9B" points="1185.9375,296.0693,1190.1042,306.486,1194.2708,296.0693,1190.1042,300.236" style="stroke:#446E9B;stroke-width:1.0416666666666667;"/><line style="stroke:#446E9B;stroke-width:3.125;" x1="1190.1042" x2="1190.1042" y1="431.2276" y2="452.061"/><polygon fill="#446E9B" points="1185.9375,441.6443,1190.1042,452.061,1194.2708,441.6443,1190.1042,445.811" style="stroke:#446E9B;stroke-width:1.0416666666666667;"/><line style="stroke:#446E9B;stroke-width:3.125;" x1="1190.1042" x2="1190.1042" y1="490.1693" y2="511.0026"/><polygon fill="#446E9B" points="1185.9375,500.5859,1190.1042,511.0026,1194.2708,500.5859,1190.1042,504.7526" style="stroke:#446E9B;stroke-width:1.0416666666666667;"/><!--SRC=[ZP9DQy9048Rl-okcbw8WFNZKazM8baP5fT0MaKapYTjkTiFkgis_xso2fHI579B3lZFFlFDnvmzK4BWIFqXX8hpqYk3HIft3Sxo253r2Paq1usWpYK5gRo1UROJpQBt8ZFqI0tYHT8RtyEUS_SogQhzwYdV3MWVCKUh_KPDH4nUjnylj3kv_XVNshz06CTyi5z4rH2EqGInUEVOQeX7Q8E8RXBWjO3owGMY4eI2TGZrmcK5dR8f4QlJIQ30Pl1bDyqblGvxtLv3sswgadfWgSvwW9q3EdPcZZNGQLalVqdbU9dXCUD-yq3qNx09VWuPEHQuh1iSo3Pdy12TKHmfbCaag1RR3qMn8EOAEDXmCS-t8-kO-wgEvN4e0DsNg3cGcj66ibVd1Ywcne0mRIh5om7rnDSjk-IkC3SLHGry4HEt1XG40mYmAVBBysAiTVff4u8aivXmJ7lgNXD3viGpcNDtmWGIxQXmzr3CDViJ04q-aF-J3DkKF]--></g></svg>