<?xml version="1.0" encoding="us-ascii" standalone="no"?><svg xmlns="http://www.w3.org/2000/svg" xmlns:xlink="http://www.w3.org/1999/xlink" contentStyleType="text/css" height="927.0833px" preserveAspectRatio="none" style="width:941px;height:927px;" version="1.1" viewBox="0 0 941 927" width="941.6667px" zoomAndPan="magnify"><defs><linearGradient id="g11z24gg4yjybj0" x1="50%" x2="50%" y1="0%" y2="100%"><stop offset="0%" stop-color="#B8B8B8"/><stop offset="100%" stop-color="#999999"/></linearGradient><linearGradient id="g11z24gg4yjybj1" x1="50%" x2="50%" y1="0%" y2="100%"><stop offset="0%" stop-color="#7C9AB9"/><stop offset="100%" stop-color="#304D6D"/></linearGradient><linearGradient id="g11z24gg4yjybj2" x1="50%" x2="50%" y1="0%" y2="100%"><stop offset="0%" stop-color="#70B8F7"/><stop offset="100%" stop-color="#246BAA"/></linearGradient><linearGradient id="g11z24gg4yjybj3" x1="50%" x2="50%" y1="0%" y2="100%"><stop offset="0%" stop-color="#B8B8B8"/><stop offset="100%" stop-color="#6B6B6B"/></linearGradient></defs><g><rect fill="url(#g11z24gg4yjybj0)" height="48.2361" id="_title" rx="4.1667" ry="4.1667" style="stroke:#6B6B6B;stroke-width:1.0416666666666667;" width="388.5417" x="275.1302" y="20.8333"/><text fill="#304D6D" font-family="Verdana" font-size="20.8333" font-weight="bold" lengthAdjust="spacing" textLength="365.625" x="286.5885" y="53.2369">Insert Client LMP Scalar Values</text><ellipse cx="260.4167" cy="90.9444" fill="#3399F3" rx="10.4167" ry="10.4167" style="stroke:#304D6D;stroke-width:1.0416666666666667;"/><rect fill="url(#g11z24gg4yjybj1)" height="38.1083" rx="4.1667" ry="4.1667" style="stroke:#304D6D;stroke-width:1.0416666666666667;" width="128.125" x="196.3542" y="122.1944"/><text fill="#FFFFFF" font-family="Verdana" font-size="12.5" lengthAdjust="spacing" textLength="101.0417" x="211.9792" y="146.2199">Input Company</text><rect fill="url(#g11z24gg4yjybj1)" height="38.1083" rx="4.1667" ry="4.1667" style="stroke:#304D6D;stroke-width:1.0416666666666667;" width="296.875" x="111.9792" y="226.9694"/><text fill="#FFFFFF" font-family="Verdana" font-size="12.5" lengthAdjust="spacing" textLength="269.7917" x="127.6042" y="250.9949">Pick oldest file 'LMPScalars' in sub-folders</text><path d="M528.6458,285.9111 L528.6458,352.3193 L832.8125,352.3193 L832.8125,296.3277 L822.3958,285.9111 L528.6458,285.9111 " fill="url(#g11z24gg4yjybj2)" style="stroke:#246BAA;stroke-width:1.0416666666666667;"/><path d="M822.3958,285.9111 L822.3958,296.3277 L832.8125,296.3277 L822.3958,285.9111 " fill="url(#g11z24gg4yjybj2)" style="stroke:#246BAA;stroke-width:1.0416666666666667;"/><text fill="#FFFFFF" font-family="Verdana" font-size="12.5" lengthAdjust="spacing" textLength="271.875" x="540.1042" y="308.8949">Version number informs all Scalars values</text><text fill="#FFFFFF" font-family="Verdana" font-size="12.5" lengthAdjust="spacing" textLength="220.8333" x="540.1042" y="324.0865">that are created by a process run</text><text fill="#FFFFFF" font-family="Verdana" font-size="12.5" lengthAdjust="spacing" textLength="150" x="540.1042" y="339.2782">(instance) or data load</text><path d="M519.7917,373.1527 L519.7917,454.7526 L841.6667,454.7526 L841.6667,383.5693 L831.25,373.1527 L519.7917,373.1527 " fill="url(#g11z24gg4yjybj2)" style="stroke:#246BAA;stroke-width:1.0416666666666667;"/><path d="M831.25,373.1527 L831.25,383.5693 L841.6667,383.5693 L831.25,373.1527 " fill="url(#g11z24gg4yjybj2)" style="stroke:#246BAA;stroke-width:1.0416666666666667;"/><text fill="#FFFFFF" font-family="Verdana" font-size="12.5" lengthAdjust="spacing" textLength="285.4167" x="531.25" y="396.1365">All records created by process run have the</text><text fill="#FFFFFF" font-family="Verdana" font-size="12.5" lengthAdjust="spacing" textLength="141.6667" x="531.25" y="411.3281">same version number</text><text fill="#FFFFFF" font-family="Verdana" font-size="12.5" lengthAdjust="spacing" textLength="289.5833" x="531.25" y="426.5198">Similiarly, all records created by data upload</text><text fill="#FFFFFF" font-family="Verdana" font-size="12.5" lengthAdjust="spacing" textLength="195.8333" x="531.25" y="441.7114">have the same version numer</text><path d="M535.4167,475.5859 L535.4167,541.9942 L826.0417,541.9942 L826.0417,486.0026 L815.625,475.5859 L535.4167,475.5859 " fill="url(#g11z24gg4yjybj2)" style="stroke:#246BAA;stroke-width:1.0416666666666667;"/><path d="M815.625,475.5859 L815.625,486.0026 L826.0417,486.0026 L815.625,475.5859 " fill="url(#g11z24gg4yjybj2)" style="stroke:#246BAA;stroke-width:1.0416666666666667;"/><text fill="#FFFFFF" font-family="Verdana" font-size="12.5" lengthAdjust="spacing" textLength="258.3333" x="546.875" y="498.5697">If mutilple files are processes by a data</text><text fill="#FFFFFF" font-family="Verdana" font-size="12.5" lengthAdjust="spacing" textLength="28.125" x="546.875" y="513.7614">load</text><text fill="#FFFFFF" font-family="Verdana" font-size="12.5" font-weight="bold" lengthAdjust="spacing" textLength="183.3333" x="579.1667" y="513.7614">each successful file upload</text><text fill="#FFFFFF" font-family="Verdana" font-size="12.5" lengthAdjust="spacing" textLength="184.375" x="546.875" y="528.953">gets a new version number.</text><rect fill="url(#g11z24gg4yjybj1)" height="38.1083" rx="4.1667" ry="4.1667" style="stroke:#304D6D;stroke-width:1.0416666666666667;" width="497.9167" x="11.4583" y="394.8985"/><text fill="#FFFFFF" font-family="Verdana" font-size="12.5" lengthAdjust="spacing" textLength="470.8333" x="27.0833" y="418.924">Set VersionNumer = Select max(VersionNumber) from MPS_LMP_Scalars</text><rect fill="url(#g11z24gg4yjybj1)" height="83.6833" rx="4.1667" ry="4.1667" style="stroke:#304D6D;stroke-width:1.0416666666666667;" width="218.75" x="151.0417" y="573.2442"/><text fill="#FFFFFF" font-family="Verdana" font-size="12.5" font-weight="bold" lengthAdjust="spacing" textLength="127.0833" x="162.5" y="597.2697">Run all Validations</text><text fill="#FFFFFF" font-family="Verdana" font-size="12.5" lengthAdjust="spacing" textLength="195.8333" x="162.5" y="612.4613">- Template column and values</text><text fill="#FFFFFF" font-family="Verdana" font-size="12.5" lengthAdjust="spacing" textLength="84.375" x="162.5" y="627.653">- Data sanity</text><text fill="#FFFFFF" font-family="Verdana" font-size="12.5" lengthAdjust="spacing" textLength="151.0417" x="162.5" y="642.8446">- FeedId determination</text><polygon fill="url(#g11z24gg4yjybj3)" points="165.1042,677.7608,355.7292,677.7608,368.2292,690.565,355.7292,703.3691,165.1042,703.3691,152.6042,690.565,165.1042,677.7608" style="stroke:#6B6B6B;stroke-width:1.0416666666666667;"/><text fill="#FFFFFF" font-family="Verdana" font-size="12.5" lengthAdjust="spacing" textLength="180.2083" x="170.3125" y="695.5363">Did file pass all validations?</text><text fill="#FFFFFF" font-family="Verdana" font-size="12.5" lengthAdjust="spacing" textLength="16.6667" x="130.7292" y="682.7321">no</text><text fill="#FFFFFF" font-family="Verdana" font-size="12.5" lengthAdjust="spacing" textLength="22.9167" x="373.4375" y="682.7321">yes</text><rect fill="url(#g11z24gg4yjybj1)" height="38.1083" rx="4.1667" ry="4.1667" style="stroke:#304D6D;stroke-width:1.0416666666666667;" width="189.5833" x="40.8854" y="713.7858"/><text fill="#FFFFFF" font-family="Verdana" font-size="12.5" lengthAdjust="spacing" textLength="162.5" x="56.5104" y="737.8113">Move the to 'Error' folder</text><path d="M539.8438,713.7858 L539.8438,735.2275 L519.0104,739.3941 L539.8438,743.5608 L539.8438,765.0024 A0,0 0 0 0 539.8438,765.0024 L900.2604,765.0024 A0,0 0 0 0 900.2604,765.0024 L900.2604,724.2025 L889.8438,713.7858 L539.8438,713.7858 A0,0 0 0 0 539.8438,713.7858 " fill="url(#g11z24gg4yjybj2)" style="stroke:#246BAA;stroke-width:1.0416666666666667;"/><path d="M889.8438,713.7858 L889.8438,724.2025 L900.2604,724.2025 L889.8438,713.7858 " fill="url(#g11z24gg4yjybj2)" style="stroke:#246BAA;stroke-width:1.0416666666666667;"/><text fill="#FFFFFF" font-family="Verdana" font-size="12.5" font-style="italic" lengthAdjust="spacing" textLength="328.125" x="551.3021" y="736.7696">MonthHEAverage and MonthIntervalAverage = NULL</text><text fill="#FFFFFF" font-family="Verdana" font-size="12.5" font-style="italic" lengthAdjust="spacing" textLength="237.5" x="551.3021" y="751.9613">VersionNumber = VersionNumber + 1</text><rect fill="url(#g11z24gg4yjybj1)" height="38.1083" rx="4.1667" ry="4.1667" style="stroke:#304D6D;stroke-width:1.0416666666666667;" width="267.7083" x="251.3021" y="720.34"/><text fill="#FFFFFF" font-family="Verdana" font-size="12.5" lengthAdjust="spacing" textLength="240.625" x="266.9271" y="744.3654">Insert data in table MPS_LMP_Scalar</text><polygon fill="url(#g11z24gg4yjybj3)" points="260.4167,775.4191,272.9167,787.9191,260.4167,800.4191,247.9167,787.9191,260.4167,775.4191" style="stroke:#6B6B6B;stroke-width:1.0416666666666667;"/><polygon fill="url(#g11z24gg4yjybj3)" points="260.4167,181.1361,272.9167,193.6361,260.4167,206.1361,247.9167,193.6361,260.4167,181.1361" style="stroke:#6B6B6B;stroke-width:1.0416666666666667;"/><polygon fill="url(#g11z24gg4yjybj3)" points="181.25,821.2524,339.5833,821.2524,352.0833,834.0566,339.5833,846.8608,181.25,846.8608,168.75,834.0566,181.25,821.2524" style="stroke:#6B6B6B;stroke-width:1.0416666666666667;"/><text fill="#FFFFFF" font-family="Verdana" font-size="12.5" lengthAdjust="spacing" textLength="147.9167" x="186.4583" y="839.0279">Exists file in sub-folder</text><text fill="#FFFFFF" font-family="Verdana" font-size="12.5" lengthAdjust="spacing" textLength="22.9167" x="357.2917" y="826.2238">yes</text><ellipse cx="260.4167" cy="904.7607" fill="none" rx="11.4583" ry="11.4583" style="stroke:#304D6D;stroke-width:1.0416666666666667;"/><ellipse cx="260.4167" cy="904.7607" fill="none" rx="6.25" ry="6.25" style="stroke:#304D6D;stroke-width:1.0416666666666667;"/><line style="stroke:#446E9B;stroke-width:3.125;" x1="260.4167" x2="260.4167" y1="101.3611" y2="122.1944"/><polygon fill="#446E9B" points="256.25,111.7778,260.4167,122.1944,264.5833,111.7778,260.4167,115.9444" style="stroke:#446E9B;stroke-width:1.0416666666666667;"/><line style="stroke:#446E9B;stroke-width:3.125;" x1="260.4167" x2="260.4167" y1="265.0777" y2="394.8985"/><polygon fill="#446E9B" points="256.25,384.4818,260.4167,394.8985,264.5833,384.4818,260.4167,388.6485" style="stroke:#446E9B;stroke-width:1.0416666666666667;"/><line style="stroke:#446E9B;stroke-width:3.125;" x1="260.4167" x2="260.4167" y1="433.0068" y2="573.2442"/><polygon fill="#446E9B" points="256.25,562.8276,260.4167,573.2442,264.5833,562.8276,260.4167,566.9942" style="stroke:#446E9B;stroke-width:1.0416666666666667;"/><line style="stroke:#446E9B;stroke-width:3.125;" x1="152.6042" x2="135.6771" y1="690.565" y2="690.565"/><line style="stroke:#446E9B;stroke-width:3.125;" x1="135.6771" x2="135.6771" y1="690.565" y2="713.7858"/><polygon fill="#446E9B" points="131.5104,703.3691,135.6771,713.7858,139.8438,703.3691,135.6771,707.5358" style="stroke:#446E9B;stroke-width:1.0416666666666667;"/><line style="stroke:#446E9B;stroke-width:3.125;" x1="368.2292" x2="385.1563" y1="690.565" y2="690.565"/><line style="stroke:#446E9B;stroke-width:3.125;" x1="385.1563" x2="385.1563" y1="690.565" y2="720.34"/><polygon fill="#446E9B" points="380.9896,709.9233,385.1563,720.34,389.3229,709.9233,385.1563,714.09" style="stroke:#446E9B;stroke-width:1.0416666666666667;"/><line style="stroke:#446E9B;stroke-width:3.125;" x1="135.6771" x2="135.6771" y1="751.8941" y2="787.9191"/><line style="stroke:#446E9B;stroke-width:3.125;" x1="135.6771" x2="247.9167" y1="787.9191" y2="787.9191"/><polygon fill="#446E9B" points="237.5,783.7524,247.9167,787.9191,237.5,792.0858,241.6667,787.9191" style="stroke:#446E9B;stroke-width:1.0416666666666667;"/><line style="stroke:#446E9B;stroke-width:3.125;" x1="385.1563" x2="385.1563" y1="758.4483" y2="787.9191"/><line style="stroke:#446E9B;stroke-width:3.125;" x1="385.1563" x2="272.9167" y1="787.9191" y2="787.9191"/><polygon fill="#446E9B" points="283.3333,783.7524,272.9167,787.9191,283.3333,792.0858,279.1667,787.9191" style="stroke:#446E9B;stroke-width:1.0416666666666667;"/><line style="stroke:#446E9B;stroke-width:3.125;" x1="260.4167" x2="260.4167" y1="656.9275" y2="677.7608"/><polygon fill="#446E9B" points="256.25,667.3442,260.4167,677.7608,264.5833,667.3442,260.4167,671.5108" style="stroke:#446E9B;stroke-width:1.0416666666666667;"/><line style="stroke:#446E9B;stroke-width:3.125;" x1="260.4167" x2="260.4167" y1="206.1361" y2="226.9694"/><polygon fill="#446E9B" points="256.25,216.5527,260.4167,226.9694,264.5833,216.5527,260.4167,220.7194" style="stroke:#446E9B;stroke-width:1.0416666666666667;"/><line style="stroke:#446E9B;stroke-width:3.125;" x1="352.0833" x2="914.8438" y1="834.0566" y2="834.0566"/><polygon fill="#446E9B" points="910.6771,529.9922,914.8438,519.5755,919.0104,529.9922,914.8438,525.8255" style="stroke:#446E9B;stroke-width:3.125;"/><line style="stroke:#446E9B;stroke-width:3.125;" x1="914.8438" x2="914.8438" y1="193.6361" y2="834.0566"/><line style="stroke:#446E9B;stroke-width:3.125;" x1="914.8438" x2="272.9167" y1="193.6361" y2="193.6361"/><polygon fill="#446E9B" points="283.3333,189.4694,272.9167,193.6361,283.3333,197.8027,279.1667,193.6361" style="stroke:#446E9B;stroke-width:1.0416666666666667;"/><line style="stroke:#446E9B;stroke-width:3.125;" x1="260.4167" x2="260.4167" y1="800.4191" y2="821.2524"/><polygon fill="#446E9B" points="256.25,810.8358,260.4167,821.2524,264.5833,810.8358,260.4167,815.0024" style="stroke:#446E9B;stroke-width:1.0416666666666667;"/><line style="stroke:#446E9B;stroke-width:3.125;" x1="260.4167" x2="260.4167" y1="160.3027" y2="181.1361"/><polygon fill="#446E9B" points="256.25,170.7194,260.4167,181.1361,264.5833,170.7194,260.4167,174.8861" style="stroke:#446E9B;stroke-width:1.0416666666666667;"/><line style="stroke:#446E9B;stroke-width:3.125;" x1="260.4167" x2="260.4167" y1="846.8608" y2="893.3024"/><polygon fill="#446E9B" points="256.25,882.8857,260.4167,893.3024,264.5833,882.8857,260.4167,887.0524" style="stroke:#446E9B;stroke-width:1.0416666666666667;"/><text fill="#FFFFFF" font-family="Verdana" font-size="12.5" lengthAdjust="spacing" textLength="16.6667" x="269.7917" y="870.9066">no</text><!--SRC=[RLF9Rjim4BtpArvFjj6wHgzHuY9eNDI07GHrccimaaOMKOeKICg9_xuZIgdj83SkCs-PvLEikM64bWesbAkees6iRM0VySDejX6RxGDs1HdoU2BJSL0Xae_gIkBQJi9Sqv8zPifpozI_F-ZYBvmfEKHKMW0dWZ50X0cqHUZoUTK7-919_8uZdkIidRtl6lQuaIV3HKH3hzFJJyv-Xigx1WBtB9ZF8sYch8iCh_TrL6CyR4eGkihv9e2C6Mq470OViQO8yep2Yt0kaHz1QBqhE0JupggfjcBM5Zo3yoWf4eoZKh4jqLEgS-9ROV1SE5-6SyGpFDHqO4ZDLI0f- -52gThfHXjDtXo_9BKVO2K5NPiql67XFPP0VQXlNQ7feZQjTAHlIqZUHtboI-vx1jNZupfVCXMrDAle0whE3CqSwAyN-LBjEGe8BB-yy_BrfE1AS7wBzTwHp8yM0eaBAN-EHsvQ8-vGEDCr4YLfOtVckElT1h8w7kNsaxbSboWvic-qJJ2PqXMcTxeSfBKKXaOVJaJVPtsHBARMpMJMjcwiMdIOhBntVe9X53F59Z2cHmwpDDnf2LB5PMGZvK9mENSNOxTOR9sDzQ_LhPI2zfoifAUr5SMYwEtZ1lT_Dfl5Gb8kPbi-Bk-VyKsY_bTI3heQjmmlTMzukdhLGNgGt5yirWmw35RcIqdFP6bTg_u1]--></g></svg>