<?xml version="1.0" encoding="us-ascii" standalone="no"?><svg xmlns="http://www.w3.org/2000/svg" xmlns:xlink="http://www.w3.org/1999/xlink" contentStyleType="text/css" height="482px" preserveAspectRatio="none" style="width:915px;height:482px;background:#FFFFFF;" version="1.1" viewBox="0 0 915 482" width="915px" zoomAndPan="magnify"><defs/><g><!--entity ==Element--><g id="elem_==Element"><rect fill="#DDDDDD" height="40.125" rx="2.5" ry="2.5" style="stroke:#9A9A9A;stroke-width:0.5;" width="82" x="62" y="20.5"/><text fill="#000000" font-family="sans-serif" font-size="16" font-weight="bold" lengthAdjust="spacing" textLength="62" x="72" y="47.1094">Element</text></g><!--entity ==Person--><g id="elem_==Person"><ellipse cx="217" cy="20.5201" fill="#DDDDDD" rx="11.5201" ry="11.5201" style="stroke:#9A9A9A;stroke-width:0.5;"/><rect fill="#DDDDDD" height="40.125" rx="11.5201" ry="11.5201" style="stroke:#9A9A9A;stroke-width:0.5;" width="75" x="179.5" y="32.0403"/><text fill="#000000" font-family="sans-serif" font-size="16" font-weight="bold" lengthAdjust="spacing" textLength="55" x="189.5" y="58.6496">Person</text></g><!--entity ==Service 1, Database--><g id="elem_==Service 1, Database"><path d="M290,16 C290,6 337,6 337,6 C337,6 384,6 384,16 L384,65.25 C384,75.25 337,75.25 337,75.25 C337,75.25 290,75.25 290,65.25 L290,16 " fill="#91F0AE" style="stroke:#65A879;stroke-width:0.5;"/><path d="M290,16 C290,26 337,26 337,26 C337,26 384,26 384,16 " fill="none" style="stroke:#65A879;stroke-width:0.5;"/><text fill="#000000" font-family="sans-serif" font-size="16" font-weight="bold" lengthAdjust="spacing" textLength="57" x="300" y="46.6094">Service</text><text fill="#000000" font-family="sans-serif" font-size="16" font-weight="bold" lengthAdjust="spacing" textLength="4" x="357" y="46.6094">&#160;</text><text fill="#000000" font-family="sans-serif" font-size="16" font-weight="bold" lengthAdjust="spacing" textLength="13" x="361" y="46.6094">1,</text><text fill="#000000" font-family="sans-serif" font-size="16" font-weight="bold" lengthAdjust="spacing" textLength="72" x="301" y="66.7344">Database</text></g><!--entity ==Service 1, Service API--><g id="elem_==Service 1, Service API"><polygon fill="#91F0AE" points="593,40.5,549.5,15.5,462.5,15.5,419,40.5,462.5,65.5,549.5,65.5,593,40.5" style="stroke:#65A879;stroke-width:0.5;"/><text fill="#000000" font-family="sans-serif" font-size="16" font-weight="bold" lengthAdjust="spacing" textLength="57" x="469" y="37.1094">Service</text><text fill="#000000" font-family="sans-serif" font-size="16" font-weight="bold" lengthAdjust="spacing" textLength="4" x="526" y="37.1094">&#160;</text><text fill="#000000" font-family="sans-serif" font-size="16" font-weight="bold" lengthAdjust="spacing" textLength="13" x="530" y="37.1094">1,</text><text fill="#000000" font-family="sans-serif" font-size="16" font-weight="bold" lengthAdjust="spacing" textLength="57" x="462.5" y="57.2344">Service</text><text fill="#000000" font-family="sans-serif" font-size="16" font-weight="bold" lengthAdjust="spacing" textLength="4" x="519.5" y="57.2344">&#160;</text><text fill="#000000" font-family="sans-serif" font-size="16" font-weight="bold" lengthAdjust="spacing" textLength="26" x="523.5" y="57.2344">API</text></g><!--entity ==Service 2, Database--><g id="elem_==Service 2, Database"><path d="M628,16 C628,6 675,6 675,6 C675,6 722,6 722,16 L722,65.25 C722,75.25 675,75.25 675,75.25 C675,75.25 628,75.25 628,65.25 L628,16 " fill="#EDF08C" style="stroke:#A5A862;stroke-width:0.5;"/><path d="M628,16 C628,26 675,26 675,26 C675,26 722,26 722,16 " fill="none" style="stroke:#A5A862;stroke-width:0.5;"/><text fill="#000000" font-family="sans-serif" font-size="16" font-weight="bold" lengthAdjust="spacing" textLength="57" x="638" y="46.6094">Service</text><text fill="#000000" font-family="sans-serif" font-size="16" font-weight="bold" lengthAdjust="spacing" textLength="4" x="695" y="46.6094">&#160;</text><text fill="#000000" font-family="sans-serif" font-size="16" font-weight="bold" lengthAdjust="spacing" textLength="13" x="699" y="46.6094">2,</text><text fill="#000000" font-family="sans-serif" font-size="16" font-weight="bold" lengthAdjust="spacing" textLength="72" x="639" y="66.7344">Database</text></g><!--entity ==Service 2, Service API--><g id="elem_==Service 2, Service API"><polygon fill="#EDF08C" points="190,170.5,146.5,145.5,59.5,145.5,16,170.5,59.5,195.5,146.5,195.5,190,170.5" style="stroke:#A5A862;stroke-width:0.5;"/><text fill="#000000" font-family="sans-serif" font-size="16" font-weight="bold" lengthAdjust="spacing" textLength="57" x="66" y="167.1094">Service</text><text fill="#000000" font-family="sans-serif" font-size="16" font-weight="bold" lengthAdjust="spacing" textLength="4" x="123" y="167.1094">&#160;</text><text fill="#000000" font-family="sans-serif" font-size="16" font-weight="bold" lengthAdjust="spacing" textLength="13" x="127" y="167.1094">2,</text><text fill="#000000" font-family="sans-serif" font-size="16" font-weight="bold" lengthAdjust="spacing" textLength="57" x="59.5" y="187.2344">Service</text><text fill="#000000" font-family="sans-serif" font-size="16" font-weight="bold" lengthAdjust="spacing" textLength="4" x="116.5" y="187.2344">&#160;</text><text fill="#000000" font-family="sans-serif" font-size="16" font-weight="bold" lengthAdjust="spacing" textLength="26" x="120.5" y="187.2344">API</text></g><!--entity ==Service 3, Database--><g id="elem_==Service 3, Database"><path d="M225,146 C225,136 272,136 272,136 C272,136 319,136 319,146 L319,195.25 C319,205.25 272,205.25 272,205.25 C272,205.25 225,205.25 225,195.25 L225,146 " fill="#8CD0F0" style="stroke:#6291A8;stroke-width:0.5;"/><path d="M225,146 C225,156 272,156 272,156 C272,156 319,156 319,146 " fill="none" style="stroke:#6291A8;stroke-width:0.5;"/><text fill="#000000" font-family="sans-serif" font-size="16" font-weight="bold" lengthAdjust="spacing" textLength="57" x="235" y="176.6094">Service</text><text fill="#000000" font-family="sans-serif" font-size="16" font-weight="bold" lengthAdjust="spacing" textLength="4" x="292" y="176.6094">&#160;</text><text fill="#000000" font-family="sans-serif" font-size="16" font-weight="bold" lengthAdjust="spacing" textLength="13" x="296" y="176.6094">3,</text><text fill="#000000" font-family="sans-serif" font-size="16" font-weight="bold" lengthAdjust="spacing" textLength="72" x="236" y="196.7344">Database</text></g><!--entity ==Service 3, Service API--><g id="elem_==Service 3, Service API"><polygon fill="#8CD0F0" points="528,170.5,484.5,145.5,397.5,145.5,354,170.5,397.5,195.5,484.5,195.5,528,170.5" style="stroke:#6291A8;stroke-width:0.5;"/><text fill="#000000" font-family="sans-serif" font-size="16" font-weight="bold" lengthAdjust="spacing" textLength="57" x="404" y="167.1094">Service</text><text fill="#000000" font-family="sans-serif" font-size="16" font-weight="bold" lengthAdjust="spacing" textLength="4" x="461" y="167.1094">&#160;</text><text fill="#000000" font-family="sans-serif" font-size="16" font-weight="bold" lengthAdjust="spacing" textLength="13" x="465" y="167.1094">3,</text><text fill="#000000" font-family="sans-serif" font-size="16" font-weight="bold" lengthAdjust="spacing" textLength="57" x="397.5" y="187.2344">Service</text><text fill="#000000" font-family="sans-serif" font-size="16" font-weight="bold" lengthAdjust="spacing" textLength="4" x="454.5" y="187.2344">&#160;</text><text fill="#000000" font-family="sans-serif" font-size="16" font-weight="bold" lengthAdjust="spacing" textLength="26" x="458.5" y="187.2344">API</text></g><!--entity ==Service 4, Database--><g id="elem_==Service 4, Database"><path d="M563,146 C563,136 610,136 610,136 C610,136 657,136 657,146 L657,195.25 C657,205.25 610,205.25 610,205.25 C610,205.25 563,205.25 563,195.25 L563,146 " fill="#F08CA4" style="stroke:#A86272;stroke-width:0.5;"/><path d="M563,146 C563,156 610,156 610,156 C610,156 657,156 657,146 " fill="none" style="stroke:#A86272;stroke-width:0.5;"/><text fill="#000000" font-family="sans-serif" font-size="16" font-weight="bold" lengthAdjust="spacing" textLength="57" x="573" y="176.6094">Service</text><text fill="#000000" font-family="sans-serif" font-size="16" font-weight="bold" lengthAdjust="spacing" textLength="4" x="630" y="176.6094">&#160;</text><text fill="#000000" font-family="sans-serif" font-size="16" font-weight="bold" lengthAdjust="spacing" textLength="13" x="634" y="176.6094">4,</text><text fill="#000000" font-family="sans-serif" font-size="16" font-weight="bold" lengthAdjust="spacing" textLength="72" x="574" y="196.7344">Database</text></g><!--entity ==Service 4, Service API--><g id="elem_==Service 4, Service API"><polygon fill="#F08CA4" points="866,170.5,822.5,145.5,735.5,145.5,692,170.5,735.5,195.5,822.5,195.5,866,170.5" style="stroke:#A86272;stroke-width:0.5;"/><text fill="#000000" font-family="sans-serif" font-size="16" font-weight="bold" lengthAdjust="spacing" textLength="57" x="742" y="167.1094">Service</text><text fill="#000000" font-family="sans-serif" font-size="16" font-weight="bold" lengthAdjust="spacing" textLength="4" x="799" y="167.1094">&#160;</text><text fill="#000000" font-family="sans-serif" font-size="16" font-weight="bold" lengthAdjust="spacing" textLength="13" x="803" y="167.1094">4,</text><text fill="#000000" font-family="sans-serif" font-size="16" font-weight="bold" lengthAdjust="spacing" textLength="57" x="735.5" y="187.2344">Service</text><text fill="#000000" font-family="sans-serif" font-size="16" font-weight="bold" lengthAdjust="spacing" textLength="4" x="792.5" y="187.2344">&#160;</text><text fill="#000000" font-family="sans-serif" font-size="16" font-weight="bold" lengthAdjust="spacing" textLength="26" x="796.5" y="187.2344">API</text></g><!--entity ==Service 5, Database--><g id="elem_==Service 5, Database"><path d="M56,276 C56,266 103,266 103,266 C103,266 150,266 150,276 L150,325.25 C150,335.25 103,335.25 103,335.25 C103,335.25 56,335.25 56,325.25 L56,276 " fill="#FFAC33" style="stroke:#B27823;stroke-width:0.5;"/><path d="M56,276 C56,286 103,286 103,286 C103,286 150,286 150,276 " fill="none" style="stroke:#B27823;stroke-width:0.5;"/><text fill="#000000" font-family="sans-serif" font-size="16" font-weight="bold" lengthAdjust="spacing" textLength="57" x="66" y="306.6094">Service</text><text fill="#000000" font-family="sans-serif" font-size="16" font-weight="bold" lengthAdjust="spacing" textLength="4" x="123" y="306.6094">&#160;</text><text fill="#000000" font-family="sans-serif" font-size="16" font-weight="bold" lengthAdjust="spacing" textLength="13" x="127" y="306.6094">5,</text><text fill="#000000" font-family="sans-serif" font-size="16" font-weight="bold" lengthAdjust="spacing" textLength="72" x="67" y="326.7344">Database</text></g><!--entity ==Service 5, Service API--><g id="elem_==Service 5, Service API"><polygon fill="#FFAC33" points="359,300.5,315.5,275.5,228.5,275.5,185,300.5,228.5,325.5,315.5,325.5,359,300.5" style="stroke:#B27823;stroke-width:0.5;"/><text fill="#000000" font-family="sans-serif" font-size="16" font-weight="bold" lengthAdjust="spacing" textLength="57" x="235" y="297.1094">Service</text><text fill="#000000" font-family="sans-serif" font-size="16" font-weight="bold" lengthAdjust="spacing" textLength="4" x="292" y="297.1094">&#160;</text><text fill="#000000" font-family="sans-serif" font-size="16" font-weight="bold" lengthAdjust="spacing" textLength="13" x="296" y="297.1094">5,</text><text fill="#000000" font-family="sans-serif" font-size="16" font-weight="bold" lengthAdjust="spacing" textLength="57" x="228.5" y="317.2344">Service</text><text fill="#000000" font-family="sans-serif" font-size="16" font-weight="bold" lengthAdjust="spacing" textLength="4" x="285.5" y="317.2344">&#160;</text><text fill="#000000" font-family="sans-serif" font-size="16" font-weight="bold" lengthAdjust="spacing" textLength="26" x="289.5" y="317.2344">API</text></g><!--entity ==Service 6, Database--><g id="elem_==Service 6, Database"><path d="M394,276 C394,266 441,266 441,266 C441,266 488,266 488,276 L488,325.25 C488,335.25 441,335.25 441,335.25 C441,335.25 394,335.25 394,325.25 L394,276 " fill="#DD8BFE" style="stroke:#9A61B1;stroke-width:0.5;"/><path d="M394,276 C394,286 441,286 441,286 C441,286 488,286 488,276 " fill="none" style="stroke:#9A61B1;stroke-width:0.5;"/><text fill="#000000" font-family="sans-serif" font-size="16" font-weight="bold" lengthAdjust="spacing" textLength="57" x="404" y="306.6094">Service</text><text fill="#000000" font-family="sans-serif" font-size="16" font-weight="bold" lengthAdjust="spacing" textLength="4" x="461" y="306.6094">&#160;</text><text fill="#000000" font-family="sans-serif" font-size="16" font-weight="bold" lengthAdjust="spacing" textLength="13" x="465" y="306.6094">6,</text><text fill="#000000" font-family="sans-serif" font-size="16" font-weight="bold" lengthAdjust="spacing" textLength="72" x="405" y="326.7344">Database</text></g><!--entity ==Service 6, Service API--><g id="elem_==Service 6, Service API"><polygon fill="#DD8BFE" points="697,300.5,653.5,275.5,566.5,275.5,523,300.5,566.5,325.5,653.5,325.5,697,300.5" style="stroke:#9A61B1;stroke-width:0.5;"/><text fill="#000000" font-family="sans-serif" font-size="16" font-weight="bold" lengthAdjust="spacing" textLength="57" x="573" y="297.1094">Service</text><text fill="#000000" font-family="sans-serif" font-size="16" font-weight="bold" lengthAdjust="spacing" textLength="4" x="630" y="297.1094">&#160;</text><text fill="#000000" font-family="sans-serif" font-size="16" font-weight="bold" lengthAdjust="spacing" textLength="13" x="634" y="297.1094">6,</text><text fill="#000000" font-family="sans-serif" font-size="16" font-weight="bold" lengthAdjust="spacing" textLength="57" x="566.5" y="317.2344">Service</text><text fill="#000000" font-family="sans-serif" font-size="16" font-weight="bold" lengthAdjust="spacing" textLength="4" x="623.5" y="317.2344">&#160;</text><text fill="#000000" font-family="sans-serif" font-size="16" font-weight="bold" lengthAdjust="spacing" textLength="26" x="627.5" y="317.2344">API</text></g><!--entity ==Service 7, Database--><g id="elem_==Service 7, Database"><path d="M732,276 C732,266 779,266 779,266 C779,266 826,266 826,276 L826,325.25 C826,335.25 779,335.25 779,335.25 C779,335.25 732,335.25 732,325.25 L732,276 " fill="#89ACFF" style="stroke:#5F78B2;stroke-width:0.5;"/><path d="M732,276 C732,286 779,286 779,286 C779,286 826,286 826,276 " fill="none" style="stroke:#5F78B2;stroke-width:0.5;"/><text fill="#000000" font-family="sans-serif" font-size="16" font-weight="bold" lengthAdjust="spacing" textLength="57" x="742" y="306.6094">Service</text><text fill="#000000" font-family="sans-serif" font-size="16" font-weight="bold" lengthAdjust="spacing" textLength="4" x="799" y="306.6094">&#160;</text><text fill="#000000" font-family="sans-serif" font-size="16" font-weight="bold" lengthAdjust="spacing" textLength="13" x="803" y="306.6094">7,</text><text fill="#000000" font-family="sans-serif" font-size="16" font-weight="bold" lengthAdjust="spacing" textLength="72" x="743" y="326.7344">Database</text></g><!--entity ==Service 7, Service API--><g id="elem_==Service 7, Service API"><polygon fill="#89ACFF" points="190,430.5,146.5,405.5,59.5,405.5,16,430.5,59.5,455.5,146.5,455.5,190,430.5" style="stroke:#5F78B2;stroke-width:0.5;"/><text fill="#000000" font-family="sans-serif" font-size="16" font-weight="bold" lengthAdjust="spacing" textLength="57" x="66" y="427.1094">Service</text><text fill="#000000" font-family="sans-serif" font-size="16" font-weight="bold" lengthAdjust="spacing" textLength="4" x="123" y="427.1094">&#160;</text><text fill="#000000" font-family="sans-serif" font-size="16" font-weight="bold" lengthAdjust="spacing" textLength="13" x="127" y="427.1094">7,</text><text fill="#000000" font-family="sans-serif" font-size="16" font-weight="bold" lengthAdjust="spacing" textLength="57" x="59.5" y="447.2344">Service</text><text fill="#000000" font-family="sans-serif" font-size="16" font-weight="bold" lengthAdjust="spacing" textLength="4" x="116.5" y="447.2344">&#160;</text><text fill="#000000" font-family="sans-serif" font-size="16" font-weight="bold" lengthAdjust="spacing" textLength="26" x="120.5" y="447.2344">API</text></g><!--entity ==Service 8, Database--><g id="elem_==Service 8, Database"><path d="M225,406 C225,396 272,396 272,396 C272,396 319,396 319,406 L319,455.25 C319,465.25 272,465.25 272,465.25 C272,465.25 225,465.25 225,455.25 L225,406 " fill="#FDA9F4" style="stroke:#B176AA;stroke-width:0.5;"/><path d="M225,406 C225,416 272,416 272,416 C272,416 319,416 319,406 " fill="none" style="stroke:#B176AA;stroke-width:0.5;"/><text fill="#000000" font-family="sans-serif" font-size="16" font-weight="bold" lengthAdjust="spacing" textLength="57" x="235" y="436.6094">Service</text><text fill="#000000" font-family="sans-serif" font-size="16" font-weight="bold" lengthAdjust="spacing" textLength="4" x="292" y="436.6094">&#160;</text><text fill="#000000" font-family="sans-serif" font-size="16" font-weight="bold" lengthAdjust="spacing" textLength="13" x="296" y="436.6094">8,</text><text fill="#000000" font-family="sans-serif" font-size="16" font-weight="bold" lengthAdjust="spacing" textLength="72" x="236" y="456.7344">Database</text></g><!--entity ==Service 8, Service API--><g id="elem_==Service 8, Service API"><polygon fill="#FDA9F4" points="528,430.5,484.5,405.5,397.5,405.5,354,430.5,397.5,455.5,484.5,455.5,528,430.5" style="stroke:#B176AA;stroke-width:0.5;"/><text fill="#000000" font-family="sans-serif" font-size="16" font-weight="bold" lengthAdjust="spacing" textLength="57" x="404" y="427.1094">Service</text><text fill="#000000" font-family="sans-serif" font-size="16" font-weight="bold" lengthAdjust="spacing" textLength="4" x="461" y="427.1094">&#160;</text><text fill="#000000" font-family="sans-serif" font-size="16" font-weight="bold" lengthAdjust="spacing" textLength="13" x="465" y="427.1094">8,</text><text fill="#000000" font-family="sans-serif" font-size="16" font-weight="bold" lengthAdjust="spacing" textLength="57" x="397.5" y="447.2344">Service</text><text fill="#000000" font-family="sans-serif" font-size="16" font-weight="bold" lengthAdjust="spacing" textLength="4" x="454.5" y="447.2344">&#160;</text><text fill="#000000" font-family="sans-serif" font-size="16" font-weight="bold" lengthAdjust="spacing" textLength="26" x="458.5" y="447.2344">API</text></g><!--entity 19--><g id="elem_19"><rect fill="none" height="37.6094" rx="2.5" ry="2.5" style="stroke:none;stroke-width:0.5;" width="24" x="757" y="21.5"/></g><!--link 19 to 19--><g id="link_19_19"><path d="M781.04,32.3 C796.88,25.27 816,28 816,40.5 C816,53 802.3642,58.1639 786.5242,51.1339 " fill="none" id="19-to-19" style="stroke:#707070;stroke-width:2.0;stroke-dasharray:7.0,7.0;"/><polygon fill="#707070" points="781.04,48.7,787.6436,56.007,785.6101,50.7283,790.8889,48.6948,781.04,48.7" style="stroke:#707070;stroke-width:2.0;"/><text fill="#707070" font-family="sans-serif" font-size="15" lengthAdjust="spacing" textLength="80" x="822" y="47.0713">Relationship</text></g><!--SRC=[hPPTYwCm58Rl_HMXlHsAqQfnQ0kpNx0N2yFEm5uiotAgYKfjB4bcszrb_licdNQf7mUyKA7O4ptlcoVw4iqDqVm02aoZY6mazpozgwIhxCbVZn1TGjuSAraG0RNcjW9ADSTFZJHFrHzEQ6HBEHVmKfjdVZ8FTLN8FPU6PFQ7ApjwL73uLkMc9DJtxVyzdBvmhQ7WRnriyTKhgvmJRH_WZVbzQDbGF3CWYvglLZ-D0gbjsVRURCu6tpKgv-fzKzi9t8ow4SXsXMfUP3uqwcRGhxyYmlIgrkavpyz7gz_SFnyTR_CKt6aL_hSbi_NwOyqThHavQzog7xZIZLojWWcbttewtSVpbPCDsh8v6DY2jdCECU6K2X_u6E4u0fQaLlZQrKa_SVMhokp2tv4FbxBp4RPzbFm4XPl_Sa8RbwOT5zVBXyVFpiWI0n9XJdWkV9QDSGBMIHmWG88sa0W14azeOm18q0CIOq0Ip0dBSb_uevOcI2am14ZO1f8WGDY4DWQ0X3qW30EIOaxSmi1orDBOXKcmDsJP1f8YGAW_eOy18iiU4QSuZ8IYqIa4P64uniisI5WG8aoYDXDACIZ1X4O6e4HzA6YqqX0FTROLV5oentHB4IXn1meMhdGveP41A74V2Xgl5CrNba8cn1WlaKZO5ljwaWuKB61fFA6H0IX97meQiHJDM953AaPzobkQn0085DQ1WeKiPHCQ6O32-b3ECNkpMrguQcSB29hGrACfMNoV9xuxxqnPPJjfTvZhuCTYOuV9FPcjCcVX_dBFvYklmLIDr6Lrc7dUFm00]--></g></svg>