<?xml version="1.0" encoding="us-ascii" standalone="no"?><svg xmlns="http://www.w3.org/2000/svg" xmlns:xlink="http://www.w3.org/1999/xlink" contentStyleType="text/css" height="193px" preserveAspectRatio="none" style="width:675px;height:193px;background:#FFFFFF;" version="1.1" viewBox="0 0 675 193" width="675px" zoomAndPan="magnify"><defs/><g><!--entity ==Element--><g id="elem_==Element"><rect fill="#DDDDDD" height="40.125" rx="2.5" ry="2.5" style="stroke:#9A9A9A;stroke-width:0.5;" width="82" x="62" y="20.5"/><text fill="#000000" font-family="sans-serif" font-size="16" font-weight="bold" lengthAdjust="spacing" textLength="62" x="72" y="47.1094">Element</text></g><!--entity ==Service 1, Service API--><g id="elem_==Service 1, Service API"><polygon fill="#91F0AE" points="353,40.5,309.5,15.5,222.5,15.5,179,40.5,222.5,65.5,309.5,65.5,353,40.5" style="stroke:#65A879;stroke-width:0.5;"/><text fill="#000000" font-family="sans-serif" font-size="16" font-weight="bold" lengthAdjust="spacing" textLength="57" x="229" y="37.1094">Service</text><text fill="#000000" font-family="sans-serif" font-size="16" font-weight="bold" lengthAdjust="spacing" textLength="4" x="286" y="37.1094">&#160;</text><text fill="#000000" font-family="sans-serif" font-size="16" font-weight="bold" lengthAdjust="spacing" textLength="13" x="290" y="37.1094">1,</text><text fill="#000000" font-family="sans-serif" font-size="16" font-weight="bold" lengthAdjust="spacing" textLength="57" x="222.5" y="57.2344">Service</text><text fill="#000000" font-family="sans-serif" font-size="16" font-weight="bold" lengthAdjust="spacing" textLength="4" x="279.5" y="57.2344">&#160;</text><text fill="#000000" font-family="sans-serif" font-size="16" font-weight="bold" lengthAdjust="spacing" textLength="26" x="283.5" y="57.2344">API</text></g><!--entity ==Service 3, Database--><g id="elem_==Service 3, Database"><path d="M388,16 C388,6 435,6 435,6 C435,6 482,6 482,16 L482,65.25 C482,75.25 435,75.25 435,75.25 C435,75.25 388,75.25 388,65.25 L388,16 " fill="#8CD0F0" style="stroke:#6291A8;stroke-width:0.5;"/><path d="M388,16 C388,26 435,26 435,26 C435,26 482,26 482,16 " fill="none" style="stroke:#6291A8;stroke-width:0.5;"/><text fill="#000000" font-family="sans-serif" font-size="16" font-weight="bold" lengthAdjust="spacing" textLength="57" x="398" y="46.6094">Service</text><text fill="#000000" font-family="sans-serif" font-size="16" font-weight="bold" lengthAdjust="spacing" textLength="4" x="455" y="46.6094">&#160;</text><text fill="#000000" font-family="sans-serif" font-size="16" font-weight="bold" lengthAdjust="spacing" textLength="13" x="459" y="46.6094">3,</text><text fill="#000000" font-family="sans-serif" font-size="16" font-weight="bold" lengthAdjust="spacing" textLength="72" x="399" y="66.7344">Database</text></g><!--entity ==Service 3, Service API--><g id="elem_==Service 3, Service API"><polygon fill="#8CD0F0" points="190,161,146.5,136,59.5,136,16,161,59.5,186,146.5,186,190,161" style="stroke:#6291A8;stroke-width:0.5;"/><text fill="#000000" font-family="sans-serif" font-size="16" font-weight="bold" lengthAdjust="spacing" textLength="57" x="66" y="157.6094">Service</text><text fill="#000000" font-family="sans-serif" font-size="16" font-weight="bold" lengthAdjust="spacing" textLength="4" x="123" y="157.6094">&#160;</text><text fill="#000000" font-family="sans-serif" font-size="16" font-weight="bold" lengthAdjust="spacing" textLength="13" x="127" y="157.6094">3,</text><text fill="#000000" font-family="sans-serif" font-size="16" font-weight="bold" lengthAdjust="spacing" textLength="57" x="59.5" y="177.7344">Service</text><text fill="#000000" font-family="sans-serif" font-size="16" font-weight="bold" lengthAdjust="spacing" textLength="4" x="116.5" y="177.7344">&#160;</text><text fill="#000000" font-family="sans-serif" font-size="16" font-weight="bold" lengthAdjust="spacing" textLength="26" x="120.5" y="177.7344">API</text></g><!--entity ==Service 4, Service API--><g id="elem_==Service 4, Service API"><polygon fill="#F08CA4" points="399,161,355.5,136,268.5,136,225,161,268.5,186,355.5,186,399,161" style="stroke:#A86272;stroke-width:0.5;"/><text fill="#000000" font-family="sans-serif" font-size="16" font-weight="bold" lengthAdjust="spacing" textLength="57" x="275" y="157.6094">Service</text><text fill="#000000" font-family="sans-serif" font-size="16" font-weight="bold" lengthAdjust="spacing" textLength="4" x="332" y="157.6094">&#160;</text><text fill="#000000" font-family="sans-serif" font-size="16" font-weight="bold" lengthAdjust="spacing" textLength="13" x="336" y="157.6094">4,</text><text fill="#000000" font-family="sans-serif" font-size="16" font-weight="bold" lengthAdjust="spacing" textLength="57" x="268.5" y="177.7344">Service</text><text fill="#000000" font-family="sans-serif" font-size="16" font-weight="bold" lengthAdjust="spacing" textLength="4" x="325.5" y="177.7344">&#160;</text><text fill="#000000" font-family="sans-serif" font-size="16" font-weight="bold" lengthAdjust="spacing" textLength="26" x="329.5" y="177.7344">API</text></g><!--entity ==Service 7, Service API--><g id="elem_==Service 7, Service API"><polygon fill="#89ACFF" points="608,161,564.5,136,477.5,136,434,161,477.5,186,564.5,186,608,161" style="stroke:#5F78B2;stroke-width:0.5;"/><text fill="#000000" font-family="sans-serif" font-size="16" font-weight="bold" lengthAdjust="spacing" textLength="57" x="484" y="157.6094">Service</text><text fill="#000000" font-family="sans-serif" font-size="16" font-weight="bold" lengthAdjust="spacing" textLength="4" x="541" y="157.6094">&#160;</text><text fill="#000000" font-family="sans-serif" font-size="16" font-weight="bold" lengthAdjust="spacing" textLength="13" x="545" y="157.6094">7,</text><text fill="#000000" font-family="sans-serif" font-size="16" font-weight="bold" lengthAdjust="spacing" textLength="57" x="477.5" y="177.7344">Service</text><text fill="#000000" font-family="sans-serif" font-size="16" font-weight="bold" lengthAdjust="spacing" textLength="4" x="534.5" y="177.7344">&#160;</text><text fill="#000000" font-family="sans-serif" font-size="16" font-weight="bold" lengthAdjust="spacing" textLength="26" x="538.5" y="177.7344">API</text></g><!--entity 7--><g id="elem_7"><rect fill="none" height="37.6094" rx="2.5" ry="2.5" style="stroke:none;stroke-width:0.5;" width="24" x="517" y="21.5"/></g><!--link 7 to 7--><g id="link_7_7"><path d="M541.04,32.3 C556.88,25.27 576,28 576,40.5 C576,53 562.3642,58.1639 546.5242,51.1339 " fill="none" id="7-to-7" style="stroke:#707070;stroke-width:2.0;stroke-dasharray:7.0,7.0;"/><polygon fill="#707070" points="541.04,48.7,547.6436,56.007,545.6101,50.7283,550.8889,48.6948,541.04,48.7" style="stroke:#707070;stroke-width:2.0;"/><text fill="#707070" font-family="sans-serif" font-size="15" lengthAdjust="spacing" textLength="80" x="582" y="47.0713">Relationship</text></g><!--SRC=[hPDVQzim5CNV_IakoMi8jXF7Td42RRV17WQbBUnXZ78hNTiYZXGaTKat-jqh9St8Fq4UAe6nZ-npVZfOXYmOMg96gpH89IcAp5n8hopWNmHWMkHg9MG3DNQ6d89QgzKt9Us3-4kGP4xYLEDBPnzfRQyxqSW5IGlCNKYxrPN6vK_1RGj97Bld1Qv_a37OqDR1YMzHApY1SH-Gig_B0mnDpA9iEggg9wjH6YSxxzbi0tYZD2TzgpgtWRrLlu9itcZr8lcvLR-3K_qj49piqeuy-tmp3lpwyMOSiVLBzDCb_BU5tdJwjIFVLWys6VlfBQsnKRAgqb1scTGnqYNPamoBlFGrRqrzyWFfFuAv_WUmkxs- - -v1qaCGZXQVqRWMHY6IWl6uZYyYISi42qUoSzr76GtWouViEKQ1GiQVY76caD598UC0I1O2gUE2uVWI42mcQPwU1ncVW6G1a4cmaH9PNLy2ajLvyHm0oKz09XvaxqSUUl7eTAA1FCfX-AkVntuER2lONBgZFqr_3sUGmnNqAkRZhpvUcTrJXrOeQLgnx4NHEm00]--></g></svg>