<?xml version="1.0" encoding="us-ascii" standalone="no"?><svg xmlns="http://www.w3.org/2000/svg" xmlns:xlink="http://www.w3.org/1999/xlink" contentStyleType="text/css" height="193px" preserveAspectRatio="none" style="width:721px;height:193px;background:#FFFFFF;" version="1.1" viewBox="0 0 721 193" width="721px" zoomAndPan="magnify"><defs/><g><!--entity ==Service 2, Service API--><g id="elem_==Service 2, Service API"><polygon fill="#EDF08C" points="190,40.5,146.5,15.5,59.5,15.5,16,40.5,59.5,65.5,146.5,65.5,190,40.5" style="stroke:#A5A862;stroke-width:0.5;"/><text fill="#000000" font-family="sans-serif" font-size="16" font-weight="bold" lengthAdjust="spacing" textLength="57" x="66" y="37.1094">Service</text><text fill="#000000" font-family="sans-serif" font-size="16" font-weight="bold" lengthAdjust="spacing" textLength="4" x="123" y="37.1094">&#160;</text><text fill="#000000" font-family="sans-serif" font-size="16" font-weight="bold" lengthAdjust="spacing" textLength="13" x="127" y="37.1094">2,</text><text fill="#000000" font-family="sans-serif" font-size="16" font-weight="bold" lengthAdjust="spacing" textLength="57" x="59.5" y="57.2344">Service</text><text fill="#000000" font-family="sans-serif" font-size="16" font-weight="bold" lengthAdjust="spacing" textLength="4" x="116.5" y="57.2344">&#160;</text><text fill="#000000" font-family="sans-serif" font-size="16" font-weight="bold" lengthAdjust="spacing" textLength="26" x="120.5" y="57.2344">API</text></g><!--entity ==Service 3, Service API--><g id="elem_==Service 3, Service API"><polygon fill="#8CD0F0" points="399,40.5,355.5,15.5,268.5,15.5,225,40.5,268.5,65.5,355.5,65.5,399,40.5" style="stroke:#6291A8;stroke-width:0.5;"/><text fill="#000000" font-family="sans-serif" font-size="16" font-weight="bold" lengthAdjust="spacing" textLength="57" x="275" y="37.1094">Service</text><text fill="#000000" font-family="sans-serif" font-size="16" font-weight="bold" lengthAdjust="spacing" textLength="4" x="332" y="37.1094">&#160;</text><text fill="#000000" font-family="sans-serif" font-size="16" font-weight="bold" lengthAdjust="spacing" textLength="13" x="336" y="37.1094">3,</text><text fill="#000000" font-family="sans-serif" font-size="16" font-weight="bold" lengthAdjust="spacing" textLength="57" x="268.5" y="57.2344">Service</text><text fill="#000000" font-family="sans-serif" font-size="16" font-weight="bold" lengthAdjust="spacing" textLength="4" x="325.5" y="57.2344">&#160;</text><text fill="#000000" font-family="sans-serif" font-size="16" font-weight="bold" lengthAdjust="spacing" textLength="26" x="329.5" y="57.2344">API</text></g><!--entity ==Service 4, Database--><g id="elem_==Service 4, Database"><path d="M434,16 C434,6 481,6 481,6 C481,6 528,6 528,16 L528,65.25 C528,75.25 481,75.25 481,75.25 C481,75.25 434,75.25 434,65.25 L434,16 " fill="#F08CA4" style="stroke:#A86272;stroke-width:0.5;"/><path d="M434,16 C434,26 481,26 481,26 C481,26 528,26 528,16 " fill="none" style="stroke:#A86272;stroke-width:0.5;"/><text fill="#000000" font-family="sans-serif" font-size="16" font-weight="bold" lengthAdjust="spacing" textLength="57" x="444" y="46.6094">Service</text><text fill="#000000" font-family="sans-serif" font-size="16" font-weight="bold" lengthAdjust="spacing" textLength="4" x="501" y="46.6094">&#160;</text><text fill="#000000" font-family="sans-serif" font-size="16" font-weight="bold" lengthAdjust="spacing" textLength="13" x="505" y="46.6094">4,</text><text fill="#000000" font-family="sans-serif" font-size="16" font-weight="bold" lengthAdjust="spacing" textLength="72" x="445" y="66.7344">Database</text></g><!--entity ==Service 4, Service API--><g id="elem_==Service 4, Service API"><polygon fill="#F08CA4" points="190,161,146.5,136,59.5,136,16,161,59.5,186,146.5,186,190,161" style="stroke:#A86272;stroke-width:0.5;"/><text fill="#000000" font-family="sans-serif" font-size="16" font-weight="bold" lengthAdjust="spacing" textLength="57" x="66" y="157.6094">Service</text><text fill="#000000" font-family="sans-serif" font-size="16" font-weight="bold" lengthAdjust="spacing" textLength="4" x="123" y="157.6094">&#160;</text><text fill="#000000" font-family="sans-serif" font-size="16" font-weight="bold" lengthAdjust="spacing" textLength="13" x="127" y="157.6094">4,</text><text fill="#000000" font-family="sans-serif" font-size="16" font-weight="bold" lengthAdjust="spacing" textLength="57" x="59.5" y="177.7344">Service</text><text fill="#000000" font-family="sans-serif" font-size="16" font-weight="bold" lengthAdjust="spacing" textLength="4" x="116.5" y="177.7344">&#160;</text><text fill="#000000" font-family="sans-serif" font-size="16" font-weight="bold" lengthAdjust="spacing" textLength="26" x="120.5" y="177.7344">API</text></g><!--entity ==Service 6, Service API--><g id="elem_==Service 6, Service API"><polygon fill="#DD8BFE" points="399,161,355.5,136,268.5,136,225,161,268.5,186,355.5,186,399,161" style="stroke:#9A61B1;stroke-width:0.5;"/><text fill="#000000" font-family="sans-serif" font-size="16" font-weight="bold" lengthAdjust="spacing" textLength="57" x="275" y="157.6094">Service</text><text fill="#000000" font-family="sans-serif" font-size="16" font-weight="bold" lengthAdjust="spacing" textLength="4" x="332" y="157.6094">&#160;</text><text fill="#000000" font-family="sans-serif" font-size="16" font-weight="bold" lengthAdjust="spacing" textLength="13" x="336" y="157.6094">6,</text><text fill="#000000" font-family="sans-serif" font-size="16" font-weight="bold" lengthAdjust="spacing" textLength="57" x="268.5" y="177.7344">Service</text><text fill="#000000" font-family="sans-serif" font-size="16" font-weight="bold" lengthAdjust="spacing" textLength="4" x="325.5" y="177.7344">&#160;</text><text fill="#000000" font-family="sans-serif" font-size="16" font-weight="bold" lengthAdjust="spacing" textLength="26" x="329.5" y="177.7344">API</text></g><!--entity 6--><g id="elem_6"><rect fill="none" height="37.6094" rx="2.5" ry="2.5" style="stroke:none;stroke-width:0.5;" width="24" x="563" y="21.5"/></g><!--link 6 to 6--><g id="link_6_6"><path d="M587.04,32.3 C602.88,25.27 622,28 622,40.5 C622,53 608.3642,58.1639 592.5242,51.1339 " fill="none" id="6-to-6" style="stroke:#707070;stroke-width:2.0;stroke-dasharray:7.0,7.0;"/><polygon fill="#707070" points="587.04,48.7,593.6436,56.007,591.6101,50.7283,596.8889,48.6948,587.04,48.7" style="stroke:#707070;stroke-width:2.0;"/><text fill="#707070" font-family="sans-serif" font-size="15" lengthAdjust="spacing" textLength="80" x="628" y="47.0713">Relationship</text></g><!--SRC=[hPDRQuD048NV_HM3UGr1ZJ6sc40l5FfGA6sX3wMKYJlg4hCRTZTDsjB_tjsaARaevA4AecVqp3T7HfC1JNDKQAG28GLvdfvouPGPV7a0ka8cbroKK62joIgeb5pUI64U-IT1EB0Iem8NjNcYbRceUIbc90pazaBALfSAvy-ScGh28B3FCrpTaTPOqiR1YjzUnHc1jX-GD1_pFGn5kK5HrfHbRqQXq5QstkFn6l1IAaRgIjPsW9sggs0-BPLS2DPKTHCSwz-xZIjQOIb5beNRNWUE7M95aEPxRfrWVHoGTN20QHAvGJUcu8z6ZwJUUKuGTM5xUt5_wyEwOID8r0QIvYmeWbD0akWinBGPf7y44ks3C3GuGMt_HB-Dn0M2yKcHs426BfAjwovAt8NhNzbnz5i2YVyHeo6G-2YGk0Laq0R2M3efw1IGCqp2ITWCaXo131p8tsg0ttFYmNwWXiHBeFVI6GRkx9gAvrDXbsyKlVR6aC0v-5dksf__lZ9-e1eDbq9NVEvxtWy0]--></g></svg>