<?xml version="1.0" encoding="us-ascii" standalone="no"?><svg xmlns="http://www.w3.org/2000/svg" xmlns:xlink="http://www.w3.org/1999/xlink" contentStyleType="text/css" height="193px" preserveAspectRatio="none" style="width:721px;height:193px;background:#FFFFFF;" version="1.1" viewBox="0 0 721 193" width="721px" zoomAndPan="magnify"><defs/><g><!--entity ==Service 1, Service API--><g id="elem_==Service 1, Service API"><polygon fill="#91F0AE" points="190,40.5,146.5,15.5,59.5,15.5,16,40.5,59.5,65.5,146.5,65.5,190,40.5" style="stroke:#65A879;stroke-width:0.5;"/><text fill="#000000" font-family="sans-serif" font-size="16" font-weight="bold" lengthAdjust="spacing" textLength="57" x="66" y="37.1094">Service</text><text fill="#000000" font-family="sans-serif" font-size="16" font-weight="bold" lengthAdjust="spacing" textLength="4" x="123" y="37.1094">&#160;</text><text fill="#000000" font-family="sans-serif" font-size="16" font-weight="bold" lengthAdjust="spacing" textLength="13" x="127" y="37.1094">1,</text><text fill="#000000" font-family="sans-serif" font-size="16" font-weight="bold" lengthAdjust="spacing" textLength="57" x="59.5" y="57.2344">Service</text><text fill="#000000" font-family="sans-serif" font-size="16" font-weight="bold" lengthAdjust="spacing" textLength="4" x="116.5" y="57.2344">&#160;</text><text fill="#000000" font-family="sans-serif" font-size="16" font-weight="bold" lengthAdjust="spacing" textLength="26" x="120.5" y="57.2344">API</text></g><!--entity ==Service 2, Database--><g id="elem_==Service 2, Database"><path d="M225,16 C225,6 272,6 272,6 C272,6 319,6 319,16 L319,65.25 C319,75.25 272,75.25 272,75.25 C272,75.25 225,75.25 225,65.25 L225,16 " fill="#EDF08C" style="stroke:#A5A862;stroke-width:0.5;"/><path d="M225,16 C225,26 272,26 272,26 C272,26 319,26 319,16 " fill="none" style="stroke:#A5A862;stroke-width:0.5;"/><text fill="#000000" font-family="sans-serif" font-size="16" font-weight="bold" lengthAdjust="spacing" textLength="57" x="235" y="46.6094">Service</text><text fill="#000000" font-family="sans-serif" font-size="16" font-weight="bold" lengthAdjust="spacing" textLength="4" x="292" y="46.6094">&#160;</text><text fill="#000000" font-family="sans-serif" font-size="16" font-weight="bold" lengthAdjust="spacing" textLength="13" x="296" y="46.6094">2,</text><text fill="#000000" font-family="sans-serif" font-size="16" font-weight="bold" lengthAdjust="spacing" textLength="72" x="236" y="66.7344">Database</text></g><!--entity ==Service 2, Service API--><g id="elem_==Service 2, Service API"><polygon fill="#EDF08C" points="528,40.5,484.5,15.5,397.5,15.5,354,40.5,397.5,65.5,484.5,65.5,528,40.5" style="stroke:#A5A862;stroke-width:0.5;"/><text fill="#000000" font-family="sans-serif" font-size="16" font-weight="bold" lengthAdjust="spacing" textLength="57" x="404" y="37.1094">Service</text><text fill="#000000" font-family="sans-serif" font-size="16" font-weight="bold" lengthAdjust="spacing" textLength="4" x="461" y="37.1094">&#160;</text><text fill="#000000" font-family="sans-serif" font-size="16" font-weight="bold" lengthAdjust="spacing" textLength="13" x="465" y="37.1094">2,</text><text fill="#000000" font-family="sans-serif" font-size="16" font-weight="bold" lengthAdjust="spacing" textLength="57" x="397.5" y="57.2344">Service</text><text fill="#000000" font-family="sans-serif" font-size="16" font-weight="bold" lengthAdjust="spacing" textLength="4" x="454.5" y="57.2344">&#160;</text><text fill="#000000" font-family="sans-serif" font-size="16" font-weight="bold" lengthAdjust="spacing" textLength="26" x="458.5" y="57.2344">API</text></g><!--entity ==Service 4, Service API--><g id="elem_==Service 4, Service API"><polygon fill="#F08CA4" points="190,161,146.5,136,59.5,136,16,161,59.5,186,146.5,186,190,161" style="stroke:#A86272;stroke-width:0.5;"/><text fill="#000000" font-family="sans-serif" font-size="16" font-weight="bold" lengthAdjust="spacing" textLength="57" x="66" y="157.6094">Service</text><text fill="#000000" font-family="sans-serif" font-size="16" font-weight="bold" lengthAdjust="spacing" textLength="4" x="123" y="157.6094">&#160;</text><text fill="#000000" font-family="sans-serif" font-size="16" font-weight="bold" lengthAdjust="spacing" textLength="13" x="127" y="157.6094">4,</text><text fill="#000000" font-family="sans-serif" font-size="16" font-weight="bold" lengthAdjust="spacing" textLength="57" x="59.5" y="177.7344">Service</text><text fill="#000000" font-family="sans-serif" font-size="16" font-weight="bold" lengthAdjust="spacing" textLength="4" x="116.5" y="177.7344">&#160;</text><text fill="#000000" font-family="sans-serif" font-size="16" font-weight="bold" lengthAdjust="spacing" textLength="26" x="120.5" y="177.7344">API</text></g><!--entity ==Service 5, Service API--><g id="elem_==Service 5, Service API"><polygon fill="#FFAC33" points="399,161,355.5,136,268.5,136,225,161,268.5,186,355.5,186,399,161" style="stroke:#B27823;stroke-width:0.5;"/><text fill="#000000" font-family="sans-serif" font-size="16" font-weight="bold" lengthAdjust="spacing" textLength="57" x="275" y="157.6094">Service</text><text fill="#000000" font-family="sans-serif" font-size="16" font-weight="bold" lengthAdjust="spacing" textLength="4" x="332" y="157.6094">&#160;</text><text fill="#000000" font-family="sans-serif" font-size="16" font-weight="bold" lengthAdjust="spacing" textLength="13" x="336" y="157.6094">5,</text><text fill="#000000" font-family="sans-serif" font-size="16" font-weight="bold" lengthAdjust="spacing" textLength="57" x="268.5" y="177.7344">Service</text><text fill="#000000" font-family="sans-serif" font-size="16" font-weight="bold" lengthAdjust="spacing" textLength="4" x="325.5" y="177.7344">&#160;</text><text fill="#000000" font-family="sans-serif" font-size="16" font-weight="bold" lengthAdjust="spacing" textLength="26" x="329.5" y="177.7344">API</text></g><!--entity 6--><g id="elem_6"><rect fill="none" height="37.6094" rx="2.5" ry="2.5" style="stroke:none;stroke-width:0.5;" width="24" x="563" y="21.5"/></g><!--link 6 to 6--><g id="link_6_6"><path d="M587.04,32.3 C602.88,25.27 622,28 622,40.5 C622,53 608.3642,58.1639 592.5242,51.1339 " fill="none" id="6-to-6" style="stroke:#707070;stroke-width:2.0;stroke-dasharray:7.0,7.0;"/><polygon fill="#707070" points="587.04,48.7,593.6436,56.007,591.6101,50.7283,596.8889,48.6948,587.04,48.7" style="stroke:#707070;stroke-width:2.0;"/><text fill="#707070" font-family="sans-serif" font-size="15" lengthAdjust="spacing" textLength="80" x="628" y="47.0713">Relationship</text></g><!--SRC=[hTDBQuD040VmkvzYq6i8HgDvO09fIw67GcaAFPHI9Zhg4hCRTZTDsjBltjsyo4l8eGeI_sjcVZkmYZGecgD4BIHmmSbnr9HncypWnm5G9MPYoNW1ELQAJ89IYkMzu7hClWbQaOaood5HwHTQwL752ZuZhY4r3v9cTIbn_ieoNKBBzytx35UFf1GMjAbWmb-dP1c1CdyWeR_cHmn9gKPUL9Ga7reYLoOsjOV3DV16o8pahQZC1WvMxGgcqqAA1SykhTeTdEU_XurBMc4XU9AqThrEAdgzLkuZ7LNp_FLr8lFY2BkTdjtefYYuWy6Ov2TBpGGQiFivUdfmOTtm49AXnWagCu2WJa9PxdVJQoHe975W9BkgXvIW0NVRs3g2OyT-8E4_CYuC93WRI5W3QTT1B0FRLq4CerC3QPz1sZMGg1QIOng6rq0cGQSRX9SXqHaaif3zqG2tQSEJyu4AOYU6vflNyUtTq2LBfzmSla7mtXn237rmazIsxsy_6JvJXPe9haesTntd3m00]--></g></svg>